<svg width="210" height="302" viewBox="0 0 210 302" fill="none" xmlns="http://www.w3.org/2000/svg"><g clip-path="url(#a)" fill="#fff"><path d="M19.2 62.54c1.03 1.41 2.7 1.24 3.87.39 1.13-.82 1.84-2.39.81-3.8l-9.89-13.54 12.67 4.9c1.03.48 2.31.29 3.12-.3s1.39-1.57 1.24-2.7l-.86-13.79 9.92 13.58c1.03 1.41 2.66 1.27 3.83.42 1.13-.83 1.88-2.42.85-3.83L29.18 22.54c-1.06-1.45-2.74-1.46-3.91-.61-.77.56-1.35 1.54-1.28 2.73L25.26 44 7.21 36.99c-1.04-.41-2.17-.27-2.94.29-1.17.85-1.65 2.57-.62 3.98L19.2 62.54Zm34.42-23.42c.52 1.56 2.18 2.43 4.07 1.79l18.78-6.29c1.75-.58 2.22-2.01 1.84-3.14-.4-1.18-1.77-2.14-3.42-1.59l-16.51 5.53-2.63-7.85 15.66-5.24c1.66-.55 2.08-1.96 1.7-3.09-.39-1.18-1.64-2.08-3.25-1.54L54.2 22.93l-2.77-8.28 16.51-5.53c1.61-.54 2.1-2.07 1.72-3.21-.4-1.18-1.57-2-3.27-1.43L47.6 10.77c-1.89.63-2.69 2.32-2.19 3.84l8.21 24.51Zm35.3-7.01 10.27-.34c9.07-.31 14.89-6.84 14.58-16.36-.32-9.52-6.57-15.7-15.64-15.4L87.85.36c-1.79.06-3.25 1.41-3.19 3l.87 25.92c.05 1.6 1.59 2.89 3.39 2.83ZM98.28 4.9c5.59-.19 9.52 4.12 9.74 10.7.22 6.58-3.42 11.05-9.01 11.23l-7.88.26-.72-21.93 7.87-.26Zm24.97 27.54c1.4.35 3.05-.05 3.5-1.84l3.84-15.19.49-2.76 9.98 22.81c.42.98 1.44 1.86 2.55 2.14 1.6.4 3.49-.15 3.97-2.08l6.46-25.54c.42-1.65-.75-2.71-2.21-3.08-1.45-.37-3.16.08-3.55 1.62l-3.94 15.58-.63 3.29-10.2-23.58c-.53-1.16-1.23-1.86-2.44-2.16-1.55-.39-3.21.27-3.7 2.2l-6.4 25.3c-.43 1.78.78 2.91 2.28 3.29Zm34.44 11.36c1.3.64 3.02.54 3.77-.98l11.75-23.79c.82-1.65-.15-3.08-1.45-3.72-1.34-.66-2.97-.52-3.79 1.13l-11.75 23.79c-.78 1.58.12 2.91 1.47 3.57Zm12.87-2.69c-2.49 5.97 2.68 12.26 6.79 15.44 4.93 3.83 13.18 7.45 18.05 1.18 4.87-6.27-.86-11.1-5.95-15.87-3.65-3.28-6.72-6.16-4.73-8.73 2.14-2.76 6.99-.2 9.11 1.45 2.41 1.87 5.71 4.94 4.76 8.12-.23.96.29 1.99 1.16 2.67 1.34 1.04 3.54.98 4.24-.82 1.51-5.78-2.81-11.03-6.92-14.22-4.93-3.83-12.86-6.31-17.05-.91-4.66 6 .88 11.49 5.91 16.09 3.29 3 6.64 6.1 4.71 8.59-2.42 3.12-7.31.46-10.07-1.68-2.64-2.05-5.81-5.46-4.69-8.7.6-1.18.05-2.43-.97-3.22-1.4-1.08-3.55-1.24-4.35.61Zm39.41 159.71-.01-.84c-.01-1.98-.05-7.23-6.71-7.23h-11.08c5.97-12.54 9.32-26.55 9.32-41.34 0-53.2-43.28-96.48-96.48-96.48S8.53 98.21 8.53 151.41c0 14.79 3.35 28.8 9.32 41.34H6.69c-6.65 0-6.66 5.22-6.66 7.19l-.01.88c-.15 4.31.36 8.98 1.52 13.89 1.05 4.46 2.53 8.53 4.36 12.17-.07.13-.17.24-.24.37-.92 1.89-1.04 3.93-.35 5.74 1.59 4.19 3.96 8.53 7.06 12.91 2.61 3.68 5.43 6.93 8.41 9.74-.36 2.32.23 4.59 1.73 6.27 3.19 3.59 7.2 7.08 11.89 10.38 4.13 2.91 8.31 5.28 12.44 7.15.63 1.96 1.91 3.58 3.69 4.59 4.44 2.52 9.65 4.72 15.46 6.54 5.03 1.58 9.9 2.65 14.54 3.25.22.52.45 1.03.76 1.51 1.38 2.16 3.46 3.63 5.87 4.12 5.39 1.11 11.39 1.67 17.83 1.67 6.44 0 12.45-.56 17.83-1.67 2.4-.49 4.48-1.96 5.86-4.12.3-.48.54-.99.76-1.51 4.64-.61 9.51-1.68 14.54-3.25 5.81-1.82 11.01-4.02 15.46-6.54 1.77-1.01 3.06-2.62 3.69-4.59 4.13-1.87 8.31-4.25 12.44-7.15 4.7-3.3 8.7-6.8 11.89-10.38 1.5-1.69 2.09-3.95 1.73-6.27 2.97-2.81 5.79-6.05 8.41-9.74 3.09-4.36 5.46-8.71 7.06-12.91.69-1.81.57-3.85-.35-5.74-.06-.13-.17-.25-.24-.37 1.83-3.63 3.31-7.7 4.36-12.17 1.18-4.91 1.7-9.59 1.54-13.89ZM15.18 151.41c0-49.53 40.3-89.83 89.83-89.83s89.83 40.3 89.83 89.83c0 23.78-9.3 45.41-24.44 61.49a62.524 62.524 0 0 1-21.53-9.6 34.748 34.748 0 0 0 4.41-16.96c0-8.35-2.99-16.42-8.42-22.75-.02-.02-.04-.04-.05-.06a13.255 13.255 0 0 1-3.33-8.8c0-5.88 3.83-10.98 9.53-12.68 1.28-.38 2.21-1.5 2.36-2.83.15-1.33-.53-2.62-1.7-3.27-3.6-1.99-7.69-3.04-11.82-3.04-3.71 0-7.23.84-10.39 2.31 5.49-6.15 13.44-10.05 22.32-10.05 4.47 0 8.82 1 12.92 2.97 1.24.6 2.74.37 3.74-.6 1-.96 1.3-2.44.75-3.72-4.74-11.02-12.45-20.77-22.3-28.18v-.01c-12.23-9.22-26.73-14.1-41.95-14.11-45.82.04-83.1 37.35-83.1 83.17 0 13.06 3.03 25.42 8.42 36.42-9.52-14.22-15.08-31.32-15.08-49.7Zm119.64 3.33c0 .3.07.59.08.9-3.7-2-7.73-3.33-11.94-3.89 2.37-7.14 9.03-12.17 16.88-12.17.63 0 1.27.03 1.9.1-4.31 3.68-6.92 9.1-6.92 15.06Zm11.8 31.6c0 4.51-1.09 8.87-3.11 12.83-11.8-10.26-19.66-24.77-21.44-40.84 6.84.91 13.16 4.27 17.72 9.57.02.02.03.04.05.06 0 .01.01.01.02.01a28.35 28.35 0 0 1 6.76 18.37Zm-21.18-56.57c3.82-10.49 10.45-19.85 19.4-27.17 5.85 4.77 10.83 10.42 14.6 16.75-2.51-.55-5.08-.82-7.67-.82-10.34-.01-19.67 4.32-26.33 11.24Zm-10.45 21.64c0 1.11.08 2.2.14 3.3v.02c0 .01.01.02.01.03 1 20.8 11.25 39.59 27.04 51.87.12.12.21.26.35.36.1.07.22.1.33.16 6.51 4.93 13.9 8.8 21.98 11.22-11.6 10.37-25.89 17.8-41.69 21.05-.03.01-.05.01-.08.02-1.33.27-2.66.51-4.01.72l-.59.09c-1.19.18-2.38.32-3.58.46-.32.03-.63.08-.95.11-1.13.11-2.27.19-3.42.26-.35.02-.71.06-1.06.07-1.46.07-2.94.11-4.42.11h-.03c-1.32 0-2.63-.04-3.94-.1-40.37-2.06-72.59-35.55-72.59-76.42 0-42.15 34.29-76.48 76.45-76.52 12.32 0 24.13 3.55 34.42 10.29-15.53 13.29-24.36 32.33-24.36 52.9ZM8.02 213.17c-1.28-5.39-1.44-9.57-1.35-12.13.01-.37.02-.74.02-1.1v-.55h14.67a97.295 97.295 0 0 0 11.45 15.91l-20.35 6.41c-.48.15-.92.37-1.37.58-1.03-2.29-2.17-5.31-3.07-9.12Zm16.19 36.53c-2.24-2.25-4.38-4.81-6.39-7.65-3.46-4.88-5.32-8.91-6.28-11.43-.02-.05 0-.23.12-.48.32-.65 1.24-1.59 2.8-2.08l23.49-7.39c3.85 3.73 8 7.14 12.42 10.2l-25.12 17.88c-.39.27-.69.63-1.04.95Zm24.15 20.9c-.39.55-.71 1.13-.98 1.73a71.005 71.005 0 0 1-9.14-5.48c-5.33-3.75-8.79-7.16-10.75-9.36-.28-.32-.15-.95.05-1.44.05-.11.13-.21.17-.32.24-.46.63-1.02 1.39-1.56l27.33-19.45a96.783 96.783 0 0 0 12.81 6.27L48.36 270.6Zm31.67 16.45c-3.16-.48-7.24-1.33-12.03-2.83-6.68-2.09-11.39-4.41-14.17-5.98-.57-.32-.71-1.01-.74-1.4-.06-.81.19-1.67.71-2.41l21.93-31.1c4.49 1.43 9.12 2.54 13.87 3.31l-9.57 40.41Zm43.06 4.71c-.23.37-.75 1-1.59 1.18-3.4.7-9.02 1.53-16.5 1.53s-13.09-.83-16.5-1.53c-.84-.17-1.36-.81-1.6-1.18-.54-.84-.71-1.92-.46-2.95l9.79-41.33c2.89.26 5.81.42 8.77.42h.02c2.93 0 5.84-.15 8.73-.41l9.79 41.32c.26 1.03.09 2.11-.45 2.95Zm33.08-13.52c-2.77 1.57-7.49 3.89-14.17 5.98-4.79 1.5-8.88 2.35-12.03 2.83l-9.57-40.39c4.73-.75 9.37-1.85 13.89-3.28l21.9 31.05c.53.75.78 1.6.71 2.41-.03.47-.19 1.1-.73 1.4Zm26.34-20.76c-1.96 2.2-5.42 5.62-10.75 9.37a70.964 70.964 0 0 1-9.14 5.48c-.27-.6-.59-1.18-.98-1.73l-20.85-29.55c4.43-1.77 8.71-3.86 12.84-6.28l27.27 19.4c.87.62 1.31 1.32 1.53 1.8.22.49.37 1.18.08 1.51Zm9.67-15.43a61.643 61.643 0 0 1-6.39 7.65c-.35-.32-.65-.68-1.03-.95l-25.06-17.83c4.38-3.03 8.52-6.45 12.42-10.22l23.42 7.38c1.56.49 2.49 1.43 2.8 2.08.12.25.14.43.12.47-.96 2.52-2.83 6.56-6.28 11.42Zm9.8-28.88c-.9 3.81-2.04 6.84-3.07 9.13-.45-.2-.9-.43-1.38-.58l-20.33-6.4a96.957 96.957 0 0 0 11.45-15.92h14.64c0 .21.01.43.01.62l.02 1.03c.09 2.55-.07 6.73-1.34 12.12Z"/><path d="M66.24 122.69c0 5.78 2.15 11.33 6.06 15.63.63.7 1.53 1.09 2.46 1.09h.09a3.302 3.302 0 0 0 2.49-1.22c1.31-1.6 2.43-2.88 3.53-4.02 1.01-1.04 2.12-2.08 3.28-3.12 1.55.99 3.38 1.59 5.36 1.59 5.5 0 9.98-4.48 9.98-9.98 0-.56-.08-1.09-.16-1.62 3-1.42 6.07-2.68 9.22-3.6a3.327 3.327 0 0 0 2.394-3.221 3.32 3.32 0 0 0-.314-1.389c-3.82-8.16-12.1-13.43-21.08-13.43-12.86 0-23.31 10.44-23.31 23.29Zm23.26 3.29c-1.84 0-3.33-1.49-3.33-3.33s1.49-3.33 3.33-3.33 3.33 1.49 3.33 3.33-1.49 3.33-3.33 3.33Zm13.07-13.59c-2.22.8-4.38 1.76-6.52 2.79-1.76-1.54-4.03-2.51-6.54-2.51-5.5 0-9.98 4.48-9.98 9.98 0 1.1.22 2.14.55 3.12-1.41 1.24-2.77 2.5-3.99 3.77-.36.38-.73.77-1.1 1.17-1.36-2.44-2.08-5.2-2.08-8.03 0-9.17 7.46-16.64 16.64-16.64 5.1.01 9.9 2.41 13.02 6.35Z"/></g><defs><clipPath id="a"><path fill="#fff" d="M0 0h210v302H0z"/></clipPath></defs></svg>
