<svg width="32" height="32" fill="none" viewBox="0 0 32 32"
    xmlns="http://www.w3.org/2000/svg">
    <path fill-rule="evenodd" d="M23.967 6.944a2.022 2.022 0 0 1 2.338.38l.366.367 1.704 1.025c.699.42 1.127 1.178 1.127 1.995 0 .12.06.23.158.297l.213.142a2.037 2.037 0 0 1 .8 2.337 2.03 2.03 0 0 1-1.926 1.39h-.726c-.167 0-.33.04-.48.114l-.13.066c-.379.19-.787.312-1.208.361l-1.167.138c.113.423.2.853.262 1.288l.032.22c.135.948.443 1.865.907 2.703l1.51 2.725c.946.616.574 2.238-.69 2.238H25.72c-.31 0-.613-.101-.862-.288l-1.43-1.075a4.778 4.778 0 0 0-.73-.452 6.752 6.752 0 0 1-2.767-2.569l-.137-.228c-.192.304-.32.649-.372 1.014l-.178 1.246a.067.067 0 0 0 .019.057l.023.023c1.01.641.58 2.272-.673 2.272h-1.847a1.67 1.67 0 0 1-1.619-1.267l-.357-1.434-.189-.661-.618 1.55c.412.718-.015 1.812-1.044 1.812h-1.437a1.43 1.43 0 0 1-1.012-.42l-.115-.115a1.828 1.828 0 0 1-.533-1.291v-.161c0-.061-.023-.12-.064-.165l-1.14-1.254-1.282.964a2.85 2.85 0 0 1-1.243.533l-1.16.194c.307.772-.237 1.715-1.169 1.715h-.884a1.619 1.619 0 0 1-1.503-1.02l-.393-.986a3.197 3.197 0 0 1 .307-2.954l.221-.333c.053-.08.1-.164.142-.25l3.292-6.966a7.403 7.403 0 0 1 6.683-4.24h2.975c.649 0 1.294-.09 1.918-.269l.873-.25a5.993 5.993 0 0 1 3.55.077c.718.24 1.487.273 2.22.096.195-.293.464-.532.78-.69Zm-.91 2.718a5.994 5.994 0 0 1-2.713-.254 4.032 4.032 0 0 0-2.388-.052l-.873.25c-.8.23-1.627.346-2.458.346H11.65a5.435 5.435 0 0 0-4.907 3.113L3.451 20.03c-.082.173-.176.34-.282.5l-.222.333a1.222 1.222 0 0 0-.117 1.13l.102.254a1.703 1.703 0 0 1 1.328-1.114l1.53-.255a.888.888 0 0 0 .388-.166l1.49-1.12c.13-.098.261-.192.395-.283a.982.982 0 0 1 .357-.233 10.478 10.478 0 0 1 4.385-1.524l1.219-.136.784-2.357a.982.982 0 1 1 1.865.623l-.887 2.666.904 3.171.31 1.24h.313a2.039 2.039 0 0 1-.014-.66l.178-1.245a4.555 4.555 0 0 1 2.16-3.262l.158-.095a2.969 2.969 0 0 0 1.016-1.019l.585-.976a3.826 3.826 0 0 1 1.084-1.167l-.738-1.48a.986.986 0 0 1 .44-1.322.982.982 0 0 1 1.318.441l.748 1.498c.03.061.06.122.088.183l1.637-.194c.195-.022.384-.079.559-.167l.13-.065a3.032 3.032 0 0 1 1.359-.322h.726a.064.064 0 0 0 .036-.117l-.213-.142a2.329 2.329 0 0 1-1.034-1.937.357.357 0 0 0-.173-.305l-.54-.325a.98.98 0 0 1-1.308.197.981.981 0 0 1-1.623.37l-.452-.452a2.026 2.026 0 0 1-.382-.534Zm2.021-.611v-.17l-.163-.163a.06.06 0 1 0-.085.084l.248.249Zm-1.874 7.284a1.864 1.864 0 0 0-.122.18l-.585.977c-.309.517-.709.97-1.178 1.341l.299.5a4.784 4.784 0 0 0 1.96 1.82c.363.181.708.395 1.032.638l.858.645-.95-1.712a9.841 9.841 0 0 1-1.134-3.382l-.032-.22a9.084 9.084 0 0 0-.148-.787Zm-9.969 3.152-.213.024a8.514 8.514 0 0 0-2.683.758l.893.983c.371.407.577.94.577 1.49v.017h.124l.03-.085 1.273-3.187Z" clip-rule="evenodd"/>
</svg>