<svg width="32" height="32" xmlns="http://www.w3.org/2000/svg"><path d="M23.636 25.333c-1.64 0-2.972-1.368-3.021-3.065v-.184c.048-1.697 1.381-3.067 3.021-3.067 1.417 0 2.601 1.023 2.93 2.394l.022.134c.004.027.02.047.024.072.032.183.055.367.055.558 0 1.742-1.359 3.158-3.031 3.158Zm-9.7-9.54c-1.052 0-1.87.744-2.272 1.652a5.573 5.573 0 0 0-3.3-1.094c-.788 0-1.537.165-2.221.462L7.48 8.137c.261-.865 1.039-1.47 1.907-1.47 1.108 0 2.005.944 2.006 2.102l-.001 2.742a1.337 1.337 0 0 0 1.333 1.334h6.55c.354 0 .693-.141.944-.39.249-.251.389-.591.389-.944l-.001-2.743c.001-1.159.9-2.101 2.005-2.101.87 0 1.647.605 1.908 1.47l1.339 8.676a5.561 5.561 0 0 0-2.223-.462 5.572 5.572 0 0 0-3.3 1.094c-.401-.908-1.221-1.652-2.272-1.652h-4.128Zm-5.572 9.54c-1.67 0-3.03-1.416-3.03-3.158 0-.191.023-.375.054-.558.005-.025.021-.045.025-.072l.022-.133c.329-1.372 1.512-2.395 2.929-2.395 1.644 0 2.98 1.375 3.021 3.079v.159c-.041 1.704-1.377 3.078-3.021 3.078ZM29.187 20.9 27.136 7.603c-.004-.028-.023-.05-.028-.078-.007-.028 0-.056-.007-.084C26.524 5.415 24.68 4 22.612 4c-2.393 0-4.348 1.853-4.617 4.224-.02.09-.055.173-.055.27v.278l.001 1.407H14.06l.001-1.407v-.419a1.313 1.313 0 0 0-.08-.404C13.596 5.711 11.688 4 9.387 4 7.32 4 5.476 5.415 4.899 7.441c-.008.028 0 .056-.007.084-.007.028-.024.05-.028.078l-2.05 13.296a5.92 5.92 0 0 0-.147 1.276C2.667 25.387 5.223 28 8.364 28c3.081 0 5.585-2.52 5.68-5.65 0-.017.01-.03.01-.046v-.05c0-.027.006-.051.006-.08 0-.026-.007-.05-.007-.077v-3.442c0-.048.034-.132.071-.195h3.752c.037.063.07.147.07.196l.002 3.43c-.001.03-.008.058-.008.089 0 .032.008.06.008.092v.176c0 .06.027.11.035.168C18.205 25.616 20.64 28 23.636 28c3.141 0 5.697-2.613 5.697-5.825a6 6 0 0 0-.146-1.276Z"/></svg>
