<svg width="32" height="32" viewBox="0 0 32 32" xmlns="http://www.w3.org/2000/svg">
<path d="M20.756 18.375C19.247 20.019 16.877 20.863 13.711 20.884C13.401 20.886 13.127 20.888 12.869 21.067C12.225 21.423 9.46901 22.689 7.68401 23.347C7.84201 23.06 8.01401 22.768 8.19401 22.474C11.024 21.755 20.121 16.816 20.66 13.442C20.863 12.179 21.247 12.129 22.626 12.225C22.698 14.866 22.076 16.937 20.756 18.375ZM17.279 11.549C17.966 10.838 18.17 10.626 18.281 10.47C18.378 10.335 18.483 10.133 18.601 9.887C19.006 9.046 19.51 8 21.463 8C22.028 8 22.42 8.174 22.661 8.53C22.935 8.937 23.003 9.564 22.867 10.235L22.845 10.234C21.568 10.146 19.19 9.977 18.686 13.126C18.459 14.545 13.792 17.812 10.229 19.538C12.726 16.26 15.791 13.087 17.279 11.549ZM26.549 9.229L24.717 8.025C24.687 8.006 24.652 8.003 24.621 7.987C24.5394 7.7859 24.4383 7.59331 24.319 7.412C23.705 6.502 22.691 6 21.463 6C18.253 6 17.234 8.116 16.799 9.021C16.742 9.138 16.699 9.24 16.669 9.287C16.572 9.406 16.276 9.709 15.841 10.158C13.448 12.633 7.08901 19.207 5.09501 24.119C4.88001 24.651 5.03601 25.217 5.48501 25.526C5.64801 25.639 5.88501 25.688 6.17801 25.688C8.05901 25.688 12.225 23.624 13.636 22.885L13.724 22.884C14.5644 22.8805 15.4034 22.8147 16.234 22.687L16.888 23.927L16.526 24.066C16.2783 24.1611 16.0785 24.3507 15.9706 24.5931C15.8626 24.8355 15.8554 25.1108 15.9505 25.3585C16.0456 25.6062 16.2352 25.806 16.4776 25.9139C16.72 26.0219 16.9953 26.0291 17.243 25.934L18.433 25.477L20.854 25.742C20.9852 25.7576 21.1181 25.747 21.2452 25.711C21.3723 25.6749 21.4909 25.614 21.5943 25.5318C21.6977 25.4496 21.7838 25.3478 21.8476 25.2321C21.9114 25.1164 21.9517 24.9893 21.9661 24.858C21.9805 24.7267 21.9687 24.5938 21.9315 24.4671C21.8943 24.3404 21.8323 24.2223 21.7492 24.1196C21.666 24.017 21.5634 23.9318 21.4472 23.8691C21.3309 23.8063 21.2034 23.7672 21.072 23.754L18.936 23.52L18.242 22.206C19.848 21.682 21.188 20.861 22.23 19.727C23.96 17.841 24.753 15.206 24.613 11.902L26.456 10.954C26.6112 10.8739 26.7427 10.7546 26.8375 10.6079C26.9323 10.4612 26.9871 10.2923 26.9964 10.1179C27.0057 9.94347 26.9692 9.76967 26.8905 9.61374C26.8119 9.45781 26.6938 9.32517 26.548 9.229"/>
</svg>
