<svg width="32" height="32" viewBox="0 0 32 32" xmlns="http://www.w3.org/2000/svg">
<path d="M15.302 8.88602C19.928 6.40102 25.004 9.78902 26.414 11.173C27.224 11.967 27.301 13.683 27.266 15.418V15.471C27.406 15.668 27.763 16.029 27.966 16.234C28.334 16.604 28.65 16.926 28.829 17.236L29.866 19.039C29.9609 19.2031 30.007 19.3907 29.999 19.5801C29.9911 19.7694 29.9293 19.9525 29.821 20.108L29.187 21.022C29.0378 21.2362 28.811 21.3837 28.5548 21.4331C28.2986 21.4826 28.0332 21.4302 27.815 21.287L27.396 21.006C27.2941 21.075 27.1801 21.1242 27.06 21.151C26.5605 21.2531 26.0518 21.304 25.542 21.303C24.6429 21.3018 23.7501 21.1518 22.9 20.859C22.913 20.914 22.924 20.976 22.94 21.013C23.06 21.323 23.555 22.533 23.555 22.535C23.6175 22.6869 23.6416 22.8518 23.6251 23.0152C23.6087 23.1786 23.5521 23.3354 23.4605 23.4717C23.3689 23.608 23.2451 23.7196 23.1001 23.7965C22.955 23.8735 22.7932 23.9135 22.629 23.913H21.669C21.4349 23.9131 21.2083 23.8311 21.0285 23.6812C20.8487 23.5314 20.7271 23.3233 20.685 23.093L20.493 22.06C19.9064 21.7039 19.3662 21.2763 18.885 20.787C18.6741 21.2316 18.4241 21.6566 18.138 22.057L18.34 22.677C18.386 22.8194 18.3995 22.9703 18.3795 23.1186C18.3595 23.2669 18.3066 23.4088 18.2246 23.534C18.1426 23.6592 18.0336 23.7644 17.9056 23.8419C17.7776 23.9194 17.6339 23.9673 17.485 23.982C17.288 24.0022 17.0901 24.0129 16.892 24.014C16.28 24.014 15.992 23.883 15.777 23.688C15.6707 23.5884 15.5854 23.4685 15.5262 23.3354C15.4669 23.2023 15.4349 23.0587 15.432 22.913L15.44 22.623C15.445 22.428 15.462 21.883 15.456 21.638C15.399 21.441 15.411 21.174 15.552 20.558C14.178 20.475 12.547 20.111 11.073 19.085C10.917 19.2151 10.7541 19.3366 10.585 19.449L10.646 19.519C10.8028 19.7004 10.8891 19.9322 10.889 20.172V22.377C10.888 22.5872 10.8208 22.7918 10.6971 22.9618C10.5734 23.1317 10.3993 23.2585 10.1996 23.324C9.9999 23.3896 9.7846 23.3907 9.58421 23.3272C9.38382 23.2637 9.20848 23.1387 9.08303 22.97L8.10403 21.639C7.99179 21.4858 7.92567 21.3036 7.91344 21.1141C7.90122 20.9245 7.9434 20.7354 8.03503 20.569C7.59203 20.777 7.10703 21.203 6.77903 21.533L6.95503 22.581C6.97953 22.7244 6.97238 22.8713 6.93408 23.0116C6.89578 23.1519 6.82725 23.2821 6.73331 23.3931C6.63936 23.5041 6.52227 23.5932 6.39024 23.6542C6.25821 23.7152 6.11445 23.7465 5.96903 23.746H5.36303C5.1236 23.7461 4.89211 23.6602 4.71062 23.504C4.52914 23.3479 4.4097 23.1318 4.37403 22.895C3.90203 19.768 4.41403 19.175 4.60603 18.952C4.94903 18.552 5.85803 17.168 6.09303 16.628L6.01503 16.374C5.90503 16.0106 5.79936 15.6459 5.69803 15.28C4.99203 16.152 4.18903 16.853 3.41803 17.207C3.17681 17.3176 2.90154 17.3279 2.65278 17.2355C2.40401 17.1431 2.20212 16.9557 2.09153 16.7145C1.98093 16.4733 1.97069 16.198 2.06305 15.9493C2.15541 15.7005 2.34281 15.4986 2.58403 15.388C3.55803 14.942 4.74703 13.488 5.35003 12.01C5.35203 12.006 5.35503 12.004 5.35603 12C5.87403 10.566 8.71703 8.42602 10.269 8.34302C10.873 8.31102 11.684 8.45502 12.636 8.61702C13.436 8.75402 14.921 9.00702 15.302 8.88602ZM24.996 12.582C24.087 11.691 19.873 8.69702 16.214 10.664C15.43 11.084 14.214 10.917 12.299 10.588C11.567 10.463 10.736 10.306 10.374 10.341C9.60903 10.381 7.47403 12.044 7.23503 12.668C7.19003 12.891 7.26803 13.632 7.92803 15.788C8.01603 16.078 8.07903 16.292 8.10003 16.386C8.22103 16.953 7.73003 17.918 7.20503 18.743C7.25103 18.721 7.29603 18.701 7.34203 18.682C7.53203 18.602 7.74903 18.528 7.98403 18.448C8.96103 18.116 10.068 17.74 10.811 16.251C10.8696 16.1336 10.9508 16.0288 11.05 15.9427C11.1491 15.8566 11.2642 15.7909 11.3887 15.7493C11.5132 15.7077 11.6447 15.691 11.7757 15.7002C11.9067 15.7095 12.0345 15.7444 12.152 15.803C12.2695 15.8617 12.3742 15.9429 12.4603 16.042C12.5464 16.1411 12.6121 16.2562 12.6537 16.3807C12.6953 16.5053 12.712 16.6368 12.7028 16.7677C12.6936 16.8987 12.6586 17.0266 12.6 17.144C12.527 17.289 12.445 17.409 12.368 17.541C14.141 18.683 16.255 18.636 17.378 18.501C17.1884 18.0466 17.0521 17.5718 16.972 17.086C16.9345 16.8255 17.0013 16.5608 17.1578 16.3492C17.3142 16.1376 17.5478 15.9962 17.8078 15.9556C18.0678 15.9151 18.3334 15.9787 18.5468 16.1327C18.7602 16.2866 18.9044 16.5185 18.948 16.778C19.176 18.238 20.049 19.232 20.771 19.823C20.7636 19.6968 20.7536 19.5708 20.741 19.445C20.681 18.871 21.111 17.091 21.366 16.522C21.484 16.295 21.6843 16.1216 21.926 16.0376C22.1677 15.9536 22.4324 15.9652 22.6658 16.07C22.8992 16.1749 23.0836 16.3651 23.1813 16.6016C23.279 16.8381 23.2824 17.103 23.191 17.342C23.092 17.56 22.941 18.158 22.838 18.647C23.193 18.873 24.22 19.291 25.498 19.297C25.4653 19.1504 25.4668 18.9983 25.5021 18.8523C25.5375 18.7063 25.6059 18.5704 25.702 18.455C26.063 18.035 26.693 17.987 27.112 18.343C27.138 18.366 27.168 18.39 27.202 18.417L27.095 18.232C27.03 18.131 26.738 17.836 26.545 17.641C25.857 16.946 25.262 16.344 25.262 15.629L25.266 15.377C25.311 13.193 25.07 12.685 24.996 12.582ZM21.794 11.352C22.558 11.257 24.337 12.321 24.654 12.627C24.7919 12.7591 24.889 12.9279 24.9338 13.1135C24.9786 13.2991 24.9693 13.4937 24.9068 13.6741C24.8444 13.8545 24.7315 14.0133 24.5816 14.1315C24.4317 14.2497 24.251 14.3224 24.061 14.341C24.1783 14.5259 24.2317 14.7443 24.213 14.9625C24.1942 15.1807 24.1044 15.3867 23.9572 15.5489C23.81 15.7111 23.6136 15.8204 23.3982 15.8602C23.1829 15.9 22.9604 15.8679 22.765 15.769C21.181 14.97 20.643 13.488 20.814 12.448C20.962 11.54 21.602 11.38 21.794 11.352Z"/>
</svg>
