<svg width="32" height="32" xmlns="http://www.w3.org/2000/svg"><path fill-rule="evenodd" clip-rule="evenodd" d="M2.547 11.996C5.687 10.401 10.543 8 16 8c5.457 0 10.303 2.402 13.452 3.996a1 1 0 0 1 .548.892V23a1 1 0 0 1-1 1h-6.5a1 1 0 0 1-1-1c0-2.948-2.443-5.37-5.5-5.37s-5.5 2.422-5.5 5.37a1 1 0 0 1-1 1H3.03a1 1 0 0 1-1-.997L2 12.891a1 1 0 0 1 .547-.895Zm1.455 1.506L4.027 22h4.541c.497-3.612 3.651-6.37 7.432-6.37 3.78 0 6.934 2.758 7.432 6.37H28v-8.496C24.873 11.936 20.646 10 16 10c-4.645 0-8.88 1.935-11.998 3.502Z" /></svg>
