<svg width="32" height="32" viewBox="0 0 32 32" xmlns="http://www.w3.org/2000/svg">
<path d="M22 23.566C22 24.336 21.547 25.067 20.858 25.484L17 27.39V25.625C17 24.855 17.454 24.124 18.143 23.707L22 21.799V23.566ZM10 23.566V21.799L13.785 23.668C14.546 24.124 15 24.855 15 25.625V27.391L11.214 25.523C10.454 25.067 10 24.336 10 23.566ZM15 14.73V16.497L11.214 14.628C10.454 14.171 10 13.44 10 12.67V10.905L13.785 12.773C14.546 13.229 15 13.961 15 14.73ZM18.143 12.812L22 10.905V12.67C22 13.44 21.547 14.171 20.858 14.588L17 16.496V14.73C17 13.961 17.454 13.229 18.143 12.812ZM22 18.119C22 18.888 21.547 19.62 20.858 20.037L17 21.944V20.177C17 19.408 17.454 18.676 18.143 18.259L22 16.352V18.119ZM15 20.177V21.945L11.214 20.076C10.454 19.62 10 18.888 10 18.119V16.352L13.785 18.22C14.546 18.676 15 19.408 15 20.177ZM23 3.259C22.7348 3.259 22.4804 3.36436 22.2929 3.55189C22.1054 3.73943 22 3.99378 22 4.259V8.674L17.185 11.058C17.12 11.097 17.063 11.143 17 11.184V3C17 2.73478 16.8946 2.48043 16.7071 2.29289C16.5196 2.10536 16.2652 2 16 2C15.7348 2 15.4804 2.10536 15.2929 2.29289C15.1054 2.48043 15 2.73478 15 3V11.193C14.914 11.135 14.834 11.073 14.743 11.019L10 8.674V4.259C10 3.99378 9.89464 3.73943 9.70711 3.55189C9.51957 3.36436 9.26522 3.259 9 3.259C8.73478 3.259 8.48043 3.36436 8.29289 3.55189C8.10536 3.73943 8 3.99378 8 4.259V12.67C8 13.154 8.096 13.624 8.264 14.07C8.09515 14.2536 8.001 14.4936 8 14.743V18.119C8 18.602 8.096 19.071 8.264 19.517C8.098 19.7 8 19.937 8 20.19V23.566C8 25.045 8.816 26.418 10.256 27.277L15.557 29.896C15.571 29.904 15.589 29.901 15.604 29.907C15.7282 29.965 15.863 29.9966 16 30C16.137 30 16.27 29.962 16.396 29.907C16.411 29.901 16.429 29.904 16.443 29.896L21.816 27.238C23.184 26.417 24 25.044 24 23.566V20.19C23.9991 19.9415 23.9057 19.7023 23.738 19.519C23.904 19.073 24 18.603 24 18.119V14.743C23.9993 14.4945 23.9059 14.2552 23.738 14.072C23.904 13.626 24 13.155 24 12.67V4.259C24 3.99378 23.8946 3.73943 23.7071 3.55189C23.5196 3.36436 23.2652 3.259 23 3.259Z"/>
</svg>
