<svg width="32" height="32"  xmlns="http://www.w3.org/2000/svg"><g clip-path="url(#a)"><path fill-rule="evenodd" clip-rule="evenodd" d="M12.453 2.032a1.333 1.333 0 0 1 1.222.761l4.028 8.487.99-2.225a1.333 1.333 0 0 1 2.414-.046l3.346 6.803a1.334 1.334 0 0 1 2.267-.019l5.139 8.126a1.333 1.333 0 0 1-.903 2.026l-9.477 1.62a1.333 1.333 0 0 1-1.503-1.696l-7.293 2.064a1.333 1.333 0 0 1-1.582-1.825l.987-2.217-9.003 2.677a1.334 1.334 0 0 1-1.597-1.82l4.34-9.745-2.435-1.084a1.334 1.334 0 0 1 1.084-2.436l2.435 1.084 4.341-9.744a1.334 1.334 0 0 1 1.2-.791ZM8.79 14.907l.034-.074 3.684-8.277 4.029 8.487a1.333 1.333 0 0 0 2.423-.03l1.01-2.272 3.34 6.79a1.334 1.334 0 0 0 2.414-.046l.073-.161 2.737 4.33-5.05.862.072-.16a1.334 1.334 0 0 0-1.582-1.827l-7.28 2.062 1.012-2.271a1.332 1.332 0 0 0-1.722-1.777l-8.88 2.644 3.686-8.28Z" /></g><defs><clipPath id="a"><path d="M0 0h32v32H0z"/></clipPath></defs></svg>
