<svg width="32" height="32" viewBox="0 0 32 32" xmlns="http://www.w3.org/2000/svg">
<path d="M25.273 23.727C25.156 23.727 25.028 23.71 24.878 23.675C24.7117 23.6345 24.5377 23.6379 24.3731 23.6849C24.2085 23.7319 24.0589 23.8208 23.939 23.943C23.8183 24.0643 23.7309 24.2145 23.685 24.3793C23.6391 24.544 23.6364 24.7178 23.677 24.884C23.711 25.024 23.727 25.151 23.727 25.273C23.7262 25.7308 23.544 26.1696 23.2203 26.4933C22.8966 26.817 22.4578 26.9992 22 27C21.5422 26.9992 21.1034 26.817 20.7797 26.4933C20.456 26.1696 20.2738 25.7308 20.273 25.273C20.273 24.799 20.462 24.357 20.807 24.025C20.81 24.022 20.811 24.017 20.814 24.015C20.816 24.012 20.82 24.012 20.822 24.009C20.866 23.963 20.888 23.909 20.921 23.859C20.961 23.8 21.009 23.749 21.035 23.686C21.059 23.626 21.062 23.561 21.075 23.498C21.087 23.436 21.11 23.375 21.11 23.312C21.11 23.246 21.089 23.183 21.076 23.118C21.064 23.058 21.064 22.996 21.041 22.937C21.015 22.873 20.968 22.82 20.93 22.762C20.896 22.712 20.875 22.655 20.832 22.61C20.829 22.608 20.826 22.608 20.823 22.605C20.82 22.602 20.82 22.597 20.817 22.595L17.427 19.229L19.238 17.404L22.64 20.782C22.71 20.852 22.797 20.896 22.881 20.942C22.913 20.956 22.936 20.985 22.968 20.998C23.053 21.032 23.145 21.039 23.235 21.049C23.273 21.055 23.307 21.072 23.343 21.072H23.345C23.392 21.072 23.439 21.051 23.485 21.044C23.565 21.032 23.645 21.029 23.721 20.998C23.79 20.969 23.848 20.916 23.911 20.872C23.957 20.838 24.009 20.82 24.051 20.779C24.293 20.5387 24.6007 20.3752 24.9353 20.3092C25.27 20.2433 25.6167 20.2777 25.9318 20.4082C26.247 20.5386 26.5165 20.7594 26.7066 21.0426C26.8966 21.3258 26.9987 21.6589 27 22C26.9997 22.4585 26.8175 22.8981 26.4933 23.2223C26.1691 23.5465 25.7295 23.7287 25.271 23.729L25.273 23.727ZM10 27C9.54204 26.9995 9.10298 26.8174 8.77906 26.4937C8.45514 26.1699 8.27279 25.731 8.272 25.273C8.272 25.159 8.29 25.029 8.325 24.875C8.36354 24.7093 8.35918 24.5365 8.31233 24.373C8.26547 24.2095 8.17767 24.0606 8.05723 23.9404C7.93679 23.8203 7.78769 23.7329 7.62404 23.6864C7.46039 23.64 7.28759 23.636 7.122 23.675C6.99238 23.7072 6.85954 23.7246 6.726 23.727C6.43978 23.7277 6.15786 23.6574 5.90552 23.5224C5.65318 23.3873 5.43832 23.1917 5.28021 22.9531C5.12211 22.7145 5.02571 22.4404 4.99966 22.1554C4.97361 21.8703 5.01873 21.5833 5.13096 21.32C5.2432 21.0567 5.41904 20.8254 5.64271 20.6468C5.86639 20.4682 6.1309 20.348 6.41251 20.2968C6.69412 20.2457 6.98402 20.2653 7.25621 20.3538C7.52839 20.4423 7.77435 20.597 7.972 20.804C7.975 20.808 7.98 20.809 7.983 20.813L7.991 20.823C8.038 20.869 8.097 20.893 8.151 20.928C8.205 20.963 8.253 21.009 8.311 21.033C8.375 21.06 8.443 21.063 8.511 21.076C8.568 21.087 8.625 21.11 8.684 21.11L8.694 21.113C8.756 21.113 8.814 21.087 8.874 21.078C8.937 21.066 9.001 21.064 9.061 21.041C9.126 21.015 9.179 20.968 9.238 20.928C9.288 20.895 9.342 20.875 9.386 20.833L9.394 20.826C9.397 20.821 9.401 20.82 9.404 20.817L16.688 13.48C16.693 13.477 16.697 13.476 16.7 13.473C16.703 13.47 16.703 13.465 16.708 13.463L20.781 9.361C20.828 9.311 20.853 9.251 20.889 9.195C20.926 9.14 20.973 9.091 20.997 9.03C21.021 8.97 21.021 8.906 21.034 8.842C21.046 8.779 21.071 8.719 21.071 8.654C21.071 8.589 21.047 8.528 21.034 8.464C21.022 8.402 21.022 8.337 20.997 8.278C20.973 8.218 20.923 8.168 20.887 8.113C20.851 8.057 20.827 7.998 20.779 7.95C20.6177 7.78983 20.4898 7.59927 20.4026 7.38935C20.3154 7.17943 20.2707 6.95431 20.271 6.727C20.2718 6.26852 20.4545 5.82911 20.7791 5.50529C21.1037 5.18147 21.5435 4.99973 22.002 5C22.46 5.00106 22.8988 5.18366 23.2224 5.50776C23.5459 5.83187 23.7277 6.27104 23.728 6.729C23.728 6.849 23.711 6.977 23.678 7.119C23.6378 7.2847 23.6408 7.45795 23.6867 7.62217C23.7325 7.78639 23.8198 7.9361 23.94 8.057C24.0601 8.1792 24.2098 8.26821 24.3746 8.31535C24.5393 8.36249 24.7134 8.36616 24.88 8.326C25.028 8.291 25.156 8.274 25.273 8.274C25.731 8.27426 26.1701 8.4561 26.4942 8.77964C26.8183 9.10319 27.0009 9.54204 27.002 10C27.0015 10.4583 26.8191 10.8977 26.4949 11.2216C26.1708 11.5456 25.7313 11.7277 25.273 11.728C24.8 11.728 24.359 11.54 24.028 11.195L24.018 11.188L24.012 11.178C23.966 11.133 23.908 11.112 23.857 11.077C23.8 11.04 23.749 10.992 23.688 10.967C23.639 10.947 23.586 10.946 23.536 10.933C23.461 10.915 23.388 10.891 23.312 10.89C23.266 10.89 23.221 10.909 23.175 10.916C23.095 10.926 23.013 10.931 22.937 10.962C22.879 10.984 22.83 11.029 22.777 11.064C22.722 11.098 22.663 11.121 22.614 11.167C22.611 11.17 22.611 11.173 22.609 11.177L22.597 11.183L18.528 15.281L18.523 15.285C18.523 15.285 18.523 15.287 18.521 15.288L11.22 22.64C11.179 22.68 11.16 22.733 11.128 22.779C11.083 22.842 11.029 22.901 11.001 22.971C10.981 23.024 10.981 23.081 10.97 23.136C10.955 23.206 10.93 23.276 10.93 23.348C10.93 23.421 10.955 23.493 10.973 23.564C10.983 23.617 10.983 23.672 11.003 23.724C11.033 23.794 11.087 23.854 11.133 23.919C11.166 23.962 11.183 24.014 11.223 24.053C11.548 24.376 11.728 24.811 11.728 25.273C11.7272 25.7306 11.5451 26.1693 11.2217 26.4929C10.8982 26.8166 10.4596 26.9989 10.002 27H10ZM9.36 11.219C9.31 11.169 9.25 11.146 9.194 11.109C9.138 11.073 9.088 11.025 9.028 11.001C8.985 10.983 8.938 10.987 8.893 10.975C8.813 10.955 8.733 10.929 8.651 10.929C8.643 10.929 8.633 10.934 8.623 10.934C8.36918 10.9398 8.1274 11.0434 7.948 11.223C7.70598 11.4636 7.39818 11.6272 7.06336 11.6932C6.72854 11.7592 6.38167 11.7246 6.06646 11.5939C5.75125 11.4631 5.48178 11.242 5.292 10.9583C5.10222 10.6747 5.00062 10.3413 5 10C5 9.047 5.774 8.273 6.727 8.273C6.845 8.273 6.972 8.29 7.119 8.325C7.28473 8.36437 7.45777 8.36075 7.62171 8.31449C7.78565 8.26823 7.93506 8.18085 8.05576 8.06065C8.17646 7.94045 8.26445 7.79141 8.3114 7.62766C8.35834 7.46392 8.36268 7.29089 8.324 7.125C8.29199 6.99501 8.27455 6.86185 8.272 6.728C8.27253 6.26987 8.45476 5.83065 8.7787 5.5067C9.10265 5.18276 9.54187 5.00053 10 5C10.4578 5.00106 10.8965 5.18352 11.22 5.50741C11.5435 5.8313 11.7255 6.27021 11.726 6.728C11.726 7.202 11.538 7.645 11.193 7.973L11.185 7.986C11.183 7.989 11.18 7.989 11.177 7.992C11.138 8.03 11.12 8.082 11.089 8.124C11.045 8.187 10.994 8.244 10.965 8.314C10.941 8.371 10.939 8.432 10.925 8.494C10.913 8.559 10.889 8.621 10.889 8.687C10.889 8.752 10.91 8.814 10.923 8.877C10.934 8.94 10.936 9.002 10.959 9.062C10.984 9.128 11.033 9.182 11.073 9.242C11.106 9.289 11.125 9.344 11.165 9.387C11.167 9.39 11.171 9.392 11.175 9.393C11.177 9.398 11.179 9.403 11.183 9.405L14.573 12.773L12.761 14.597L9.359 11.219H9.36ZM25.273 18.273C24.622 18.273 24.003 18.454 23.451 18.767L20.648 15.985L23.406 13.207C23.969 13.537 24.603 13.727 25.273 13.727C26.2611 13.7257 27.2083 13.3326 27.9069 12.6339C28.6056 11.9353 28.9987 10.9881 29 10C28.9989 9.08621 28.6627 8.20457 28.055 7.52209C27.4474 6.83962 26.6105 6.40373 25.703 6.297C25.5963 5.38947 25.1604 4.5526 24.4779 3.94495C23.7954 3.33731 22.9138 3.00109 22 3C21.0118 3.00132 20.0644 3.39455 19.3657 4.09343C18.667 4.79231 18.2741 5.73977 18.273 6.728C18.273 7.378 18.454 7.998 18.767 8.55L15.983 11.353L13.207 8.596C13.537 8.033 13.727 7.399 13.727 6.728C13.7259 5.74012 13.3332 4.79295 12.635 4.09413C11.9367 3.39531 10.9899 3.00185 10.002 3C9.08821 3.00109 8.20657 3.33731 7.52409 3.94495C6.84162 4.5526 6.40573 5.38947 6.299 6.297C5.39102 6.40306 4.55355 6.8387 3.94545 7.52126C3.33735 8.20383 3.00093 9.08585 3 10C3.00053 10.9884 3.39333 11.9362 4.09214 12.6352C4.79094 13.3341 5.73861 13.7272 6.727 13.728C7.379 13.728 7.997 13.547 8.549 13.236L11.352 16.018L8.594 18.795C8.0281 18.4598 7.38369 18.2801 6.726 18.274C5.73813 18.2751 4.79102 18.668 4.09249 19.3665C3.39396 20.065 3.00106 21.0121 3 22C3.00112 22.9139 3.33748 23.7957 3.94533 24.4782C4.55318 25.1607 5.39029 25.5965 6.298 25.703C6.4045 26.6104 6.84018 27.4473 7.52249 28.055C8.2048 28.6626 9.08633 28.9989 10 29C10.988 28.9989 11.9353 28.6059 12.6339 27.9072C13.3324 27.2084 13.7252 26.261 13.726 25.273C13.726 24.621 13.545 24 13.232 23.45L16.016 20.648L18.793 23.406C18.4554 23.9705 18.2755 24.6153 18.272 25.273C18.2728 26.2614 18.6659 27.2091 19.3648 27.9079C20.0638 28.6067 21.0116 28.9995 22 29C22.9138 28.9991 23.7956 28.663 24.4781 28.0553C25.1607 27.4476 25.5965 26.6106 25.703 25.703C26.6104 25.5961 27.4472 25.1601 28.0548 24.4777C28.6624 23.7953 28.9987 22.9137 29 22C28.9987 21.0119 28.6056 20.0647 27.9069 19.3661C27.2083 18.6674 26.2611 18.2743 25.273 18.273Z"/>
</svg>
