<svg width="32" height="32" viewBox="0 0 32 32" xmlns="http://www.w3.org/2000/svg">
<path d="M27.281 13.235C26.858 13.23 26.151 13.221 25.541 12.882C25.3297 12.7651 25.0832 12.7286 24.8471 12.7791C24.6109 12.8297 24.401 12.9639 24.256 13.157C24.171 13.269 23.886 13.668 23.522 14.172C22.923 15.007 21.673 16.749 21.503 16.947C21.319 17.132 21.231 17.341 21.119 17.607C20.816 18.327 20.439 19.047 19.469 19.259C19.2858 19.2997 19.1177 19.3912 18.984 19.5229C18.8503 19.6547 18.7564 19.8214 18.713 20.004C18.621 20.387 18.505 20.789 18.39 21.13C18.218 20.39 18.042 19.451 18.042 19.015C18.042 18.7498 17.9366 18.4954 17.7491 18.3079C17.5616 18.1204 17.3072 18.015 17.042 18.015C16.8177 18.0166 16.6007 18.0948 16.427 18.2366C16.2533 18.3785 16.1333 18.5755 16.087 18.795C16.063 18.797 16.041 18.79 16.017 18.795C15.331 18.941 13.582 18.967 12.384 18.911C12.477 18.673 12.554 18.441 12.601 18.221C12.6281 18.0925 12.6297 17.9599 12.6055 17.8308C12.5814 17.7017 12.5321 17.5787 12.4604 17.4686C12.3887 17.3586 12.2961 17.2637 12.1877 17.1895C12.0794 17.1153 11.9575 17.0631 11.829 17.036C11.7005 17.0089 11.5679 17.0073 11.4388 17.0315C11.3097 17.0556 11.1867 17.1049 11.0766 17.1766C10.9666 17.2483 10.8717 17.3409 10.7975 17.4493C10.7233 17.5576 10.6711 17.6795 10.644 17.808C10.441 18.773 9.20701 20.405 8.21201 21.635C8.30201 21.207 8.37001 20.705 8.37001 20.135C8.37001 18.987 7.37701 18.039 6.41701 17.123C5.95301 16.679 5.08801 15.854 5.07201 15.538C5.07201 14.995 6.99801 13.346 9.03301 13.136C10.488 12.976 14.679 13.842 15.195 14.011C15.638 14.177 16.023 14.097 16.395 14.018C16.915 13.911 17.781 13.729 19.705 14.071C20.743 14.261 23.726 12.125 24.192 11.372C24.332 11.147 24.387 10.939 24.397 10.756C24.465 10.748 25.003 10.003 25.819 11.242C26.059 11.702 26.807 12.585 27.386 13.237C27.352 13.237 27.317 13.237 27.281 13.235ZM29.574 12.67C29.114 12.185 27.794 10.684 27.631 10.403C27.421 9.87 26.842 9.473 26.358 9.219C26.974 9.014 27.489 8.621 27.668 7.959C27.7348 7.71379 27.7058 7.45237 27.5869 7.22775C27.468 7.00313 27.2682 6.83213 27.0279 6.74944C26.7876 6.66676 26.5248 6.67856 26.2929 6.78248C26.061 6.88639 25.8772 7.07462 25.779 7.309C25.7399 7.32288 25.6998 7.33358 25.659 7.341C26.077 6.717 26.316 5.845 26.316 4.787C26.316 4.52178 26.2106 4.26743 26.0231 4.07989C25.8356 3.89236 25.5812 3.787 25.316 3.787C25.1644 3.78863 25.0152 3.82542 24.8802 3.89448C24.7452 3.96354 24.628 4.06299 24.538 4.185C24.374 4.04022 24.1664 3.95435 23.948 3.941C23.553 3.914 23.168 4.174 22.999 4.549C22.8873 4.03996 22.8263 3.52108 22.817 3C22.817 2.73478 22.7116 2.48043 22.5241 2.29289C22.3366 2.10536 22.0822 2 21.817 2C21.5518 2 21.2974 2.10536 21.1099 2.29289C20.9224 2.48043 20.817 2.73478 20.817 3C20.817 3.12 20.821 3.248 20.828 3.381C20.819 3.304 20.806 3.222 20.801 3.151C20.7803 2.88645 20.6554 2.64095 20.4537 2.46851C20.252 2.29607 19.9901 2.21081 19.7255 2.2315C19.4609 2.25219 19.2154 2.37712 19.043 2.57882C18.8706 2.78051 18.7853 3.04245 18.806 3.307C18.829 3.595 18.87 3.885 18.927 4.173C18.7471 4.11365 18.554 4.10677 18.3704 4.15317C18.1867 4.19957 18.0201 4.29733 17.89 4.435C17.7089 4.62881 17.6121 4.8866 17.6209 5.15173C17.6297 5.41685 17.7434 5.66764 17.937 5.849C18.918 6.766 20.594 8.094 22.134 8.24C22.084 8.335 22.04 8.443 22.01 8.571C21.893 9.071 22.008 9.908 22.241 10.563C21.654 11.059 20.368 11.868 19.864 12.069C17.684 11.705 16.585 11.936 15.986 12.061C15.909 12.077 15.843 12.093 15.786 12.102C14.898 11.84 10.634 10.964 8.82801 11.146C7.02901 11.332 4.95601 12.391 3.85501 13.706C2.83701 14.799 2.81001 15.627 2.87801 16.446C2.92001 16.96 2.94801 17.298 2.24301 18.116C2.15363 18.2149 2.08491 18.3306 2.0409 18.4564C1.99689 18.5822 1.97847 18.7155 1.98672 18.8486C1.99498 18.9816 2.02974 19.1116 2.08897 19.231C2.14821 19.3504 2.23071 19.4568 2.33163 19.5438C2.43255 19.6309 2.54985 19.6969 2.67665 19.738C2.80344 19.779 2.93717 19.7943 3.06997 19.783C3.20276 19.7716 3.33195 19.7339 3.44994 19.6719C3.56792 19.6099 3.67233 19.5249 3.75701 19.422C3.98501 19.158 4.15801 18.915 4.30701 18.682C4.26701 19.555 3.95101 20.97 3.03401 21.707C2.59901 22.057 2.46901 22.162 2.56401 27.75C2.56658 27.9036 2.60457 28.0545 2.67501 28.191L3.32701 29.458C3.41121 29.6214 3.53882 29.7585 3.69583 29.8541C3.85284 29.9497 4.03318 30.0002 4.21701 30H4.69101C4.86367 30.0001 5.0334 29.9554 5.18368 29.8704C5.33396 29.7854 5.45967 29.6629 5.54858 29.5149C5.63748 29.3669 5.68655 29.1984 5.69101 29.0258C5.69547 28.8532 5.65516 28.6824 5.57401 28.53L4.93401 27.324C4.89901 26.084 4.90701 24.665 4.97001 24.172C5.24601 23.85 5.54301 23.528 5.83701 23.222C5.84401 23.306 5.85101 23.392 5.87701 23.477C5.95801 23.772 7.12301 27.624 7.12301 27.624C7.15834 27.741 7.21496 27.8505 7.29001 27.947L8.58101 29.612C8.77101 29.857 9.06101 30 9.37101 30H9.85101C10.0357 29.9995 10.2166 29.9479 10.3738 29.8511C10.531 29.7542 10.6584 29.6158 10.7419 29.451C10.8253 29.2863 10.8617 29.1018 10.8469 28.9177C10.8321 28.7336 10.7667 28.5573 10.658 28.408L9.40001 26.695C9.14509 25.8717 8.90505 25.0439 8.68001 24.212L9.07301 23.736C9.87901 22.764 10.681 21.771 11.323 20.826C11.935 20.907 12.735 20.942 13.533 20.942C14.053 20.942 14.565 20.926 15.027 20.902C15.037 21.229 15.045 21.604 15.052 21.966C15.067 22.591 15.082 23.179 15.092 23.44C15.032 23.818 14.635 25.507 14.267 26.99C14.214 27.206 14.234 27.435 14.327 27.64L15.091 29.34C15.17 29.5158 15.2981 29.6649 15.4599 29.7696C15.6217 29.8743 15.8103 29.93 16.003 29.93H16.504C16.6746 29.9299 16.8423 29.8862 16.9912 29.803C17.1401 29.7198 17.2653 29.5999 17.3548 29.4547C17.4443 29.3094 17.4951 29.1437 17.5025 28.9733C17.5099 28.8029 17.4736 28.6334 17.397 28.481L16.729 27.152L17.177 25.089C17.258 25.814 17.334 26.62 17.393 27.365C17.4038 27.4981 17.4412 27.6277 17.503 27.746L18.393 29.461C18.565 29.792 18.908 30.001 19.281 30.001H19.797C19.9734 30.001 20.1468 29.9544 20.2993 29.8658C20.4519 29.7772 20.5784 29.6498 20.6658 29.4966C20.7532 29.3433 20.7986 29.1697 20.7972 28.9932C20.7958 28.8168 20.7478 28.6439 20.658 28.492L19.751 26.954C19.728 25.339 19.731 23.527 19.772 22.959C20.09 22.424 20.352 21.609 20.512 21.029C22.105 20.416 22.694 19.019 22.962 18.384C22.984 18.331 23.004 18.284 23.022 18.245C23.252 17.966 23.782 17.239 25.147 15.338L25.401 14.985C26.164 15.221 26.866 15.23 27.257 15.235H27.293C28.241 15.717 29.138 15.385 29.598 14.833C30.146 14.174 30.136 13.266 29.574 12.67Z"/>
</svg>
