<svg width="32" height="32" xmlns="http://www.w3.org/2000/svg"><path fill-rule="evenodd" clip-rule="evenodd" d="M16 12.65v-.02c-.03-.55-.5-.98-1.05-.95h-.03c-1.17-.06-2.16.1-3.01.4.2-1.08.03-2.08-.3-2.91-.35-.89-.88-1.62-1.3-2.11-.21-.25-.4-.45-.55-.59l-.25-.23a.997.997 0 0 0-1.28 0c-1.34 1.1-2.1 2.28-2.39 3.47-.29 1.19-.09 2.29.26 3.19.02.06.05.11.08.17-.86-.32-1.88-.49-3.09-.43h-.03a.996.996 0 0 0-1.05.94v.33c0 .19.02.46.06.78.08.63.25 1.49.67 2.36.42.87 1.09 1.76 2.15 2.39.84.5 1.88.8 3.13.86v5.71c0 .55.45 1 1 1s1-.45 1-1v-6.66c1.25-.06 2.29-.36 3.12-.86 1.06-.63 1.73-1.52 2.15-2.39.42-.86.59-1.73.67-2.36.04-.32.05-.59.06-.78V12.66l-.02-.01Zm-8.22-2.48c.13-.52.43-1.13 1.04-1.78.32.39.68.91.92 1.5.24.62.35 1.28.18 1.97-.13.52-.43 1.13-1.04 1.78-.32-.39-.68-.91-.92-1.5-.24-.62-.35-1.28-.18-1.97ZM5.9 17.72c-.66-.39-1.09-.95-1.38-1.55-.26-.53-.39-1.08-.46-1.54.89.06 1.54.29 2.03.58.66.39 1.09.95 1.38 1.55.26.53.39 1.08.46 1.54-.89-.06-1.54-.29-2.03-.58Zm7.57-2.5c-.29.6-.72 1.15-1.38 1.55-.49.29-1.14.52-2.02.58.07-.46.2-1.01.46-1.54.29-.6.72-1.15 1.38-1.55.49-.29 1.14-.52 2.03-.58a5.66 5.66 0 0 1-.46 1.54h-.01ZM30 5.92c-.03-.51-.44-.91-.97-.95-1.74-.11-3.12.23-4.18.87-.66.4-1.15.9-1.54 1.43-.4-.86-1.03-1.74-2.05-2.38-1.02-.64-2.35-.98-4.03-.87-.51.03-.91.44-.93.95v.33c0 .19.02.46.05.78.07.63.24 1.49.64 2.35.4.87 1.04 1.76 2.06 2.4.8.5 1.78.81 2.96.87v5.15c-.79-.61-1.81-.93-3.08-.83-.55.04-.96.53-.92 1.08.04.55.53.96 1.08.92.83-.07 1.35.14 1.71.42.38.3.66.75.86 1.29.2.54.29 1.1.33 1.54.02.22.03.4.03.52V26c0 .55.45 1 1 1s1-.45 1-1V23.8c0-.12 0-.3.03-.52.04-.44.13-1 .33-1.54s.48-.99.86-1.29c.36-.28.88-.49 1.71-.42.55.04 1.03-.37 1.08-.92.04-.55-.37-1.03-.92-1.08-1.27-.1-2.29.22-3.08.83v-6.2c1.26-.06 2.31-.36 3.15-.87 1.06-.64 1.72-1.53 2.13-2.4.41-.86.58-1.72.66-2.35.04-.32.05-.59.05-.78v-.33L30 5.92Zm-9.9 3.21c-.62-.39-1.03-.94-1.3-1.54-.25-.54-.38-1.1-.44-1.57.8.07 1.4.29 1.84.57.62.39 1.03.94 1.3 1.54.25.54.38 1.1.44 1.57-.8-.07-1.4-.29-1.84-.57Zm7.3-.59c-.29.6-.71 1.15-1.35 1.54-.46.28-1.08.5-1.91.57.07-.47.2-1.03.46-1.57.29-.6.71-1.15 1.35-1.54.46-.28 1.08-.5 1.91-.57-.07.47-.2 1.03-.46 1.57Z"/></svg>
