<svg width="32" height="32" viewBox="0 0 32 32" xmlns="http://www.w3.org/2000/svg">
<path d="M21.227 18.543C21.1867 18.6188 21.1565 18.6994 21.137 18.783L21.077 19.043L20.295 17.615L20.288 17.602C20.293 17.392 20.397 16.969 20.517 16.761C20.6452 16.5314 20.6778 16.2606 20.6078 16.0072C20.5377 15.7538 20.3707 15.5382 20.1429 15.4069C19.9151 15.2757 19.6447 15.2395 19.3904 15.3062C19.1361 15.3728 18.9182 15.5369 18.784 15.763C18.694 15.918 18.531 16.293 18.414 16.74C18.249 16.699 18.0875 16.6452 17.931 16.579C17.387 16.367 16.694 16.107 15.706 16.312C15.485 15.458 15.046 14.791 14.82 14.535C14.6447 14.3381 14.3986 14.2186 14.1355 14.2027C13.8724 14.1868 13.6137 14.2757 13.416 14.45C13.2183 14.6256 13.0977 14.872 13.0803 15.1359C13.0629 15.3998 13.1501 15.6599 13.323 15.86C13.428 15.982 13.938 16.76 13.829 17.526C13.763 17.986 13.471 18.376 12.936 18.722C12.8138 18.8046 12.7113 18.9132 12.636 19.04C11.376 16.744 11.163 15.225 11.574 14.686C14.941 10.276 17.699 12.275 19.714 13.735C20.524 14.322 21.108 14.748 21.781 14.638C22.347 14.547 23.166 14.32 24.033 14.08C24.816 13.862 26.127 13.499 26.388 13.498C26.656 13.555 27.287 13.948 27.73 14.254C26.28 14.79 22.239 16.614 21.227 18.543ZM6.33998 19.51C6.52198 19.319 6.70298 19.127 6.88198 18.936C7.72198 18.036 8.58598 17.12 9.53498 16.663L9.55098 16.739C9.12398 18.406 7.72598 19.172 6.33998 19.509V19.51ZM29.724 13.318C29.493 13.035 27.804 11.754 26.804 11.541C26.24 11.415 25.404 11.623 23.497 12.151C22.812 12.341 22.107 12.537 21.637 12.631C21.457 12.528 21.134 12.294 20.887 12.115C18.987 10.737 14.537 7.511 9.98298 13.471C9.73598 13.795 9.57998 14.161 9.48798 14.554C7.80998 15.033 6.54398 16.37 5.42198 17.568C4.49498 18.56 3.61998 19.495 2.72398 19.752C2.50278 19.8159 2.31039 19.9541 2.17929 20.1434C2.04819 20.3326 1.98642 20.5613 2.0044 20.7909C2.02238 21.0204 2.11902 21.2367 2.27799 21.4032C2.43696 21.5698 2.64853 21.6764 2.87698 21.705C3.24498 21.751 3.66698 21.778 4.12298 21.778C6.18898 21.778 8.94098 21.212 10.495 19.254C10.875 20.026 11.317 20.782 11.764 21.477C11.8502 21.6335 11.9769 21.764 12.1309 21.8548C12.2848 21.9456 12.4603 21.9933 12.639 21.993H14.439C14.7042 21.993 14.9586 21.8876 15.1461 21.7001C15.3336 21.5126 15.439 21.2582 15.439 20.993C15.4375 20.7508 15.347 20.5177 15.1847 20.3379C15.0225 20.1581 14.7998 20.0443 14.559 20.018L14.557 20.003C15.0615 19.5813 15.4411 19.0298 15.655 18.408C16.351 18.108 16.688 18.238 17.202 18.441C17.57 18.585 18.034 18.766 18.616 18.766L18.644 18.764L20.128 21.474C20.2142 21.6312 20.3411 21.7623 20.4954 21.8536C20.6497 21.9449 20.8257 21.9931 21.005 21.993H23.015C23.2802 21.993 23.5346 21.8876 23.7221 21.7001C23.9096 21.5126 24.015 21.2582 24.015 20.993C24.015 20.7278 23.9096 20.4734 23.7221 20.2859C23.5346 20.0984 23.2802 19.993 23.015 19.993H22.911L23.051 19.377C23.856 18.126 27.789 16.262 28.584 16.063C29.443 15.898 29.884 14.712 29.89 14.699C30.147 13.993 29.897 13.532 29.724 13.318Z"/>
</svg>
