<svg width="32" height="32" viewBox="0 0 32 32" xmlns="http://www.w3.org/2000/svg">
<path fill-rule="evenodd" clip-rule="evenodd" d="M5.49849 10.5712C8.40294 9.26405 12.0507 8 16.01 8C21.467 8 26.3132 10.4018 29.4528 11.9962C29.9452 12.2463 30.1417 12.8482 29.8916 13.3406C29.6415 13.833 29.0396 14.0295 28.5472 13.7794C28.0939 13.5492 27.614 13.3073 27.11 13.0618V16.5504C27.1103 16.5652 27.1103 16.58 27.11 16.5948V20.9569C27.9677 21.3571 28.7526 21.7528 29.4528 22.1084C29.9452 22.3585 30.1417 22.9604 29.8916 23.4528C29.6415 23.9452 29.0396 24.1417 28.5472 23.8916C25.3868 22.2866 20.9329 20.1122 16.01 20.1122C11.0865 20.1122 6.61194 22.2872 3.45277 23.8916C2.96035 24.1417 2.35844 23.9452 2.10836 23.4528C1.85828 22.9604 2.05474 22.3585 2.54717 22.1084C3.24672 21.7531 4.03183 21.3579 4.88997 20.9581V16.7149C4.87613 16.6194 4.87649 16.5235 4.88997 16.4301V13.0684C4.3863 13.3144 3.90711 13.557 3.45495 13.788C2.96314 14.0393 2.36075 13.8443 2.10947 13.3525C1.85819 12.8607 2.05318 12.2583 2.54499 12.007C3.39769 11.5713 4.37716 11.0771 5.46082 10.5882C5.47324 10.5823 5.48579 10.5766 5.49849 10.5712ZM6.88997 12.1445V15.0494C9.50874 13.9851 12.6135 13.0803 15.97 13.0803C19.3329 13.0803 22.472 13.9886 25.11 15.0562V12.1394C22.4624 10.9972 19.3438 10 16.01 10C12.674 10 9.54379 10.9987 6.88997 12.1445ZM25.11 17.2239C23.6571 16.5974 22.0606 16.0169 20.37 15.6185V18.1717C20.37 18.3157 20.3395 18.4526 20.2847 18.5763C22.0145 18.9414 23.6376 19.4866 25.11 20.0827V17.2239ZM18.3736 18.2577C18.3712 18.2294 18.37 18.2007 18.37 18.1717V15.2459C17.5835 15.1396 16.7821 15.0803 15.97 15.0803C15.1768 15.0803 14.3957 15.1369 13.63 15.2386V18.1717C13.63 18.2015 13.6287 18.2309 13.6261 18.26C14.4053 18.1649 15.2011 18.1122 16.01 18.1122C16.8122 18.1122 17.6013 18.1641 18.3736 18.2577ZM11.7166 18.5795C11.6609 18.455 11.63 18.317 11.63 18.1717V15.6082C9.93908 16.0056 8.34548 16.5884 6.88997 17.2185V20.0854C8.36317 19.49 9.98721 18.9451 11.7166 18.5795Z" />
</svg>
