<svg width="32" height="32" viewBox="0 0 32 32" xmlns="http://www.w3.org/2000/svg">
<path d="M20.858 19.287H22.493C22.6158 19.2854 22.7372 19.261 22.851 19.215C22.894 19.198 22.93 19.172 22.97 19.149C23.019 19.123 23.07 19.105 23.116 19.069C23.131 19.058 23.138 19.039 23.152 19.027C23.204 18.98 23.242 18.926 23.285 18.869C23.322 18.818 23.361 18.772 23.387 18.718C23.413 18.664 23.425 18.605 23.441 18.547C23.46 18.477 23.479 18.412 23.483 18.341C23.483 18.321 23.493 18.307 23.493 18.287C23.493 18.243 23.473 18.205 23.468 18.163C23.4624 18.0943 23.4486 18.0265 23.427 17.961C23.404 17.893 23.37 17.837 23.334 17.777C23.311 17.74 23.303 17.697 23.274 17.664L19.913 13.441C19.9968 13.4252 20.0777 13.3969 20.153 13.357C20.186 13.342 20.22 13.333 20.251 13.313C20.281 13.293 20.299 13.263 20.327 13.24C20.4302 13.1597 20.5157 13.0589 20.578 12.944C20.6414 12.8295 20.6805 12.7032 20.693 12.573C20.697 12.537 20.713 12.506 20.713 12.47C20.713 12.44 20.7 12.418 20.698 12.39C20.6844 12.2565 20.6464 12.1267 20.586 12.007C20.573 11.982 20.572 11.956 20.556 11.933L19.028 9.53198L21.376 5.84598L22.956 8.32598L22.945 8.32899C22.8769 8.33594 22.8096 8.34933 22.744 8.36899C22.677 8.39199 22.62 8.42798 22.561 8.46398C22.524 8.48598 22.481 8.49398 22.447 8.52098C22.432 8.53298 22.426 8.55098 22.412 8.56298C22.359 8.60998 22.32 8.66598 22.278 8.72298C22.242 8.77198 22.203 8.81798 22.177 8.87298C22.15 8.92698 22.139 8.98498 22.123 9.04498C22.103 9.11298 22.085 9.17898 22.081 9.24998C22.08 9.26798 22.07 9.28398 22.07 9.30398C22.07 9.34798 22.09 9.38598 22.096 9.42898C22.1021 9.4969 22.1155 9.56396 22.136 9.62898C22.1608 9.69344 22.1923 9.75511 22.23 9.81298C22.253 9.84998 22.26 9.89198 22.288 9.92698L25.231 13.623H23.918C23.873 13.623 23.834 13.642 23.791 13.648C23.727 13.657 23.665 13.665 23.604 13.686C23.5294 13.7125 23.4585 13.7485 23.393 13.793C23.363 13.811 23.331 13.816 23.303 13.838C23.291 13.848 23.286 13.862 23.273 13.873C23.2075 13.9316 23.1503 13.9989 23.103 14.073C23.081 14.108 23.055 14.138 23.037 14.173C23.0004 14.2498 22.9745 14.3312 22.96 14.415C22.95 14.459 22.937 14.5 22.933 14.545C22.931 14.572 22.918 14.595 22.918 14.623C22.918 14.683 22.941 14.736 22.952 14.793C22.96 14.84 22.965 14.883 22.979 14.929C23.0077 15.0132 23.0481 15.093 23.099 15.166C23.116 15.19 23.119 15.22 23.139 15.243L26.936 20.051H21.46L20.857 19.287H20.858ZM5.065 20.051L8.861 15.243C8.88 15.22 8.884 15.19 8.9 15.166C8.95094 15.093 8.99133 15.0132 9.02 14.929C9.035 14.884 9.04 14.839 9.048 14.794C9.058 14.736 9.083 14.683 9.083 14.623C9.083 14.596 9.069 14.572 9.067 14.545C9.064 14.5 9.05 14.459 9.041 14.415C9.02562 14.3316 8.9994 14.2506 8.963 14.174C8.945 14.138 8.919 14.108 8.897 14.074C8.84913 13.9997 8.79163 13.9321 8.726 13.873C8.714 13.862 8.709 13.848 8.696 13.838C8.669 13.816 8.636 13.81 8.606 13.793C8.54074 13.7487 8.47019 13.7127 8.396 13.686C8.335 13.665 8.274 13.656 8.21 13.648C8.166 13.642 8.128 13.623 8.083 13.623H6.769L9.712 9.92698C9.739 9.89198 9.748 9.84998 9.77 9.81298C9.80762 9.75543 9.83913 9.69409 9.864 9.62998C9.887 9.56298 9.896 9.49699 9.904 9.42799C9.91 9.38599 9.93 9.34798 9.93 9.30398C9.93 9.28398 9.92 9.26798 9.919 9.24998C9.915 9.17898 9.896 9.11298 9.878 9.04398C9.861 8.98398 9.85 8.92798 9.823 8.87298C9.797 8.81798 9.758 8.77198 9.721 8.72198C9.68 8.66498 9.641 8.60999 9.588 8.56199C9.574 8.55099 9.568 8.53198 9.553 8.52098C9.519 8.49398 9.477 8.48598 9.441 8.46398C9.38 8.42798 9.321 8.39199 9.255 8.36899C9.191 8.34699 9.127 8.33899 9.06 8.32899C9.054 8.32899 9.049 8.32698 9.043 8.32598L10.623 5.84598L12.98 9.54398L11.459 11.933C11.443 11.956 11.442 11.982 11.429 12.007C11.3987 12.067 11.3745 12.13 11.357 12.195C11.3369 12.2584 11.3235 12.3238 11.317 12.39C11.316 12.418 11.302 12.44 11.302 12.47C11.302 12.507 11.319 12.537 11.322 12.573C11.3341 12.7034 11.3729 12.83 11.436 12.9447C11.4991 13.0595 11.5853 13.16 11.689 13.24C11.717 13.263 11.734 13.294 11.765 13.313C11.795 13.333 11.83 13.342 11.863 13.357C11.9379 13.3969 12.0185 13.4253 12.102 13.441L8.74 17.664C8.712 17.698 8.704 17.74 8.682 17.777C8.646 17.837 8.611 17.893 8.588 17.96C8.56745 18.0261 8.55371 18.0941 8.547 18.163C8.542 18.205 8.522 18.243 8.522 18.287C8.522 18.307 8.532 18.322 8.532 18.341C8.537 18.411 8.556 18.477 8.574 18.546C8.59 18.604 8.602 18.663 8.629 18.718C8.655 18.772 8.693 18.818 8.729 18.868C8.772 18.925 8.811 18.98 8.863 19.027C8.878 19.04 8.883 19.057 8.899 19.069C8.944 19.105 8.997 19.123 9.046 19.149C9.086 19.172 9.121 19.198 9.164 19.215C9.27784 19.261 9.39923 19.2854 9.522 19.287H11.162L10.559 20.051H5.065ZM17.86 11.47C17.815 11.47 17.777 11.489 17.734 11.495C17.6662 11.5018 17.5992 11.5152 17.534 11.535C17.467 11.558 17.409 11.594 17.35 11.63C17.313 11.652 17.272 11.66 17.237 11.687C17.222 11.699 17.215 11.717 17.201 11.729C17.149 11.776 17.109 11.832 17.068 11.889C17.031 11.938 16.993 11.984 16.966 12.039C16.94 12.093 16.928 12.151 16.912 12.211C16.894 12.279 16.875 12.345 16.871 12.416C16.87 12.434 16.86 12.45 16.86 12.47C16.86 12.514 16.879 12.552 16.885 12.595C16.894 12.663 16.902 12.729 16.925 12.795C16.9493 12.8598 16.9812 12.9216 17.02 12.979C17.042 13.016 17.05 13.058 17.078 13.093L20.418 17.287H18.786C18.74 17.287 18.702 17.307 18.656 17.313C18.5936 17.3194 18.532 17.3318 18.472 17.35C18.3972 17.3773 18.326 17.4136 18.26 17.458C18.232 17.475 18.2 17.48 18.173 17.502C18.161 17.512 18.156 17.526 18.143 17.536C18.075 17.596 18.022 17.665 17.97 17.741C17.949 17.773 17.923 17.801 17.906 17.836C17.866 17.913 17.846 17.996 17.826 18.083C17.818 18.125 17.806 18.165 17.802 18.208C17.8 18.235 17.786 18.258 17.786 18.287C17.786 18.349 17.811 18.402 17.821 18.462C17.829 18.506 17.834 18.548 17.848 18.591C17.8767 18.6772 17.9178 18.7587 17.97 18.833C17.986 18.856 17.99 18.885 18.008 18.907L22.281 24.317H9.734L14.012 18.907C14.039 18.873 14.047 18.833 14.068 18.797C14.1061 18.7385 14.138 18.6762 14.163 18.611C14.186 18.546 14.193 18.48 14.203 18.411C14.209 18.369 14.228 18.331 14.228 18.287C14.228 18.267 14.218 18.25 14.217 18.23C14.213 18.162 14.194 18.098 14.176 18.03C14.16 17.97 14.146 17.909 14.12 17.853C14.094 17.801 14.057 17.756 14.02 17.707C13.981 17.6483 13.9354 17.5943 13.884 17.546C13.87 17.533 13.863 17.515 13.848 17.503C13.815 17.476 13.774 17.469 13.737 17.446C13.6791 17.4084 13.6174 17.3769 13.553 17.352C13.4869 17.3313 13.4189 17.3176 13.35 17.311C13.309 17.307 13.272 17.287 13.228 17.287H11.597L14.937 13.093C14.965 13.058 14.973 13.016 14.995 12.979C15.031 12.919 15.065 12.863 15.089 12.797C15.1091 12.7308 15.1225 12.6628 15.129 12.594C15.135 12.551 15.155 12.514 15.155 12.47C15.155 12.45 15.145 12.434 15.144 12.416C15.14 12.345 15.121 12.279 15.103 12.211C15.087 12.151 15.075 12.094 15.048 12.039C15.023 11.984 14.983 11.938 14.947 11.889C14.905 11.832 14.866 11.776 14.814 11.729C14.799 11.717 14.793 11.699 14.778 11.687C14.743 11.66 14.702 11.652 14.665 11.63C14.605 11.594 14.548 11.558 14.481 11.535C14.4165 11.5152 14.3501 11.5018 14.283 11.495C14.239 11.489 14.2 11.47 14.155 11.47H14.124L16.008 8.51298L17.892 11.47H17.861H17.86ZM29.947 21.309C29.965 21.242 29.983 21.177 29.987 21.107C29.989 21.087 29.999 21.071 29.999 21.051C29.999 21.007 29.979 20.969 29.974 20.927C29.964 20.857 29.957 20.793 29.934 20.726C29.9093 20.662 29.8781 20.6007 29.841 20.543C29.819 20.507 29.811 20.465 29.784 20.431L25.987 15.623H27.305C27.4277 15.6212 27.5491 15.5968 27.663 15.551C27.706 15.534 27.741 15.508 27.781 15.485C27.83 15.459 27.881 15.441 27.928 15.405C27.943 15.393 27.948 15.375 27.963 15.363C28.0132 15.3155 28.0578 15.2625 28.096 15.205C28.133 15.154 28.172 15.108 28.199 15.054C28.225 15 28.236 14.941 28.253 14.883C28.271 14.813 28.29 14.748 28.293 14.677C28.295 14.657 28.305 14.642 28.305 14.623C28.305 14.579 28.285 14.541 28.28 14.499C28.2734 14.4304 28.2596 14.3627 28.239 14.297C28.215 14.229 28.181 14.173 28.145 14.113C28.123 14.076 28.114 14.033 28.087 14L25.094 10.24C25.099 10.239 25.103 10.236 25.108 10.234C25.141 10.222 25.171 10.207 25.203 10.191C25.235 10.176 25.27 10.167 25.301 10.147C25.331 10.127 25.349 10.097 25.377 10.074C25.5303 9.95348 25.6438 9.78975 25.703 9.60398C25.723 9.53998 25.735 9.47398 25.743 9.40698C25.747 9.37098 25.763 9.33998 25.763 9.30398C25.763 9.27398 25.75 9.25198 25.748 9.22398C25.7342 9.09057 25.6963 8.96079 25.636 8.84098C25.623 8.81598 25.622 8.78998 25.606 8.76598L22.218 3.44598C22.215 3.44198 22.21 3.43898 22.207 3.43398C22.17 3.37998 22.116 3.33898 22.067 3.29098C22.021 3.24298 21.98 3.18898 21.925 3.15298C21.92 3.14898 21.918 3.14298 21.912 3.14098C21.871 3.11398 21.825 3.10898 21.781 3.09098C21.71 3.05798 21.641 3.02098 21.565 3.00798C21.502 2.99498 21.439 3.00298 21.375 3.00298C21.311 3.00298 21.249 2.99498 21.185 3.00798C21.108 3.02198 21.04 3.05798 20.969 3.09098C20.926 3.10998 20.879 3.11398 20.838 3.14098C20.833 3.14298 20.83 3.14898 20.825 3.15298C20.771 3.18898 20.73 3.24298 20.682 3.29098C20.634 3.33898 20.58 3.37998 20.544 3.43398C20.541 3.43898 20.534 3.44198 20.532 3.44698L17.842 7.67098L16.85 6.11398C16.847 6.10898 16.84 6.10698 16.838 6.10098C16.801 6.04498 16.744 6.00098 16.694 5.95098C16.649 5.90798 16.61 5.85498 16.558 5.82098C16.552 5.81698 16.55 5.81098 16.544 5.80798C16.5 5.77798 16.449 5.77298 16.402 5.75298C16.335 5.72298 16.27 5.68898 16.198 5.67498C16.134 5.66198 16.071 5.66998 16.007 5.66998C15.942 5.66998 15.88 5.66198 15.816 5.67498C15.744 5.68898 15.679 5.72398 15.612 5.75298C15.565 5.77298 15.515 5.77898 15.47 5.80798C15.464 5.81098 15.46 5.81698 15.456 5.82098C15.404 5.85498 15.365 5.90798 15.319 5.95098C15.269 6.00098 15.213 6.04498 15.175 6.10098L15.164 6.11398L14.164 7.68298L11.466 3.44698C11.463 3.44198 11.456 3.43898 11.454 3.43398C11.417 3.37898 11.362 3.33698 11.314 3.28898C11.267 3.24198 11.227 3.18798 11.173 3.15298C11.168 3.14898 11.165 3.14298 11.16 3.14098C11.118 3.11398 11.07 3.10898 11.027 3.08998C10.956 3.05798 10.889 3.02198 10.813 3.00798C10.749 2.99498 10.687 3.00298 10.623 3.00298C10.559 3.00298 10.496 2.99498 10.433 3.00798C10.357 3.02198 10.289 3.05798 10.218 3.08998C10.174 3.10898 10.127 3.11398 10.086 3.13998C10.08 3.14298 10.078 3.14898 10.073 3.15298C10.018 3.18798 9.978 3.24298 9.93 3.28998C9.882 3.33798 9.828 3.37998 9.79 3.43398C9.788 3.43898 9.783 3.44198 9.779 3.44698L6.392 8.76598C6.377 8.78998 6.376 8.81598 6.362 8.84098C6.33201 8.90107 6.30822 8.96407 6.291 9.02899C6.27087 9.0924 6.25747 9.15776 6.251 9.22398C6.249 9.25198 6.235 9.27398 6.235 9.30398C6.235 9.34098 6.253 9.37098 6.255 9.40698C6.26698 9.53747 6.30652 9.66392 6.371 9.77798C6.43224 9.89396 6.51828 9.99502 6.623 10.074C6.65 10.097 6.668 10.128 6.698 10.147C6.73 10.167 6.764 10.176 6.796 10.191C6.828 10.207 6.858 10.221 6.891 10.234C6.896 10.236 6.9 10.239 6.905 10.24L3.912 14C3.885 14.034 3.877 14.076 3.855 14.113C3.81667 14.1706 3.78481 14.2323 3.76 14.297C3.73937 14.362 3.72596 14.4291 3.72 14.497C3.714 14.541 3.694 14.579 3.694 14.623C3.694 14.642 3.704 14.658 3.704 14.677C3.709 14.747 3.728 14.813 3.747 14.883C3.763 14.941 3.775 15 3.801 15.053C3.827 15.108 3.866 15.153 3.901 15.205C3.944 15.262 3.983 15.315 4.036 15.363C4.05 15.376 4.056 15.393 4.071 15.405C4.117 15.441 4.169 15.459 4.218 15.485C4.258 15.508 4.294 15.534 4.336 15.551C4.44984 15.597 4.57123 15.6214 4.694 15.623H6.012L2.215 20.43C2.189 20.464 2.18 20.506 2.158 20.542C2.12122 20.5997 2.09039 20.661 2.066 20.725C2.04552 20.7901 2.03178 20.8571 2.025 20.925C2.02 20.968 2 21.005 2 21.05C2 21.07 2.01 21.087 2.01 21.106C2.016 21.176 2.034 21.241 2.052 21.308C2.068 21.368 2.081 21.428 2.108 21.482C2.134 21.537 2.172 21.582 2.208 21.632C2.251 21.689 2.291 21.744 2.343 21.791C2.358 21.804 2.365 21.821 2.38 21.835C2.426 21.87 2.478 21.888 2.527 21.915C2.566 21.935 2.601 21.962 2.643 21.977C2.7564 22.0234 2.87749 22.0482 3 22.05H8.978L6.885 24.696C6.858 24.73 6.85 24.77 6.829 24.806C6.79059 24.8643 6.75873 24.9267 6.734 24.992C6.71416 25.0568 6.70076 25.1235 6.694 25.191C6.689 25.234 6.669 25.271 6.669 25.316C6.669 25.336 6.679 25.353 6.679 25.373C6.685 25.442 6.703 25.506 6.721 25.573C6.737 25.633 6.75 25.693 6.777 25.75C6.803 25.803 6.84 25.848 6.876 25.896C6.919 25.954 6.959 26.011 7.013 26.056C7.027 26.07 7.033 26.089 7.049 26.1C7.093 26.136 7.145 26.153 7.193 26.18C7.233 26.2 7.269 26.227 7.312 26.244C7.42548 26.29 7.54656 26.3144 7.669 26.316H15.008V27.983C15.008 28.2482 15.1134 28.5026 15.3009 28.6901C15.4884 28.8776 15.7428 28.983 16.008 28.983C16.2732 28.983 16.5276 28.8776 16.7151 28.6901C16.9026 28.5026 17.008 28.2482 17.008 27.983V26.316H24.346C24.4688 26.3144 24.5902 26.29 24.704 26.244C24.746 26.228 24.78 26.203 24.819 26.182C24.868 26.154 24.919 26.138 24.966 26.101C24.982 26.089 24.988 26.07 25.004 26.057C25.056 26.011 25.094 25.956 25.137 25.899C25.174 25.849 25.212 25.804 25.237 25.749C25.265 25.694 25.277 25.635 25.294 25.575C25.3146 25.5093 25.328 25.4416 25.334 25.373C25.336 25.353 25.346 25.337 25.346 25.316C25.346 25.272 25.326 25.234 25.321 25.192C25.3151 25.124 25.3017 25.057 25.281 24.992C25.2565 24.9276 25.2253 24.8659 25.188 24.808C25.166 24.772 25.158 24.73 25.131 24.696L23.041 22.05H29C29.1228 22.0481 29.2442 22.0233 29.358 21.977C29.4 21.962 29.434 21.936 29.473 21.915C29.522 21.888 29.573 21.87 29.62 21.835C29.635 21.822 29.642 21.804 29.657 21.791C29.71 21.744 29.749 21.689 29.791 21.633C29.828 21.583 29.866 21.537 29.891 21.482C29.919 21.428 29.931 21.368 29.948 21.308L29.947 21.309Z"/>
</svg>
