<svg width="32" height="32" viewBox="0 0 32 32" xmlns="http://www.w3.org/2000/svg">
<path d="M27.25 13.95C26.898 13.91 25.12 14.245 24.657 14.797C24.327 15.092 21.797 16.794 20.994 17.057C20.677 17.162 20.465 17.364 20.314 17.675C20.311 17.662 20.304 17.645 20.299 17.633C20.357 17.493 20.445 17.293 20.564 17.03C20.636 16.874 20.677 16.763 20.684 16.744C20.844 16.216 20.561 15.614 20.032 15.454C19.5 15.292 18.96 15.549 18.8 16.077L18.744 16.202C18.674 16.356 18.616 16.488 18.561 16.612C18.282 16.548 17.892 16.423 17.352 16.202C17.3153 15.7116 17.1745 15.2347 16.939 14.803C16.8154 14.5683 16.6036 14.3923 16.3503 14.3137C16.0969 14.2351 15.8227 14.2604 15.588 14.384C15.3533 14.5076 15.1773 14.7194 15.0987 14.9727C15.0201 15.2261 15.0454 15.5003 15.169 15.735C15.329 16.04 15.562 16.49 14.982 17.278C14.952 17.235 14.928 17.189 14.892 17.149C14.2241 16.4104 13.5494 15.6781 12.868 14.952C12.835 14.917 12.79 14.902 12.754 14.874C12.69 14.825 12.629 14.77 12.556 14.739C12.4183 14.6761 12.2694 14.6414 12.118 14.637C11.9777 14.6405 11.8396 14.6735 11.7128 14.7338C11.586 14.7941 11.4733 14.8804 11.382 14.987C9.38 17.318 7.852 18.317 6.472 18.738C6.935 18.228 7.402 17.671 7.876 17.103C8.908 15.873 10.818 13.587 11.498 13.856C11.811 13.986 12.166 13.948 12.445 13.756C13.745 12.86 16.695 13.256 19.067 13.574C20.724 13.797 22.151 13.989 23.155 13.804C23.587 13.726 25.378 13.185 25.89 12.802C25.93 12.77 25.994 12.722 26.113 12.592C26.293 12.902 26.634 13.098 27.009 13.082C27.073 13.222 27.134 13.366 27.189 13.496C27.25 13.643 27.317 13.801 27.389 13.966C27.3427 13.9575 27.296 13.9518 27.249 13.949L27.25 13.95ZM29.796 14.26C29.465 13.745 29.235 13.2 29.032 12.72C28.747 12.045 28.432 11.312 27.848 10.885L27.733 9.88501C27.7093 9.68041 27.6232 9.48809 27.4863 9.3342C27.3494 9.18032 27.1684 9.07235 26.968 9.02501C26.7677 8.97895 26.5582 8.99527 26.3674 9.07178C26.1767 9.14828 26.0139 9.28131 25.901 9.45301C25.457 10.134 24.886 10.959 24.674 11.205C24.333 11.375 23.169 11.769 22.797 11.838C22.103 11.963 20.695 11.775 19.334 11.592C16.677 11.235 13.688 10.833 11.729 11.857C9.897 11.557 8.166 13.639 6.344 15.819C5.232 17.147 3.71 18.965 2.927 19.022C2.67035 19.0416 2.43113 19.1594 2.25913 19.3509C2.08714 19.5424 1.99561 19.7929 2.00359 20.0501C2.01158 20.3074 2.11847 20.5517 2.30202 20.7322C2.48556 20.9126 2.73163 21.0154 2.989 21.019L3.385 21.025C5.524 21.058 7.907 21.09 11.113 18.146C11.031 18.411 10.916 18.646 10.761 18.828C10.6858 18.8875 10.6191 18.9572 10.563 19.035C10.387 19.293 10.063 19.771 10.741 22.262C10.7986 22.474 10.9245 22.661 11.0991 22.7942C11.2737 22.9275 11.4874 22.9994 11.707 22.999H12.317C12.5677 23.0004 12.8098 22.9076 12.9953 22.7389C13.1808 22.5702 13.2961 22.338 13.3185 22.0883C13.3409 21.8386 13.2687 21.5896 13.1162 21.3906C12.9637 21.1917 12.742 21.0572 12.495 21.014C12.4552 20.8322 12.4198 20.6495 12.389 20.466C12.6295 20.4196 12.8642 20.3472 13.089 20.25C13.155 20.221 13.284 20.16 13.439 20.08C14.05 21.011 14.939 22.345 15.079 22.553C15.17 22.6903 15.2937 22.8029 15.4389 22.8807C15.5841 22.9585 15.7463 22.9992 15.911 22.999H16.566C16.8312 22.999 17.0856 22.8936 17.2731 22.7061C17.4606 22.5186 17.566 22.2642 17.566 21.999C17.566 21.7338 17.4606 21.4794 17.2731 21.2919C17.0856 21.1044 16.8312 20.999 16.566 20.999H16.446C16.147 20.553 15.816 20.052 15.513 19.594C16.07 19.104 16.509 18.621 16.813 18.139C17.383 18.364 17.973 18.549 18.535 18.624C18.678 19.016 18.904 19.626 19.265 20.591H18.773C18.5078 20.591 18.2534 20.6964 18.0659 20.8839C17.8784 21.0714 17.773 21.3258 17.773 21.591C17.773 21.8562 17.8784 22.1106 18.0659 22.2981C18.2534 22.4856 18.5078 22.591 18.773 22.591H20.308C20.713 22.591 21.395 22.423 21.686 21.381L21.997 22.315C22.134 22.723 22.517 22.999 22.947 22.999H23.602C23.862 22.9997 24.1121 22.8992 24.2992 22.7187C24.4863 22.5382 24.5957 22.2919 24.6043 22.032C24.6129 21.7722 24.5199 21.5192 24.3451 21.3267C24.1704 21.1343 23.9275 21.0174 23.668 21.001C23.3783 20.131 23.0916 19.26 22.808 18.388C24.012 17.72 25.517 16.701 26.003 16.27C26.223 16.162 26.869 15.988 27.139 15.953C27.327 16.007 27.694 16.145 27.784 16.198C28.347 16.632 29.078 16.388 29.52 15.982C30.04 15.504 30.15 14.812 29.796 14.26Z"/>
</svg>
