<svg width="32" height="32" viewBox="0 0 32 32" xmlns="http://www.w3.org/2000/svg">
<path fill-rule="evenodd" clip-rule="evenodd" d="M13.998 20.696C13.219 20.731 12.555 20.742 11.973 20.751C10.33 20.775 9.19297 20.793 8.02497 21.356C8.06497 20.644 8.14897 19.98 8.27797 19.36C8.92497 19.442 9.53797 19.492 10.095 19.492C14.165 19.492 15.919 17.47 16.633 16.131C17.281 14.911 17.466 13.575 17.326 12.564C18.31 12.112 19.269 11.271 19.726 9.57798C20.063 8.31798 20.657 8.07798 21.248 8.00798C21.3826 7.99271 21.5189 8.00468 21.6487 8.04316C21.7786 8.08164 21.8994 8.14585 22.004 8.23198C22.125 8.34198 22.138 8.43898 22.136 8.51098C22.134 8.69651 22.1861 8.87859 22.286 9.03498C21.772 9.14498 21.267 9.35998 20.856 9.74698C20.269 10.299 19.72 11.352 20.272 13.229C19.779 17.498 16.622 20.577 13.998 20.696ZM10.758 14.866C12.066 13.73 14.201 13.31 15.368 13.104C15.383 13.753 15.223 14.789 14.55 15.693C13.5 17.103 11.546 17.687 8.89697 17.42C9.34697 16.41 9.96297 15.559 10.758 14.868V14.866ZM25.318 10.104C25.318 10.084 25.309 10.066 25.308 10.046C25.278 9.24998 24.716 8.41198 24.065 7.92598C23.9478 7.47374 23.6993 7.0663 23.351 6.75498C22.744 6.19998 21.848 5.91898 21.008 6.01998C19.363 6.21898 18.281 7.23998 17.793 9.05698C17.47 10.261 16.843 10.801 15.478 11.051L15.219 11.097C13.93 11.322 11.246 11.791 9.44497 13.356C6.97997 15.5 5.82797 18.846 6.01997 23.31C6.02819 23.4994 6.09009 23.6826 6.19847 23.8382C6.30684 23.9938 6.45722 24.1154 6.63206 24.1888C6.80691 24.2621 6.99901 24.2843 7.18597 24.2526C7.37292 24.221 7.54703 24.1368 7.68797 24.01C9.03897 22.796 9.72797 22.785 12.004 22.75C12.602 22.74 13.287 22.73 14.088 22.694L14.271 23.197L14.062 23.331C13.8455 23.4773 13.6948 23.7024 13.6421 23.9583C13.5894 24.2142 13.6388 24.4805 13.7798 24.7005C13.9207 24.9204 14.1421 25.0766 14.3966 25.1355C14.6512 25.1945 14.9186 25.1516 15.142 25.016L15.657 24.685L16.867 24.905C16.9961 24.9292 17.1287 24.9276 17.2571 24.9003C17.3856 24.873 17.5074 24.8204 17.6154 24.7458C17.7235 24.6711 17.8156 24.5758 17.8866 24.4653C17.9576 24.3548 18.006 24.2313 18.029 24.102C18.0765 23.8413 18.0187 23.5724 17.8681 23.3543C17.7176 23.1363 17.4866 22.9869 17.226 22.939L16.239 22.759L16.055 22.252C19.015 21.088 21.838 17.727 22.279 13.272C22.281 13.257 22.285 13.241 22.286 13.224C22.29 13.179 22.299 13.137 22.303 13.092C22.371 12.278 22.726 11.695 23.035 11.422C23.251 11.231 23.903 11.102 24.281 11.109C24.289 11.109 24.296 11.105 24.304 11.105C24.382 11.105 24.455 11.085 24.53 11.068C24.583 11.056 24.638 11.056 24.688 11.036C24.771 11.002 24.843 10.946 24.914 10.891C24.945 10.868 24.984 10.857 25.012 10.83L25.016 10.824C25.066 10.774 25.096 10.71 25.136 10.65C25.171 10.597 25.216 10.55 25.24 10.493L25.244 10.487C25.271 10.421 25.27 10.352 25.284 10.285C25.294 10.225 25.318 10.171 25.318 10.11V10.104Z"/>
</svg>
