<svg xmlns="http://www.w3.org/2000/svg" width="32" height="32" ><path fill-rule="evenodd" d="M16 2a1 1 0 0 1 1 1v1.001C22.846 4.484 27.514 9.153 27.997 15H29a1 1 0 1 1 0 2h-1.003C27.514 22.847 22.846 27.516 17 27.999V29a1 1 0 1 1-2 0v-1.001C9.152 27.516 4.483 22.847 4 17H3a1 1 0 1 1 0-2h1C4.485 9.153 9.154 4.484 15 4.001V3a1 1 0 0 1 1-1Zm1 4.001V8a1 1 0 1 1-2 0V6.001c-4.745.471-8.528 4.255-9 8.999h2a1 1 0 1 1 0 2H6c.472 4.744 4.255 8.528 9 8.999V24a1 1 0 1 1 2 0v1.999c4.744-.471 8.526-4.255 8.997-8.999H24a1 1 0 1 1 0-2h1.997c-.47-4.744-4.253-8.528-8.997-8.999Zm-1.028 8.45a1.5 1.5 0 1 1-.001 3 1.5 1.5 0 0 1 0-3Z" clip-rule="evenodd"/></svg>
