<svg width="32" height="32" viewBox="0 0 32 32" xmlns="http://www.w3.org/2000/svg">
<path d="M7.641 4.376C8.021 3.899 8.827 3.899 9.206 4.376C9.66 4.946 11.924 7.882 11.924 9.696C11.924 11.419 10.864 12.862 9.424 13.336V15H11.5C15.2 15 17.124 13.644 19.161 12.207C21.368 10.651 23.649 9.042 28.001 9.042C28.2662 9.042 28.5206 9.14736 28.7081 9.33489C28.8956 9.52243 29.001 9.77678 29.001 10.042C29.001 10.3072 28.8956 10.5616 28.7081 10.7491C28.5206 10.9366 28.2662 11.042 28.001 11.042C24.283 11.042 22.355 12.401 20.313 13.842C19.758 14.233 19.197 14.628 18.6 15H28C28.1313 15 28.2614 15.0259 28.3827 15.0761C28.504 15.1264 28.6142 15.2 28.7071 15.2929C28.8 15.3858 28.8736 15.496 28.9239 15.6173C28.9741 15.7386 29 15.8687 29 16C29 16.1313 28.9741 16.2614 28.9239 16.3827C28.8736 16.504 28.8 16.6142 28.7071 16.7071C28.6142 16.8 28.504 16.8736 28.3827 16.9239C28.2614 16.9741 28.1313 17 28 17H25.986L28.692 19.598C28.8834 19.7817 28.9939 20.0338 28.9993 20.299C29.0048 20.5642 28.9047 20.8206 28.721 21.012C28.5373 21.2034 28.2852 21.3139 28.02 21.3193C27.7548 21.3248 27.4984 21.2247 27.307 21.041L23.098 17H22.304L28.848 27.469C28.863 27.492 28.864 27.519 28.876 27.543C28.906 27.601 28.926 27.66 28.944 27.725C28.964 27.792 28.98 27.857 28.985 27.927C28.987 27.952 29 27.974 29 27.999C29 28.035 28.983 28.065 28.98 28.101C28.9732 28.1717 28.9588 28.2414 28.937 28.309C28.8745 28.4909 28.7614 28.6512 28.611 28.771C28.582 28.794 28.563 28.826 28.531 28.847C28.501 28.865 28.467 28.873 28.436 28.889C28.406 28.903 28.377 28.918 28.344 28.93C28.2349 28.9728 28.1192 28.9962 28.002 28.999H4.002C3.73678 28.999 3.48243 28.8936 3.29489 28.7061C3.10736 28.5186 3.002 28.2642 3.002 27.999C3.002 27.7338 3.10736 27.4794 3.29489 27.2919C3.48243 27.1044 3.73678 26.999 4.002 26.999H4.393L9.82 17H8.9L4.693 21.034C4.59825 21.1249 4.48652 21.1963 4.36418 21.2441C4.24184 21.2918 4.1113 21.315 3.97999 21.3123C3.84869 21.3097 3.71921 21.2811 3.59893 21.2284C3.47865 21.1757 3.36994 21.0997 3.279 21.005C3.18806 20.9103 3.11667 20.7985 3.06891 20.6762C3.02115 20.5538 2.99796 20.4233 3.00065 20.292C3.00334 20.1607 3.03187 20.0312 3.08461 19.9109C3.13734 19.7907 3.21325 19.6819 3.308 19.591L6.01 17H4C3.73478 17 3.48043 16.8946 3.29289 16.7071C3.10536 16.5196 3 16.2652 3 16C3 15.7348 3.10536 15.4804 3.29289 15.2929C3.48043 15.1054 3.73478 15 4 15H7.424V13.336C5.984 12.862 4.924 11.419 4.924 9.696C4.924 7.882 7.187 4.946 7.641 4.376ZM19.946 17H18.73L20.814 26.999H26.197L19.946 17ZM13.27 17H12.093L6.668 26.999H11.188L13.27 17ZM16.687 17H15.312L13.229 26.999H18.771L16.687 17ZM8.424 6.682C7.611 7.863 6.924 9.13 6.924 9.696C6.924 10.231 7.119 10.708 7.424 11.041V9.425C7.424 9.15978 7.52936 8.90543 7.71689 8.71789C7.90443 8.53036 8.15878 8.425 8.424 8.425C8.68922 8.425 8.94357 8.53036 9.13111 8.71789C9.31864 8.90543 9.424 9.15978 9.424 9.425V11.041C9.728 10.708 9.924 10.231 9.924 9.696C9.924 9.13 9.236 7.863 8.424 6.682ZM17.914 3C19.567 3 20.914 4.346 20.914 6C20.914 7.654 19.567 9 17.914 9C16.259 9 14.914 7.654 14.914 6C14.914 4.346 16.259 3 17.914 3ZM17.914 5C17.6488 5 17.3944 5.10536 17.2069 5.29289C17.0194 5.48043 16.914 5.73478 16.914 6C16.914 6.26522 17.0194 6.51957 17.2069 6.70711C17.3944 6.89464 17.6488 7 17.914 7C18.1792 7 18.4336 6.89464 18.6211 6.70711C18.8086 6.51957 18.914 6.26522 18.914 6C18.914 5.73478 18.8086 5.48043 18.6211 5.29289C18.4336 5.10536 18.1792 5 17.914 5Z"/>
</svg>
