<svg width="32" height="32" viewBox="0 0 32 32" xmlns="http://www.w3.org/2000/svg">
<path d="M27.461 13.734C27.073 13.734 26.619 13.851 26.093 13.987C25.563 14.124 24.854 14.303 24.289 14.313C24.239 14.1814 24.1612 14.062 24.061 13.963C23.9671 13.8712 23.8559 13.7989 23.734 13.7501C23.612 13.7013 23.4816 13.6771 23.3503 13.6788C23.219 13.6804 23.0892 13.708 22.9686 13.7599C22.8479 13.8117 22.7386 13.8869 22.647 13.981C22.5597 14.077 22.4769 14.1771 22.399 14.281C22.016 14.772 21.119 15.924 19.529 16.637C19.105 16.828 18.812 16.959 17.773 21.103L17.763 21.038C17.413 19.068 17.5 17.759 18.023 17.149C18.1084 17.0492 18.1733 16.9336 18.2139 16.8087C18.2546 16.6838 18.2703 16.5522 18.26 16.4212C18.2498 16.2903 18.2139 16.1627 18.1544 16.0456C18.0948 15.9285 18.0128 15.8244 17.913 15.739C17.8132 15.6536 17.6976 15.5888 17.5727 15.5481C17.4478 15.5074 17.3162 15.4918 17.1852 15.502C17.0543 15.5122 16.9267 15.5481 16.8096 15.6076C16.6926 15.6672 16.5884 15.7492 16.503 15.849C16.385 15.987 16.298 16.144 16.205 16.297C15.587 16.459 14.411 16.607 13.099 16.407C13.277 15.577 13.244 14.727 12.98 13.874C12.8966 13.6261 12.7195 13.4207 12.4866 13.3017C12.2537 13.1827 11.9834 13.1597 11.7337 13.2374C11.484 13.3152 11.2746 13.4876 11.1504 13.7178C11.0261 13.9479 10.997 14.2176 11.069 14.469C11.325 15.289 11.242 16.073 10.817 16.866C10.142 18.126 8.79203 19.018 8.13303 19.361L8.12903 19.362L8.12603 19.364C8.04371 19.4081 7.95927 19.4482 7.87303 19.484C7.34603 19.501 7.09103 19.921 6.60503 20.725C6.45503 20.971 6.19003 21.409 5.91703 21.83C6.04403 21.124 6.29703 19.831 6.39403 19.367C6.54403 19.187 6.85803 18.838 7.10003 18.573C8.48203 17.046 9.05403 16.413 8.35203 15.66C7.79303 15.056 7.67403 13.373 7.72203 12.807C7.74284 12.587 7.71738 12.365 7.64729 12.1554C7.57719 11.9458 7.46401 11.7532 7.31503 11.59C6.89103 11.13 6.20303 10.905 5.21503 10.905C4.95503 10.905 4.61903 10.577 4.36603 10.218C4.50103 10.234 4.64603 10.244 4.80203 10.244H4.91303C5.64903 10.244 6.22303 10.508 6.68403 10.724C7.18203 10.955 7.70003 11.195 8.27403 10.959C9.75803 10.353 12.116 10.836 13.527 11.123C14.051 11.23 14.465 11.314 14.781 11.339C15.406 11.387 16.146 11.309 16.932 11.224C17.638 11.149 18.369 11.072 18.892 11.108C19.235 11.131 19.833 11.373 20.412 11.606C21.452 12.026 22.638 12.506 23.692 12.312C24.56 12.159 25.276 11.602 25.789 11.058L25.827 11.109C25.962 11.29 26.153 11.419 26.37 11.477C26.578 11.533 27.081 11.754 27.251 12.595C27.346 13.061 27.522 13.418 27.695 13.685C27.621 13.7168 27.5415 13.7338 27.461 13.735V13.734ZM20.969 18.144C21.113 18.064 21.259 17.984 21.392 17.901L22.737 18.831L20.969 18.143V18.144ZM24.625 20.126C24.753 20.213 24.846 20.274 24.89 20.301C24.928 20.381 24.873 20.588 24.815 20.628C24.692 20.64 24.636 20.53 24.608 20.471C24.6341 20.3579 24.6399 20.2411 24.625 20.126ZM29.565 12.838C29.407 12.656 29.273 12.499 29.212 12.199C28.887 10.595 27.866 9.931 27.25 9.671L26.906 9.211L27.196 8.304C27.2441 8.15414 27.256 7.99504 27.2309 7.83967C27.2058 7.6843 27.1444 7.53706 27.0516 7.40995C26.9588 7.28284 26.8373 7.17945 26.6969 7.10821C26.5566 7.03697 26.4014 6.99989 26.244 7H25.464C25.3128 6.99958 25.1635 7.03351 25.0273 7.09924C24.8912 7.16498 24.7717 7.26079 24.678 7.37945C24.5843 7.49811 24.5188 7.63651 24.4864 7.7842C24.454 7.9319 24.4556 8.08502 24.491 8.232L24.724 9.208C24.398 9.661 23.849 10.254 23.344 10.343C22.844 10.433 21.911 10.053 21.159 9.751C20.403 9.446 19.69 9.159 19.03 9.113C18.33 9.058 17.511 9.15 16.72 9.236C16.058 9.306 15.373 9.379 14.938 9.346C14.745 9.331 14.348 9.25 13.928 9.164C12.358 8.841 9.76903 8.314 7.75803 9.016C7.68803 8.987 7.61103 8.949 7.52503 8.909C6.93803 8.635 6.08003 8.242 4.82803 8.244C4.64303 8.249 4.44903 8.211 4.25103 8.174C3.83403 8.094 3.26303 7.987 2.66103 8.3C2.45103 8.41 1.79103 8.85 2.06503 9.973C2.31503 10.996 3.49503 12.905 5.21503 12.905C5.44903 12.905 5.61003 12.922 5.71803 12.942C5.70903 13.589 5.76403 15.152 6.40803 16.342C6.16603 16.624 5.84403 16.979 5.61603 17.23C4.75003 18.188 4.58403 18.38 4.49703 18.695C4.49203 18.713 4.07003 20.737 3.90803 21.715L3.80403 21.796C3.14903 22.298 2.05203 23.139 2.72403 24.154C3.07003 24.678 3.71703 24.874 4.07103 24.942C4.27503 24.982 4.48103 25.002 4.68203 25.002C5.25503 25.002 5.80303 24.842 6.24303 24.542C6.85403 24.123 7.51003 23.09 8.30303 21.784L9.75803 24.475C9.93303 24.798 10.271 25 10.638 25H12.795C13.34 25 13.785 24.563 13.795 24.018C13.811 23.178 13.478 22.131 11.863 21.773C11.6799 20.9988 11.5079 20.2221 11.347 19.443C11.469 19.321 11.584 19.2 11.69 19.08C11.915 18.823 12.107 18.56 12.282 18.294C13.3668 18.5219 14.4817 18.5699 15.582 18.436C15.492 19.627 15.687 20.787 15.793 21.386L15.82 21.547C15.961 22.377 16.804 23.995 17.06 24.471C17.1448 24.6309 17.2715 24.7647 17.4265 24.8581C17.5815 24.9514 17.7591 25.0008 17.94 25.001H20.111C20.2505 25.0006 20.3883 24.9712 20.5157 24.9146C20.6431 24.858 20.7573 24.7755 20.851 24.6722C20.9448 24.569 21.0159 24.4474 21.06 24.3151C21.1041 24.1828 21.1201 24.0428 21.107 23.904C21.001 22.797 20.337 22.191 19.642 21.888C19.81 21.22 19.984 20.556 20.147 19.968L22.662 20.948C22.739 21.244 22.884 21.538 23.092 21.798C23.3287 22.0993 23.6409 22.3326 23.9969 22.4742C24.3529 22.6158 24.7401 22.6606 25.119 22.604C25.973 22.472 26.65 21.795 26.847 20.88C27.039 19.983 26.71 19.11 26.01 18.655C25.0113 17.9739 24.016 17.2879 23.024 16.597C23.157 16.463 23.28 16.337 23.39 16.213C24.461 16.463 25.664 16.164 26.592 15.923C26.902 15.843 27.327 15.734 27.462 15.734C28.892 15.734 29.712 14.582 29.802 14.449C30.135 13.951 30.056 13.409 29.564 12.839L29.565 12.838Z"/>
</svg>
