<svg width="32" height="32" viewBox="0 0 32 32" xmlns="http://www.w3.org/2000/svg">
<path d="M26.591 11.654C25.251 11.602 23.999 12.68 22.917 14.654C22.907 14.67 22.481 15.464 22.113 16.435C22.0992 16.1492 22.0959 15.863 22.103 15.577L22.169 15.517C22.3706 15.3446 22.4954 15.0992 22.516 14.8348C22.5367 14.5703 22.4514 14.3085 22.279 14.107C22.1066 13.9054 21.8612 13.7806 21.5968 13.76C21.3324 13.7393 21.0706 13.8246 20.869 13.997C20.653 14.181 20.366 14.467 20.227 14.771C20.17 14.895 20.132 15.194 20.115 15.588C19.452 15.881 18.721 16.224 18.008 16.561L17.448 16.825C17.413 15.985 17.034 15.078 16.248 14.542C16.1397 14.4637 16.0168 14.4079 15.8866 14.378C15.7563 14.348 15.6214 14.3444 15.4898 14.3675C15.3582 14.3906 15.2325 14.4398 15.1202 14.5122C15.0079 14.5846 14.9113 14.6789 14.836 14.7893C14.7607 14.8997 14.7084 15.0241 14.682 15.1551C14.6556 15.2861 14.6557 15.4211 14.6824 15.552C14.7091 15.683 14.7617 15.8072 14.8372 15.9175C14.9127 16.0278 15.0096 16.1218 15.122 16.194C15.386 16.375 15.522 16.884 15.434 17.148C15.29 17.576 15.082 17.771 14.821 17.914C14.7782 17.932 14.7368 17.953 14.697 17.977C13.858 18.374 12.994 18.458 12.397 18.205C11.647 17.711 11.58 16.812 11.589 16.445C11.609 15.552 12.049 14.685 12.659 14.336C13.807 13.678 15.529 13.433 17.193 13.196C18.113 13.066 19.064 12.93 19.949 12.723C21.812 12.29 23.655 11.667 24.712 11.198C24.797 11.243 24.88 11.291 24.979 11.31C25.2016 11.3547 25.4328 11.3226 25.6348 11.2189C25.8368 11.1152 25.9977 10.946 26.091 10.739C26.2299 10.8613 26.4003 10.9423 26.5828 10.9729C26.7654 11.0035 26.9528 10.9824 27.124 10.912C27.261 11.064 27.479 11.32 27.676 11.564C27.311 11.66 26.828 11.656 26.591 11.654ZM4.63101 20.687C4.68401 21.02 4.86801 21.26 5.14601 21.623C5.20601 21.701 5.29601 21.819 5.38601 21.945C5.02901 21.831 4.67301 21.551 4.40801 21.155C4.19901 20.842 3.58801 19.726 4.44901 18.482C5.61201 16.805 8.13901 16.177 9.62601 15.948C9.60947 16.0828 9.59846 16.2182 9.59301 16.354L9.26801 16.542C5.68401 18.612 4.44501 19.549 4.63101 20.687ZM28.291 9.25098C28.071 9.03398 27.661 8.63098 27.062 8.57698C27.036 8.57398 27.013 8.58498 26.987 8.58498C26.644 8.21498 26.197 7.91998 25.629 8.01898C25.016 8.11898 24.682 8.58898 24.479 9.10298C24.423 9.12698 24.363 9.13598 24.311 9.17098C24.034 9.35098 22.058 10.178 19.495 10.776C18.695 10.963 17.829 11.086 16.911 11.217C15.061 11.48 13.146 11.753 11.665 12.599C11.155 12.892 10.721 13.327 10.38 13.844C8.94401 13.962 4.74701 14.544 2.80501 17.342C1.75501 18.859 1.73001 20.745 2.74501 22.264C3.47701 23.364 4.60301 24.004 5.73501 24.004C5.94301 24.004 6.15201 23.981 6.35801 23.936C7.19501 23.757 7.49901 23.241 7.60801 22.949C7.93901 22.047 7.31101 21.165 6.80501 20.501C7.29001 20.077 8.37501 19.375 10.031 18.412C10.212 18.778 10.431 19.122 10.716 19.406C10.671 19.704 10.692 20.039 10.872 20.352C11.114 20.774 11.567 21.016 12.114 21.016H15.367C15.812 21.016 16.201 20.794 16.41 20.422C16.481 20.295 16.646 20 16.523 19.438C17.3105 19.0987 18.0907 18.7426 18.863 18.37C19.311 18.158 19.767 17.943 20.205 17.741C20.34 18.943 20.625 20.165 21.123 20.699C21.2166 20.7991 21.3298 20.8789 21.4556 20.9334C21.5813 20.988 21.7169 21.0161 21.854 21.016H23.481C23.7307 21.016 23.9713 20.9226 24.1556 20.7542C24.3399 20.5858 24.4545 20.3546 24.477 20.106C24.491 19.946 24.535 19.113 23.971 18.543C23.8706 18.4408 23.7561 18.3536 23.631 18.284C23.841 17.307 24.619 15.322 25.617 14.254C25.973 13.874 26.321 13.654 26.573 13.654H26.576C27.341 13.651 29.147 13.674 29.893 12.202C30.445 11.115 28.37 9.32598 28.29 9.25198"/>
</svg>
