<svg width="32" height="32" viewBox="0 0 32 32" xmlns="http://www.w3.org/2000/svg">
<path d="M25 15H18.978C18.923 14.486 18.498 14 17.701 14H14.301C13.503 14 13.077 14.486 13.022 15H7V12.2H25V15ZM24.5 25H18.978C18.923 24.486 18.498 24 17.701 24H14.301C13.503 24 13.077 24.486 13.022 25H7.497C7.43115 25.0003 7.36591 24.9874 7.30509 24.9621C7.24427 24.9369 7.18911 24.8997 7.14283 24.8529C7.09654 24.8061 7.06007 24.7505 7.03554 24.6893C7.01102 24.6282 6.99894 24.5628 7 24.497V22H25V24.497C25 24.779 24.78 25 24.5 25ZM25 17V20H18.978C18.923 19.488 18.498 19 17.701 19H14.301C13.503 19 13.077 19.488 13.022 20H7V17H25ZM16 5.16499L24.39 10.2H7.61L16 5.16599V5.16499ZM28.515 10.342L16.515 3.14199C16.3594 3.04876 16.1814 2.99951 16 2.99951C15.8186 2.99951 15.6406 3.04876 15.485 3.14199L3.485 10.342C3.29794 10.4549 3.15295 10.6259 3.07217 10.8289C2.99139 11.0319 2.97926 11.2558 3.03762 11.4664C3.09598 11.6769 3.22164 11.8626 3.3954 11.9951C3.56917 12.1275 3.7815 12.1995 4 12.2H5V24.498C5 25.707 5.86 26.718 7 26.949V28C7 28.2652 7.10536 28.5196 7.29289 28.7071C7.48043 28.8946 7.73478 29 8 29C8.26522 29 8.51957 28.8946 8.70711 28.7071C8.89464 28.5196 9 28.2652 9 28V27H22.958V28C22.958 28.2652 23.0634 28.5196 23.2509 28.7071C23.4384 28.8946 23.6928 29 23.958 29C24.2232 29 24.4776 28.8946 24.6651 28.7071C24.8526 28.5196 24.958 28.2652 24.958 28V26.953C25.5313 26.8458 26.049 26.5417 26.4219 26.0932C26.7947 25.6448 26.9992 25.0802 27 24.497V12.2H28C28.2186 12.1999 28.4311 12.1282 28.6051 11.9959C28.7791 11.8636 28.9049 11.6779 28.9633 11.4672C29.0217 11.2566 29.0095 11.0326 28.9286 10.8296C28.8476 10.6265 28.7023 10.4556 28.515 10.343V10.342Z"/>
</svg>
