<svg width="32" height="32" viewBox="0 0 32 32" xmlns="http://www.w3.org/2000/svg">
<path d="M22.733 11.987C22.5249 11.907 22.3277 11.8012 22.146 11.672C22.314 11.214 22.419 10.719 22.441 10.188C22.521 8.31102 23.39 8.31102 23.761 8.31102C24.541 8.31102 25.031 9.08702 25.044 9.33102C25.044 9.50802 25.086 9.67602 25.164 9.82102C23.931 9.93602 23.121 10.671 22.733 11.987ZM16.775 20.949C15.747 21.127 14.485 20.994 13.15 20.854C12.8293 20.8193 12.5082 20.7869 12.187 20.757C12.363 20.568 12.516 20.361 12.654 20.144C15.481 20.107 17.464 19.459 18.692 18.158C19.64 17.152 20.094 15.803 20.074 14.053C20.438 13.849 20.756 13.606 21.04 13.339C21.424 13.606 21.877 13.833 22.35 13.976C21.554 18.214 18.989 20.566 16.775 20.949ZM15.828 15.17C16.338 15.014 16.888 14.926 17.421 14.842C17.628 14.809 17.836 14.769 18.044 14.732C17.966 15.61 17.709 16.285 17.237 16.785C16.531 17.535 15.287 17.975 13.556 18.105C14.119 16.538 14.563 15.555 15.828 15.17ZM26.956 8.72502C26.613 7.51902 25.316 6.31102 23.761 6.31102C22.755 6.31102 21.941 6.68202 21.371 7.35702C21.2691 7.33514 21.1774 7.2797 21.1107 7.19957C21.044 7.11944 21.0061 7.01925 21.003 6.91502C20.9922 6.78396 20.9555 6.65633 20.8951 6.5395C20.8347 6.42268 20.7518 6.31897 20.6511 6.23437C20.5504 6.14977 20.434 6.08594 20.3085 6.04658C20.183 6.00721 20.051 5.99309 19.92 6.00502C19.7892 6.01623 19.6618 6.05311 19.5453 6.11357C19.4287 6.17403 19.3252 6.25688 19.2407 6.35737C19.1562 6.45786 19.0923 6.57403 19.0527 6.69923C19.0131 6.82443 18.9986 6.95621 19.01 7.08702C19.097 8.09702 19.682 8.85902 20.548 9.20002C20.4918 9.49784 20.4567 9.79926 20.443 10.102C20.393 11.24 19.797 12.052 18.67 12.516C18.259 12.684 17.7 12.773 17.108 12.867C16.536 12.958 15.888 13.061 15.247 13.257C12.913 13.965 12.215 15.914 11.655 17.48C11.225 18.681 10.929 19.432 10.283 19.697C9.689 19.94 8.365 19.935 5.435 18.523C5.19591 18.4079 4.92089 18.3925 4.67043 18.4802C4.41998 18.5679 4.21461 18.7514 4.0995 18.9905C3.9844 19.2296 3.96899 19.5046 4.05666 19.7551C4.14433 20.0056 4.32791 20.2109 4.567 20.326C5.18 20.621 5.751 20.872 6.284 21.079C5.727 21.229 5.163 21.425 4.594 21.679C4.36131 21.793 4.18187 21.9927 4.0934 22.2362C4.00493 22.4797 4.01432 22.7481 4.11961 22.9848C4.2249 23.2215 4.41787 23.4082 4.65796 23.5056C4.89805 23.603 5.16655 23.6035 5.407 23.507C8.057 22.329 10.539 22.591 12.941 22.843C14.216 22.977 15.426 23.091 16.573 22.977L16.955 24.025L16.745 24.159C16.6321 24.2288 16.5343 24.3204 16.4571 24.4284C16.38 24.5364 16.3252 24.6587 16.2958 24.7882C16.2664 24.9176 16.2631 25.0516 16.286 25.1823C16.309 25.313 16.3577 25.4379 16.4294 25.5496C16.501 25.6613 16.5942 25.7576 16.7035 25.8329C16.8128 25.9082 16.936 25.9611 17.0659 25.9883C17.1958 26.0155 17.3298 26.0166 17.4602 25.9915C17.5905 25.9664 17.7145 25.9156 17.825 25.842L18.341 25.512L19.549 25.732C19.6783 25.7565 19.8112 25.7551 19.9399 25.7279C20.0687 25.7006 20.1907 25.6481 20.299 25.5733C20.4073 25.4985 20.4997 25.4029 20.5707 25.2922C20.6418 25.1814 20.6901 25.0576 20.713 24.928C20.7367 24.7989 20.7347 24.6664 20.7072 24.5381C20.6796 24.4098 20.6271 24.2881 20.5525 24.1801C20.4779 24.0721 20.3828 23.9799 20.2725 23.9087C20.1623 23.8374 20.0391 23.7886 19.91 23.765L18.923 23.585L18.53 22.507C21.633 21.225 24.008 17.641 24.508 13.248C24.668 11.841 25.105 11.805 25.531 11.805C25.891 11.809 26.107 11.836 26.343 11.871C26.55 11.901 26.743 11.927 26.963 11.935C27.0976 11.9411 27.232 11.9195 27.358 11.8715C27.4839 11.8235 27.5986 11.7502 27.695 11.656C27.792 11.5628 27.8691 11.451 27.9219 11.3273C27.9746 11.2036 28.0019 11.0705 28.002 10.936C28.002 10.193 27.599 9.26002 26.956 8.72602"/>
</svg>
