<svg width="32" height="32" viewBox="0 0 32 32" xmlns="http://www.w3.org/2000/svg">
<path d="M23.791 18.146C23.121 19.476 21.902 20.433 20.171 20.993C20.118 21.009 20.071 21.021 20.019 21.038C22.052 19.915 22.931 18.551 23.275 17.373C23.4662 16.7275 23.5101 16.0473 23.4035 15.3825C23.2969 14.7177 23.0425 14.0854 22.659 13.532C23.099 12.744 23.112 11.801 23.119 10.947C23.122 10.351 23.126 9.735 23.29 9.356C23.334 9.26 23.515 9.049 23.64 8.989C23.813 8.904 24.192 8.915 24.285 8.969L24.288 8.975C24.288 8.987 24.28 9.15 24.013 9.513C22.943 10.965 23.61 12.935 24.146 14.517L24.217 14.726C24.418 15.324 24.479 16.781 23.791 18.146ZM13.357 19.571C13.658 19.31 13.974 19.01 14.329 18.617C14.426 18.509 14.524 18.421 14.621 18.321C14.781 18.458 14.949 18.582 15.111 18.696C14.841 18.905 14.521 19.146 14.206 19.382L13.609 19.833C13.5278 19.743 13.4437 19.6556 13.357 19.571ZM19.939 15.225C20.372 15.083 20.757 14.954 21.106 14.807C21.397 15.288 21.596 15.998 21.356 16.812C20.904 18.357 19.083 19.595 16.209 20.375C16.592 20.082 16.904 19.833 17.096 19.655C17.397 19.373 17.549 19.003 17.521 18.616C17.472 17.905 16.879 17.492 16.357 17.126C16.2931 17.0818 16.2297 17.0368 16.167 16.991C17.551 16.016 18.882 15.57 19.939 15.225ZM26.796 10.753C27.006 10.473 27.059 10.082 26.928 9.756C26.923 9.744 26.395 8.533 25.968 7.889L25.952 7.861C25.944 7.848 25.933 7.84 25.925 7.828C25.896 7.788 25.867 7.742 25.841 7.708C25.828 7.691 25.809 7.684 25.795 7.668C25.8 7.628 25.818 7.593 25.818 7.552C25.818 6.543 24.765 6.003 24.002 6H23.996C22.718 6 22.156 6.707 22.062 7.312C22.042 7.445 22.05 7.576 22.079 7.699C21.793 7.982 21.567 8.299 21.454 8.562C21.129 9.314 21.124 10.137 21.118 10.933C21.113 11.659 21.108 12.41 20.815 12.698C20.605 12.904 19.98 13.108 19.319 13.323C18.076 13.728 16.352 14.294 14.562 15.68C14.562 15.682 14.558 15.682 14.556 15.684C14.549 15.689 14.546 15.695 14.54 15.7C13.977 16.138 13.407 16.654 12.845 17.277C11.789 18.446 11.448 18.48 11.437 18.482C11.363 18.47 11.134 18.318 10.981 18.216C10.406 17.833 9.537 17.253 8.034 17.253C6.758 17.253 5.678 17.963 5.216 19.105C4.806 20.119 4.989 21.207 5.682 21.876C5.77548 21.9715 5.88713 22.0472 6.01038 22.0988C6.13362 22.1504 6.26595 22.1767 6.39954 22.1763C6.53314 22.1759 6.66531 22.1487 6.78823 22.0964C6.91115 22.044 7.02234 21.9676 7.11522 21.8716C7.20811 21.7755 7.28081 21.6619 7.32904 21.5373C7.37726 21.4127 7.40003 21.2797 7.396 21.1462C7.39197 21.0126 7.36123 20.8812 7.30558 20.7598C7.24993 20.6383 7.17051 20.5293 7.072 20.439C7 20.37 6.96 20.127 7.07 19.855C7.161 19.63 7.407 19.253 8.034 19.253C8.285 19.253 8.496 19.282 8.688 19.323C8.032 19.89 7.675 20.7 7.748 21.53C7.828 22.46 8.4 23.275 9.318 23.763C9.55155 23.8823 9.82261 23.9051 10.0728 23.8264C10.323 23.7478 10.5322 23.574 10.6555 23.3425C10.7788 23.111 10.8062 22.8404 10.7318 22.5889C10.6575 22.3374 10.4873 22.1252 10.258 21.998C9.949 21.834 9.761 21.6 9.739 21.357C9.722 21.153 9.821 20.956 10.02 20.8C10.532 20.401 11.175 20.15 12.064 21.102C11.584 21.589 11.507 21.919 11.694 22.389C11.849 22.774 12.29 23.038 12.709 23.038C12.7458 23.0382 12.7825 23.0359 12.819 23.031C13.287 22.977 13.735 22.916 14.165 22.848C15.048 23.313 16.02 23.558 17.129 23.558C17.299 23.558 17.479 23.542 17.653 23.532L17.737 24.015L17.498 24.185C17.2817 24.3386 17.1353 24.5717 17.0909 24.8333C17.0466 25.0948 17.1079 25.3632 17.2615 25.5795C17.4151 25.7958 17.6483 25.9422 17.9098 25.9866C18.1713 26.0309 18.4397 25.9696 18.656 25.816L19.063 25.527L20.507 25.796C20.6383 25.8262 20.7743 25.8296 20.907 25.8059C21.0396 25.7822 21.1661 25.732 21.2788 25.6582C21.3916 25.5845 21.4882 25.4887 21.563 25.3766C21.6378 25.2645 21.6892 25.1385 21.7141 25.0061C21.7389 24.8737 21.7368 24.7376 21.7078 24.6061C21.6788 24.4745 21.6235 24.3502 21.5452 24.2405C21.4669 24.1308 21.3673 24.0381 21.2523 23.9679C21.1373 23.8977 21.0093 23.8515 20.876 23.832L19.696 23.61L19.629 23.22C20.003 23.129 20.386 23.024 20.786 22.895C23.013 22.176 24.669 20.846 25.577 19.047C26.485 17.247 26.491 15.214 26.112 14.088L26.042 13.875C25.759 13.044 25.402 11.981 25.454 11.252C26.104 11.229 26.56 11.067 26.796 10.753Z"/>
</svg>
