<svg width="32" height="32" viewBox="0 0 32 32" xmlns="http://www.w3.org/2000/svg">
<path d="M25.969 13.917C25.743 13.944 25.128 14.107 24.577 14.261V14.228C24.577 13.9628 24.4716 13.7084 24.2841 13.5209C24.0966 13.3333 23.8422 13.228 23.577 13.228C23.3118 13.228 23.0574 13.3333 22.8699 13.5209C22.6823 13.7084 22.577 13.9628 22.577 14.228C22.577 14.788 22.582 15.173 22.592 15.444C21.9319 15.979 21.2608 16.5001 20.579 17.007C20.3674 17.1655 20.2271 17.4014 20.189 17.663C19.719 17.397 19.292 17.153 18.985 16.975C19.132 16.356 19.231 15.933 19.257 15.728C19.2911 15.4664 19.2201 15.202 19.0597 14.9927C18.8993 14.7833 18.6624 14.6461 18.401 14.611C18.1385 14.5762 17.8729 14.6465 17.662 14.8067C17.4511 14.9668 17.312 15.2038 17.275 15.466C17.249 15.643 17.119 16.178 17.018 16.604L17.007 16.649C16.8315 16.695 16.6531 16.7288 16.473 16.75C16.497 16.058 16.379 15.567 16.323 15.383C16.2383 15.1393 16.0629 14.9376 15.8332 14.8202C15.6035 14.7027 15.3373 14.6784 15.0901 14.7525C14.843 14.8265 14.634 14.9931 14.5067 15.2176C14.3794 15.442 14.3437 15.7069 14.407 15.957C14.424 16.013 14.712 17.051 13.93 18.494C13.8587 18.3111 13.7344 18.1537 13.573 18.042C11.723 16.756 11.273 14.877 11.271 14.864C11.2322 14.6852 11.1452 14.5205 11.0196 14.3876C10.8939 14.2547 10.7343 14.1587 10.558 14.11C10.3813 14.0629 10.1952 14.0646 10.0194 14.1149C9.84366 14.1653 9.68487 14.2624 9.55998 14.396C7.53998 16.573 5.97898 17.657 4.90698 18.197C6.55298 15.981 9.69398 13.814 11.04 13.019C11.1091 12.978 11.173 12.9286 11.23 12.872C13.363 10.787 16.06 10.438 19.25 11.828C19.49 11.934 19.64 11.992 19.806 11.999C19.889 12.009 20.076 12.043 20.318 12.086C22.484 12.472 23.09 12.506 23.531 12.272C23.594 12.247 23.706 12.219 23.843 12.19C23.8832 12.4181 24.0024 12.6249 24.1798 12.7739C24.3571 12.9229 24.5813 13.0047 24.813 13.005C24.9884 13.0051 25.1608 12.959 25.3128 12.8714C25.4648 12.7838 25.5911 12.6578 25.679 12.506L25.824 12.256L26.068 11.833C26.165 12.006 26.248 12.159 26.3 12.261C26.323 12.309 26.365 12.341 26.395 12.382C26.658 12.884 27.055 13.729 27.301 14.294C26.731 14.02 26.371 13.869 25.969 13.917ZM29.428 14.102C29.306 13.855 29.193 13.63 29.147 13.523C29.111 13.441 28.354 11.7 27.871 10.953C26.939 9.19698 26.466 9.06998 26.258 9.02298C26.1099 8.99139 25.9568 8.99238 25.8091 9.02588C25.6615 9.05938 25.5229 9.12459 25.403 9.21698C25.266 9.32498 25.175 9.42098 24.808 10.031C24.192 10.088 23.29 10.225 22.792 10.416C22.365 10.456 21.148 10.203 20.668 10.116C20.394 10.067 20.228 10.038 20.112 10.021L20.05 9.99498C14.892 7.74698 11.517 9.83898 9.91898 11.358C9.02698 11.899 3.10398 15.611 2.03698 19.443C2.00023 19.5758 1.99125 19.7147 2.01062 19.8511C2.02999 19.9875 2.07728 20.1185 2.14954 20.2358C2.22181 20.3531 2.31749 20.4543 2.43061 20.5329C2.54373 20.6116 2.67185 20.6661 2.80698 20.693C3.18898 20.765 4.85098 20.915 7.69698 18.804C7.69098 18.854 7.67298 18.899 7.67298 18.95V21.433C7.67298 21.683 7.76698 21.924 7.93598 22.108L8.45398 22.674C8.54778 22.7762 8.66184 22.8578 8.78889 22.9136C8.91595 22.9694 9.05322 22.9981 9.19198 22.998H10.112C10.3772 22.998 10.6316 22.8926 10.8191 22.7051C11.0066 22.5176 11.112 22.2632 11.112 21.998C11.112 21.7328 11.0066 21.4784 10.8191 21.2909C10.6316 21.1033 10.3772 20.998 10.112 20.998H9.67198V19.738C10.307 19.576 11.115 19.34 11.686 19.083C11.752 19.143 11.806 19.203 11.876 19.261L11.701 19.971C11.608 20.354 11.748 20.758 12.061 21.001L14.375 22.789C14.55 22.925 14.765 22.999 14.987 22.999H15.927C16.1922 22.999 16.4466 22.8936 16.6341 22.7061C16.8216 22.5185 16.927 22.2642 16.927 21.999C16.927 21.7338 16.8216 21.4794 16.6341 21.2919C16.4466 21.1043 16.1922 20.999 15.927 20.999H15.327L14.884 20.654C15.3445 20.0914 15.7226 19.4661 16.007 18.797C16.451 18.7782 16.8926 18.7216 17.327 18.628C17.397 19.14 17.541 20.065 17.83 21.813C17.8686 22.0468 17.9891 22.2594 18.1698 22.4127C18.3506 22.566 18.58 22.6501 18.817 22.65H19.745C20.0102 22.65 20.2646 22.5446 20.4521 22.3571C20.6396 22.1696 20.745 21.9152 20.745 21.65C20.7432 21.418 20.6595 21.1941 20.5088 21.0177C20.358 20.8414 20.1499 20.7239 19.921 20.686C20.011 20.499 20.133 20.264 20.273 20.009L20.981 20.404L20.959 20.456C20.8941 20.6082 20.8679 20.774 20.8827 20.9388C20.8976 21.1035 20.9529 21.2621 21.0439 21.4002C21.135 21.5384 21.2587 21.6518 21.4043 21.7305C21.5498 21.8091 21.7126 21.8505 21.878 21.851C22.0737 21.851 22.265 21.7935 22.4284 21.6858C22.5917 21.5781 22.7199 21.4248 22.797 21.245C22.809 21.218 23.09 20.561 23.262 19.882C23.451 19.133 23.021 18.483 22.587 18.002C23.657 17.194 24.231 16.732 24.484 16.369C24.883 16.249 25.717 16.017 26.074 15.931C26.214 15.989 26.428 16.094 26.569 16.162C27.109 16.427 27.439 16.585 27.785 16.552C27.868 16.537 27.995 16.56 28.141 16.569C28.376 16.585 28.579 16.599 28.757 16.599C29.147 16.599 29.423 16.535 29.677 16.297C29.7778 16.201 29.8583 16.0859 29.9138 15.9582C29.9693 15.8306 29.9986 15.6931 30 15.554C30 15.26 29.919 15.088 29.428 14.102Z"/>
</svg>
