<svg width="32" height="32" viewBox="0 0 32 32" xmlns="http://www.w3.org/2000/svg">
<path d="M16 3C17.209 3 18.231 3.737 18.622 4.761C19.453 4.94 20.169 5.39 20.683 6H24C25.103 6 26 6.903 26 8.014V26.987C26 28.097 25.103 29 24 29H8C6.897 29 6 28.097 6 26.987V8.014C6 6.903 6.897 6 8 6H11.317C11.831 5.39 12.547 4.94 13.378 4.761C13.769 3.737 14.791 3 16 3ZM10.518 8H8V26.987L24 27V8.014L21.482 8.005C21.485 8.06 21.5 8.11 21.5 8.166V9C21.5 9.553 21.053 10 20.5 10H11.5C10.947 10 10.5 9.553 10.5 9V8.166C10.5 8.109 10.515 8.057 10.518 8ZM20 21C20.553 21 21 21.447 21 22C21 22.553 20.553 23 20 23H12C11.447 23 11 22.553 11 22C11 21.447 11.447 21 12 21H20ZM20 17C20.553 17 21 17.447 21 18C21 18.553 20.553 19 20 19H12C11.447 19 11 18.553 11 18C11 17.447 11.447 17 12 17H20ZM20 13C20.553 13 21 13.447 21 14C21 14.553 20.553 15 20 15H12C11.447 15 11 14.553 11 14C11 13.447 11.447 13 12 13H20ZM16 5C15.559 5 15.2 5.299 15.2 5.667C15.2 6.22 14.753 6.667 14.2 6.667C13.326 6.667 12.604 7.251 12.511 8H19.489C19.396 7.251 18.674 6.667 17.8 6.667C17.247 6.667 16.8 6.22 16.8 5.667C16.8 5.299 16.441 5 16 5Z"/>
</svg>
