<svg width="32" height="32" viewBox="0 0 32 32" xmlns="http://www.w3.org/2000/svg">
<path fill-rule="evenodd" clip-rule="evenodd" d="M3 16C3 15.4477 3.44772 15 4 15H5C5.55228 15 6 15.4477 6 16C6 16.5523 5.55228 17 5 17H4C3.44772 17 3 16.5523 3 16ZM8 16C8 15.4477 8.44771 15 9 15H11C11.5523 15 12 15.4477 12 16C12 16.5523 11.5523 17 11 17H9C8.44771 17 8 16.5523 8 16ZM14 16C14 15.4477 14.4477 15 15 15H17C17.5523 15 18 15.4477 18 16C18 16.5523 17.5523 17 17 17H15C14.4477 17 14 16.5523 14 16ZM20 16C20 15.4477 20.4477 15 21 15H23C23.5523 15 24 15.4477 24 16C24 16.5523 23.5523 17 23 17H21C20.4477 17 20 16.5523 20 16ZM26 16C26 15.4477 26.4477 15 27 15H28C28.5523 15 29 15.4477 29 16C29 16.5523 28.5523 17 28 17H27C26.4477 17 26 16.5523 26 16Z" />
<path fill-rule="evenodd" clip-rule="evenodd" d="M6.43955 10.1339C8.41318 6.94325 11.9475 4.8 15.99 4.8C20.0314 4.8 23.5779 6.94247 25.5426 10.1474C25.8312 10.6182 25.6835 11.2339 25.2126 11.5226C24.7418 11.8112 24.1261 11.6635 23.8374 11.1926C22.2221 8.55753 19.3086 6.8 15.99 6.8C12.6725 6.8 9.76683 8.55675 8.14045 11.1861C7.84992 11.6557 7.23364 11.801 6.76395 11.5105C6.29426 11.2199 6.14902 10.6036 6.43955 10.1339Z" />
<path fill-rule="evenodd" clip-rule="evenodd" d="M6.77737 20.4774C7.24823 20.1888 7.86392 20.3365 8.15256 20.8074C9.76791 23.4425 12.6814 25.2 16 25.2C19.3171 25.2 22.2223 23.4437 23.8487 20.8053C24.1386 20.3351 24.7546 20.1889 25.2247 20.4787C25.6949 20.7686 25.8411 21.3846 25.5513 21.8547C23.5777 25.0563 20.0429 27.2 16 27.2C11.9586 27.2 8.41209 25.0575 6.44744 21.8526C6.1588 21.3818 6.30652 20.7661 6.77737 20.4774Z" />
<path fill-rule="evenodd" clip-rule="evenodd" d="M16 22C16.5523 22 17 22.4477 17 23V28C17 28.5523 16.5523 29 16 29C15.4477 29 15 28.5523 15 28V23C15 22.4477 15.4477 22 16 22Z" />
<path fill-rule="evenodd" clip-rule="evenodd" d="M16 3C16.5523 3 17 3.44772 17 4V9C17 9.55228 16.5523 10 16 10C15.4477 10 15 9.55228 15 9V4C15 3.44772 15.4477 3 16 3Z" />
</svg>
