<svg width="32" height="32" viewBox="0 0 32 32" xmlns="http://www.w3.org/2000/svg">
<path d="M16 15.672C18.452 15.672 21.297 19.156 22.207 20.934C23.949 24.339 23.904 26.97 22.082 28.344C20.54 29.504 18.812 28.86 17.55 28.388C16.959 28.167 16.4 27.958 16 27.958C15.6 27.958 15.042 28.167 14.45 28.388C13.714 28.663 12.819 28.997 11.895 28.997C11.1818 29.0063 10.4861 28.7764 9.91897 28.344C8.09697 26.97 8.05197 24.338 9.79397 20.934C10.704 19.156 13.549 15.672 16.001 15.672H16ZM16 17.672C14.82 17.672 12.508 20.024 11.574 21.846C11.121 22.733 9.74597 25.708 11.123 26.746C11.743 27.214 12.528 26.972 13.751 26.514C14.481 26.24 15.239 25.958 16.001 25.958C16.763 25.958 17.519 26.24 18.25 26.514C19.47 26.971 20.258 27.214 20.879 26.746C22.255 25.709 20.881 22.733 20.426 21.846C19.493 20.024 17.18 17.672 16.001 17.672H16ZM8.40997 11.957C9.22297 12.591 9.83697 13.546 10.136 14.646C10.436 15.745 10.39 16.879 10.009 17.839C9.59497 18.884 8.80297 19.633 7.83697 19.896C7.58335 19.9647 7.32172 19.9993 7.05897 19.999C6.32397 19.999 5.57497 19.733 4.92297 19.224C4.10797 18.589 3.49497 17.634 3.19597 16.534C2.89597 15.434 2.94097 14.301 3.32197 13.341C3.73697 12.297 4.52797 11.548 5.49397 11.285C6.45797 11.021 7.52197 11.267 8.40897 11.957H8.40997ZM26.505 11.285C27.471 11.548 28.263 12.297 28.677 13.341C29.058 14.301 29.103 15.435 28.804 16.535C28.505 17.634 27.892 18.589 27.077 19.224C26.424 19.733 25.677 19.999 24.941 19.999C24.6779 19.9993 24.4159 19.9647 24.162 19.896C23.197 19.633 22.405 18.884 21.992 17.839C21.61 16.879 21.565 15.745 21.864 14.646C22.162 13.546 22.776 12.591 23.591 11.956C24.478 11.266 25.543 11.023 26.505 11.285ZM6.27997 13.18C6.19218 13.1798 6.10476 13.1912 6.01997 13.214C5.53697 13.346 5.28797 13.812 5.18197 14.078C4.96297 14.63 4.94297 15.333 5.12597 16.008C5.30997 16.684 5.68397 17.281 6.15297 17.645C6.37797 17.822 6.82697 18.102 7.31297 17.965C7.79697 17.834 8.04597 17.367 8.15297 17.101C8.37097 16.549 8.39097 15.845 8.20697 15.17C8.02397 14.495 7.64997 13.899 7.18097 13.534C6.99597 13.39 6.66097 13.18 6.28097 13.18H6.27997ZM25.721 13.18C25.341 13.18 25.005 13.39 24.821 13.534C24.352 13.899 23.978 14.494 23.794 15.17C23.611 15.845 23.631 16.549 23.85 17.1C23.955 17.367 24.205 17.833 24.688 17.965C25.173 18.092 25.623 17.822 25.849 17.645C26.319 17.281 26.692 16.684 26.875 16.008C27.059 15.333 27.038 14.63 26.82 14.078C26.714 13.812 26.464 13.346 25.982 13.214C25.8971 13.1917 25.8097 13.1803 25.722 13.18H25.721ZM11.834 3C13.89 3 15.5 5.196 15.5 8C15.5 10.804 13.89 13 11.833 13C9.77697 13 8.16597 10.804 8.16597 8C8.16597 5.196 9.77597 3 11.833 3H11.834ZM20.167 3C22.224 3 23.834 5.196 23.834 8C23.834 10.804 22.224 13 20.167 13C18.11 13 16.5 10.804 16.5 8C16.5 5.196 18.11 3 20.166 3H20.167ZM11.834 5C11.046 5 10.167 6.232 10.167 8C10.167 9.768 11.046 11 11.834 11C12.622 11 13.5 9.768 13.5 8C13.5 6.232 12.62 5 11.833 5H11.834ZM20.167 5C19.379 5 18.5 6.232 18.5 8C18.5 9.768 19.378 11 20.166 11C20.954 11 21.833 9.768 21.833 8C21.833 6.232 20.953 5 20.166 5H20.167Z"/>
</svg>
