<svg width="32" height="32" viewBox="0 0 32 32" xmlns="http://www.w3.org/2000/svg">
<path d="M24.8721 25.458L16.0001 16.586V4.038C22.7031 4.551 28.0001 10.168 28.0001 17C28.0001 20.137 26.8961 23.104 24.8721 25.458ZM21.5271 24.992C19.5881 26.932 17.0101 28 14.2681 28C8.75709 28 4.26009 23.634 4.02209 18.182H14.7681L21.5581 24.972C21.5481 24.98 21.5361 24.983 21.5271 24.992ZM14.0001 7.48V16.182H4.13009C4.86909 11.343 8.98809 7.61 14.0001 7.48ZM15.0001 2C14.4481 2 14.0001 2.447 14.0001 3V5.48C7.36009 5.625 2.00009 11.06 2.00009 17.733C2.00009 24.497 7.50309 30 14.2681 30C17.5451 30 20.6251 28.724 22.9411 26.406C22.9501 26.397 22.9531 26.385 22.9621 26.376L24.1911 27.605C24.3871 27.801 24.6431 27.898 24.8981 27.898C25.1541 27.898 25.4101 27.801 25.6051 27.605C28.4391 24.772 30.0001 21.007 30.0001 17C30.0001 8.729 23.2711 2 15.0001 2Z"/>
</svg>
