<svg width="32" height="32" viewBox="0 0 32 32" xmlns="http://www.w3.org/2000/svg">
<path d="M26.1949 6.27383C27.1899 6.27383 27.9999 7.07883 27.9999 8.07083V15.5088C27.9999 16.2098 27.6369 17.0808 27.1379 17.5788L16.4909 28.4658C16.1439 28.8138 15.6909 28.9998 15.2079 28.9998C14.7249 28.9998 14.2719 28.8138 13.9329 28.4738L5.6279 20.2378C5.2869 19.8998 5.09889 19.4478 5.09889 18.9678C5.0979 18.4868 5.2849 18.0328 5.6249 17.6938L16.6269 7.11583C17.1129 6.63283 17.9869 6.27383 18.6929 6.27383H26.1949ZM25.9999 8.27383H18.6929C18.5129 8.27383 18.1499 8.42083 18.0249 8.54583L7.1859 18.9668L15.2059 26.9198L25.7169 16.1718C25.8489 16.0398 25.9999 15.6798 25.9999 15.5088V8.27383ZM25.8994 3.00043C26.4524 3.00043 26.8994 3.44743 26.8994 4.00043C26.8994 4.55243 26.4524 5.00043 25.8994 5.00043H17.3194C17.1394 5.00043 16.7734 5.15043 16.6454 5.27643L5.6964 15.9174C5.5024 16.1064 5.2504 16.2004 4.9994 16.2004C4.7394 16.2004 4.4784 16.0984 4.2824 15.8974C3.8974 15.5014 3.9074 14.8684 4.3034 14.4834L15.2454 3.84943C15.7384 3.36043 16.6144 3.00043 17.3194 3.00043H25.8994ZM22.0497 10.6888C22.8817 10.6888 23.5557 11.3568 23.5557 12.1818C23.5557 13.0078 22.8817 13.6758 22.0497 13.6758C21.2167 13.6758 20.5437 13.0078 20.5437 12.1818C20.5437 11.3568 21.2167 10.6888 22.0497 10.6888Z"/>
</svg>
