<svg xmlns="http://www.w3.org/2000/svg" width="32" height="32" ><path fill-rule="evenodd" d="M7.502 8.502a1 1 0 1 0-2 0 1 1 0 0 0 2 0ZM6.5 12.98a.996.996 0 0 1-.686-.273l-1.768-1.669C2.664 9.632 2.664 7.388 4.021 6.01c1.321-1.345 3.635-1.348 4.96.001a3.584 3.584 0 0 1-.026 5.026l-.001.001-1.768 1.67a.996.996 0 0 1-.686.272ZM9 26.991h8.008a1 1 0 1 1 0 2H9c-3.308 0-6-2.69-6-6 0-3.308 2.692-6 6-6h4.001c1.103 0 2-.896 2-2 0-1.102-.897-2-2-2H11.5a1 1 0 1 1 0-2h1.501c2.206 0 4 1.795 4 4 0 2.207-1.794 4-4 4H9c-2.206 0-4 1.794-4 4 0 2.207 1.794 4 4 4Zm16.843-3.046-2.835 2.673-2.822-2.66a4.134 4.134 0 0 1 0-5.78 3.938 3.938 0 0 1 2.822-1.186c1.065 0 2.068.422 2.822 1.187 1.564 1.589 1.569 4.172.013 5.766Zm1.413-7.168a5.922 5.922 0 0 0-4.248-1.785 5.924 5.924 0 0 0-4.248 1.785c-2.33 2.366-2.33 6.217.027 8.609l3.535 3.333a.996.996 0 0 0 1.372 0l3.535-3.333a.22.22 0 0 0 .02-.02l.007-.006c2.329-2.366 2.329-6.217 0-8.583Zm-4.75 4.214c0 .276.226.5.5.5.276 0 .5-.224.5-.5 0-.274-.224-.5-.5-.5-.274 0-.5.226-.5.5Zm-2 0c0-1.378 1.122-2.5 2.5-2.5 1.38 0 2.5 1.122 2.5 2.5 0 1.38-1.12 2.5-2.5 2.5a2.502 2.502 0 0 1-2.5-2.5Z" clip-rule="evenodd"/></svg>
