
<svg xmlns="http://www.w3.org/2000/svg" width="32" height="32"><path fill-rule="evenodd" d="M7.32 9.46A6.6 6.6 0 0 1 2.99 11a1 1 0 0 1 0-2 4.42 4.42 0 0 0 3.53-1.59 1 1 0 0 1 1.6 0 4.71 4.71 0 0 0 7.06 0 1 1 0 0 1 1.259-.3 1 1 0 0 1 .351.3 4.71 4.71 0 0 0 7.06 0 1 1 0 0 1 1.61 0A4.42 4.42 0 0 0 28.99 9a1 1 0 0 1 0 2 6.62 6.62 0 0 1-4.34-1.54 6.86 6.86 0 0 1-8.66 0 6.87 6.87 0 0 1-8.67 0ZM28.99 16a4.42 4.42 0 0 1-3.53-1.59 1.001 1.001 0 0 0-1.61 0 4.712 4.712 0 0 1-7.06 0 1 1 0 0 0-1.254-.302 1 1 0 0 0-.356.302 4.713 4.713 0 0 1-7.06 0 1 1 0 0 0-1.6 0A4.42 4.42 0 0 1 2.99 16a1 1 0 0 0 0 2 6.6 6.6 0 0 0 4.33-1.54 6.87 6.87 0 0 0 8.67 0 6.86 6.86 0 0 0 8.66 0A6.62 6.62 0 0 0 28.99 18a1 1 0 0 0 0-2Zm0 7a4.42 4.42 0 0 1-3.53-1.59 1.001 1.001 0 0 0-1.61 0 4.712 4.712 0 0 1-7.06 0 .998.998 0 0 0-1.61 0 4.713 4.713 0 0 1-7.06 0 1 1 0 0 0-1.6 0A4.42 4.42 0 0 1 2.99 23a1 1 0 0 0 0 2 6.6 6.6 0 0 0 4.33-1.54 6.87 6.87 0 0 0 8.67 0 6.86 6.86 0 0 0 8.66 0A6.62 6.62 0 0 0 28.99 25a1 1 0 0 0 0-2Z" clip-rule="evenodd"/></svg>