<svg width="32" height="32" viewBox="0 0 32 32" xmlns="http://www.w3.org/2000/svg">
<path d="M26.038 12.689C25.8597 12.6059 25.6608 12.5774 25.4664 12.6072C25.272 12.6369 25.0908 12.7236 24.9455 12.8562C24.8003 12.9888 24.6976 13.1615 24.6503 13.3524C24.603 13.5433 24.6134 13.7439 24.68 13.929C23.823 14.408 22.453 15.002 21.148 15.091C20.9266 15.1074 20.7168 15.1963 20.551 15.344C19.851 15.97 18.398 17.027 17.483 17.199C17.458 17.204 17.441 17.216 17.417 17.223C17.657 16.691 17.822 16.156 17.876 15.869C17.925 15.6084 17.8686 15.339 17.719 15.1201C17.5695 14.9011 17.339 14.7506 17.0785 14.7015C16.8179 14.6524 16.5485 14.7089 16.3296 14.8584C16.1106 15.008 15.96 15.2384 15.911 15.499C15.853 15.807 15.542 16.643 15.269 16.981C15.213 17.049 15.158 17.141 15.104 17.245C14.508 17.279 13.813 17.248 13.24 17.189C13.357 16.445 13.23 15.608 12.62 14.668C12.4758 14.4456 12.2492 14.2896 11.9901 14.2343C11.7309 14.1789 11.4604 14.2288 11.238 14.373C11.0156 14.5171 10.8596 14.7437 10.8043 15.0029C10.7489 15.2621 10.7988 15.5326 10.943 15.755C11.579 16.735 11.269 17.26 10.44 18.46C10.4313 18.4738 10.422 18.4871 10.412 18.5C10.386 17.987 10.227 17.742 9.90697 17.545C8.67697 16.788 8.76297 16.231 8.85997 15.587C8.89397 15.377 8.91697 15.187 8.91697 15.026C8.91697 14.7609 8.81175 14.5067 8.62443 14.3192C8.43711 14.1317 8.18302 14.0263 7.91797 14.026H7.91697C7.65176 14.026 7.3974 14.1313 7.20987 14.3189C7.02233 14.5064 6.91697 14.7608 6.91697 15.026C6.91697 15.1 6.89797 15.186 6.88397 15.285C6.85397 15.482 6.81697 15.734 6.81097 16.019C6.13297 17.351 5.22397 17.919 4.52097 18.137C4.65097 17.926 4.78197 17.721 4.88297 17.564C5.24197 16.999 5.46997 16.638 5.59697 16.35C6.92097 13.333 8.98397 12.77 10.217 12.433L10.411 12.377C10.669 12.337 11.699 12.436 12.527 12.51C14.537 12.692 17.037 12.918 18.425 12.525L19.068 12.34C19.997 12.073 21.938 11.514 23.365 11.196C23.3245 11.3777 23.3358 11.5671 23.3977 11.7426C23.4596 11.9182 23.5695 12.0729 23.715 12.189C23.9234 12.3529 24.1885 12.4272 24.4518 12.3957C24.7151 12.3642 24.955 12.2294 25.119 12.021L25.889 11.043C26.174 11.321 26.448 11.598 26.601 11.767C26.636 12.159 26.688 12.685 27.058 13.057C27.091 13.09 27.15 13.154 27.225 13.236L26.038 12.689ZM29.742 13.033C29.742 13.033 28.958 12.163 28.611 11.79C28.6 11.717 28.598 11.64 28.591 11.57C28.5807 11.4133 28.5573 11.2578 28.521 11.105C28.458 10.882 28.402 10.687 27.223 9.54999V8.99999C27.2225 8.79229 27.1575 8.58987 27.0369 8.42078C26.9163 8.25169 26.746 8.12431 26.5498 8.05629C26.3535 7.98828 26.141 7.98299 25.9416 8.04117C25.7422 8.09935 25.5658 8.21811 25.437 8.38099L24.974 8.97099C23.907 8.93899 21.839 9.46099 18.515 10.418L17.877 10.601C16.849 10.895 14.356 10.668 12.708 10.519C11.101 10.372 10.368 10.313 9.90997 10.443L9.68997 10.503C8.32197 10.877 5.47497 11.653 3.76597 15.545C3.69497 15.708 3.41897 16.14 3.19597 16.489C2.22297 18.018 1.51897 19.123 2.40597 19.878C2.57197 20.02 2.78397 20.115 3.02097 20.174C2.96497 20.573 2.89397 21.114 2.79697 21.871V21.873C2.78207 22.0196 2.79913 22.1676 2.84697 22.307C2.85497 22.333 2.85697 22.359 2.86697 22.383L3.28697 23.387C3.36327 23.5688 3.49159 23.7239 3.65581 23.833C3.82003 23.9421 4.01283 24.0002 4.20997 24H5.04897C5.31419 24 5.56854 23.8946 5.75608 23.7071C5.94362 23.5196 6.04897 23.2652 6.04897 23C6.04897 22.7348 5.94362 22.4804 5.75608 22.2929C5.56854 22.1053 5.31419 22 5.04897 22H5.03897C5.46397 21.446 5.88397 20.922 6.06597 20.73L6.38597 20.579C7.01797 20.283 7.70197 19.944 8.34297 19.431C8.29697 19.774 8.23797 20.161 8.17797 20.509C8.14888 20.6764 8.16291 20.8484 8.21872 21.0088C8.27453 21.1692 8.37029 21.3128 8.49697 21.426L11.092 23.746C11.2752 23.9096 11.5123 24 11.758 24H12.806C13.0712 24 13.3255 23.8946 13.5131 23.7071C13.7006 23.5196 13.806 23.2652 13.806 23C13.806 22.7348 13.7006 22.4804 13.5131 22.2929C13.3255 22.1053 13.0712 22 12.806 22H12.14L11.21 21.17C11.382 20.633 11.72 20.125 12.087 19.595C12.196 19.437 12.31 19.271 12.422 19.097C13.018 19.192 13.766 19.252 14.486 19.257C14.3686 19.8159 14.2659 20.3777 14.178 20.942C14.1691 20.9935 14.1648 21.0457 14.165 21.098V23C14.165 23.2652 14.2703 23.5196 14.4579 23.7071C14.6454 23.8946 14.8998 24 15.165 24H16.213C16.4782 24 16.7325 23.8946 16.9201 23.7071C17.1076 23.5196 17.213 23.2652 17.213 23C17.213 22.7348 17.1076 22.4804 16.9201 22.2929C16.7325 22.1053 16.4782 22 16.213 22L16.195 21.7C17.185 21.029 17.872 19.806 18.253 19.12L18.288 19.055C18.6007 18.9555 18.9051 18.8311 19.198 18.683C19.255 18.82 19.338 18.945 19.449 19.047L23.102 22.367C23.152 22.414 23.216 22.437 23.272 22.472L23.899 23.514C23.9877 23.6621 24.1133 23.7847 24.2635 23.8699C24.4137 23.955 24.5833 23.9999 24.756 24H25.805C26.0702 24 26.3245 23.8946 26.5121 23.7071C26.6996 23.5196 26.805 23.2652 26.805 23C26.805 22.7348 26.6996 22.4804 26.5121 22.2929C26.3245 22.1053 26.0702 22 25.805 22H25.321L22.798 17.796C22.855 17.504 22.935 17.1 22.998 16.772C24.515 16.35 25.854 15.615 26.533 15.117L27.326 15.482C27.4838 15.5546 27.6578 15.5849 27.8309 15.5698C28.0039 15.5547 28.1701 15.4948 28.313 15.396L29.571 14.524C29.6878 14.4431 29.7861 14.3382 29.8592 14.2163C29.9323 14.0944 29.9785 13.9583 29.9949 13.8171C30.0113 13.6759 29.9974 13.5329 29.9541 13.3975C29.9108 13.2621 29.8392 13.1375 29.744 13.032L29.742 13.033Z"/>
</svg>
