<svg width="96" height="96" fill="none" xmlns="http://www.w3.org/2000/svg"><path fill-rule="evenodd" clip-rule="evenodd" d="M48 92c24.3 0 44-19.7 44-44S72.3 4 48 4 4 23.7 4 48s19.7 44 44 44Zm0-4c22.091 0 40-17.909 40-40S70.091 8 48 8 8 25.909 8 48s17.909 40 40 40Z" fill="#A5A6A7"/><path d="M61.333 33A1.67 1.67 0 0 1 63 34.667v3.636a1.666 1.666 0 0 1-1.667 1.667 1.645 1.645 0 0 1-1.6-1.345L39.97 58.39v2.943a1.666 1.666 0 0 1-3.334 0v-1.97h-1.968a1.667 1.667 0 0 1 0-3.333h2.95l4.735-4.739-8.863-8.863a1.662 1.662 0 0 1 0-2.356 15.758 15.758 0 0 1 11.218-4.649c3.678 0 7.163 1.247 9.98 3.535l2.688-2.69a1.643 1.643 0 0 1-1.347-1.601A1.667 1.667 0 0 1 57.695 33h3.638ZM57.43 44.76a1.667 1.667 0 0 1 2.143.978 15.91 15.91 0 0 1-3.646 16.773 1.666 1.666 0 0 1-2.357 0l-5.875-5.873a1.668 1.668 0 0 1 1.184-2.824c.438-.004.858.164 1.173.468l4.616 4.616a12.577 12.577 0 0 0 1.784-11.993 1.669 1.669 0 0 1 .978-2.145Zm-12.723-6.003a12.443 12.443 0 0 0-7.607 2.57l7.608 7.608 7.6-7.597a12.425 12.425 0 0 0-7.6-2.581h-.001Z" fill="#A5A6A7"/></svg>
