<svg width="96" height="96" viewBox="0 0 96 96" fill="none" xmlns="http://www.w3.org/2000/svg"><path d="M48 86c16.569 0 30-13.431 30-30 0-16.569-13.431-30-30-30-16.569 0-30 13.431-30 30 0 16.569 13.431 30 30 30Z" fill="#3ED6CA" fill-opacity=".5"/><path d="M48 58a2 2 0 1 0 0-4 2 2 0 0 0 0 4Z" fill="#fff"/><path d="M49 33a1 1 0 1 0-2 0v23a1 1 0 1 0 2 0V33Z" fill="#1F2021"/><path d="M48 35c6.627 0 12-5.373 12-12s-5.373-12-12-12-12 5.373-12 12 5.373 12 12 12Z" fill="#fff"/><path d="M48 31a8 8 0 1 0 0-16 8 8 0 0 0 0 16Z" fill="#FE5D26"/></svg>
