<svg width="16" height="16" viewBox="0 0 16 16" xmlns="http://www.w3.org/2000/svg">
<path fill-rule="evenodd" clip-rule="evenodd" d="M6.99997 11C6.86864 11.0001 6.73857 10.9743 6.61724 10.924C6.49591 10.8738 6.38571 10.8 6.29297 10.707L4.29297 8.707C4.20013 8.61416 4.12648 8.50393 4.07623 8.38263C4.02598 8.26132 4.00012 8.1313 4.00012 8C4.00012 7.8687 4.02598 7.73868 4.07623 7.61738C4.12648 7.49607 4.20013 7.38585 4.29297 7.293C4.38582 7.20016 4.49604 7.12651 4.61735 7.07626C4.73865 7.02601 4.86867 7.00015 4.99997 7.00015C5.13127 7.00015 5.26129 7.02601 5.3826 7.07626C5.5039 7.12651 5.61413 7.20016 5.70697 7.293L6.99997 8.586L10.293 5.293C10.3858 5.20016 10.496 5.12651 10.6173 5.07626C10.7387 5.02601 10.8687 5.00015 11 5.00015C11.1313 5.00015 11.2613 5.02601 11.3826 5.07626C11.5039 5.12651 11.6141 5.20016 11.707 5.293C11.7998 5.38585 11.8735 5.49607 11.9237 5.61738C11.974 5.73868 11.9998 5.8687 11.9998 6C11.9998 6.1313 11.974 6.26132 11.9237 6.38263C11.8735 6.50393 11.7998 6.61416 11.707 6.707L7.70697 10.707C7.61423 10.8 7.50403 10.8738 7.3827 10.924C7.26137 10.9743 7.13131 11.0001 6.99997 11Z"/>
</svg>
