<svg width="16" height="16" viewBox="0 0 16 16" xmlns="http://www.w3.org/2000/svg">
<path d="M9.41397 8L12.707 4.707C12.7998 4.61416 12.8735 4.50393 12.9237 4.38263C12.974 4.26132 12.9998 4.1313 12.9998 4C12.9998 3.8687 12.974 3.73868 12.9237 3.61738C12.8735 3.49607 12.7998 3.38585 12.707 3.293C12.6141 3.20016 12.5039 3.12651 12.3826 3.07626C12.2613 3.02601 12.1313 3.00015 12 3.00015C11.7348 3.00015 11.4805 3.10549 11.293 3.293L7.99997 6.586L4.70697 3.293C4.61413 3.20016 4.5039 3.12651 4.3826 3.07626C4.26129 3.02601 4.13127 3.00015 3.99997 3.00015C3.86867 3.00015 3.73865 3.02601 3.61735 3.07626C3.49604 3.12651 3.38582 3.20016 3.29297 3.293C3.10546 3.48051 3.00012 3.73483 3.00012 4C3.00012 4.26518 3.10546 4.51949 3.29297 4.707L6.58597 8L3.29297 11.293C3.10546 11.4805 3.00012 11.7348 3.00012 12C3.00012 12.2652 3.10546 12.5195 3.29297 12.707C3.48048 12.8945 3.73479 12.9999 3.99997 12.9999C4.26515 12.9999 4.51946 12.8945 4.70697 12.707L7.99997 9.414L11.293 12.707C11.3856 12.8002 11.4958 12.8741 11.6171 12.9246C11.7385 12.9751 11.8686 13.001 12 13.001C12.1314 13.001 12.2615 12.9751 12.3828 12.9246C12.5042 12.8741 12.6143 12.8002 12.707 12.707C12.7999 12.6142 12.8737 12.504 12.924 12.3827C12.9743 12.2614 13.0002 12.1313 13.0002 12C13.0002 11.8687 12.9743 11.7386 12.924 11.6173C12.8737 11.496 12.7999 11.3858 12.707 11.293L9.41397 8Z"/>
</svg>
