<svg xmlns="http://www.w3.org/2000/svg" width="16" height="16"><path fill-rule="evenodd" d="M8 1C5.374 1 3 3.034 3 5.714v3.142c0 .073-.026.232-.104.43a1.395 1.395 0 0 1-.248.423L1.24 11.35A1 1 0 0 0 2 13h4.04c.185.856.992 1.5 1.96 1.5s1.775-.644 1.96-1.5H14a1 1 0 0 0 .759-1.651l-1.407-1.64a1.393 1.393 0 0 1-.248-.424A1.33 1.33 0 0 1 13 8.856V5.714C13 3.034 10.626 1 8 1ZM5 5.714C5 4.292 6.318 3 8 3s3 1.292 3 2.714v3.142c0 .401.106.816.244 1.164.132.334.326.692.58.98H4.176c.254-.288.448-.646.58-.98A3.27 3.27 0 0 0 5 8.855V5.714Z" clip-rule="evenodd"/></svg>
