<svg width="24" height="24" viewBox="0 0 24 24" xmlns="http://www.w3.org/2000/svg">
<path d="M20.502 5C21.902 5 23 6.2 23 7.637V16.363C23 17.8 21.898 19 20.502 19H7.99901C6.87501 19 5.46701 18.327 4.71901 17.442L1.64101 13.802C0.786016 12.791 0.785016 11.21 1.64101 10.198L4.72001 6.556C5.46901 5.67 6.87201 5 7.99901 5H20.502ZM20.502 7H7.99901C7.46902 7 6.62101 7.405 6.24601 7.849L3.16901 11.489C2.94301 11.755 2.94301 12.245 3.16901 12.511L6.24601 16.151C6.61901 16.593 7.47201 17.001 7.99901 17.001H20.502C20.753 17.001 21 16.731 21 16.363V7.637C21 7.267 20.756 7 20.502 7ZM11.658 9.193L11.752 9.276L13.044 10.568L14.338 9.276C14.518 9.09665 14.7594 8.99253 15.0134 8.98477C15.2673 8.97702 15.5147 9.06622 15.7053 9.23425C15.8959 9.40228 16.0153 9.63655 16.0394 9.88947C16.0635 10.1424 15.9904 10.395 15.835 10.596L15.752 10.69L14.459 11.983L15.752 13.276C15.9314 13.456 16.0355 13.6974 16.0432 13.9514C16.051 14.2053 15.9618 14.4527 15.7938 14.6433C15.6257 14.8338 15.3915 14.9533 15.1385 14.9774C14.8856 15.0015 14.633 14.9284 14.432 14.773L14.338 14.69L13.045 13.397L11.752 14.69C11.5721 14.8693 11.3306 14.9735 11.0766 14.9812C10.8227 14.989 10.5753 14.8998 10.3847 14.7318C10.1942 14.5637 10.0747 14.3294 10.0506 14.0765C10.0265 13.8236 10.0996 13.571 10.255 13.37L10.338 13.276L11.631 11.983L10.338 10.69C10.1587 10.51 10.0545 10.2686 10.0468 10.0146C10.039 9.76067 10.1282 9.51329 10.2963 9.32272C10.4643 9.13216 10.6986 9.01269 10.9515 8.9886C11.2044 8.96451 11.457 9.03759 11.658 9.193Z"/>
</svg>
