<svg width="24" height="24" viewBox="0 0 24 24" xmlns="http://www.w3.org/2000/svg">
<path d="M17.727 19C16.497 19 15.498 17.974 15.461 16.701V16.563C15.497 15.29 16.497 14.263 17.727 14.263C18.79 14.263 19.678 15.03 19.925 16.058L19.941 16.159C19.944 16.179 19.956 16.194 19.959 16.213C19.983 16.35 20 16.488 20 16.631C20 17.938 18.981 19 17.727 19ZM10.452 11.845C9.663 11.845 9.049 12.403 8.748 13.084C8.03168 12.5534 7.16445 12.2657 6.273 12.263C5.682 12.263 5.12 12.387 4.607 12.61L5.61 6.103C5.806 5.454 6.389 5 7.04 5C7.871 5 8.544 5.708 8.545 6.577L8.544 8.633C8.54453 8.89815 8.65002 9.1523 8.83742 9.33988C9.02481 9.52746 9.27885 9.63321 9.544 9.634H14.456C14.722 9.634 14.976 9.528 15.164 9.341C15.351 9.153 15.456 8.898 15.456 8.633L15.455 6.576C15.456 5.707 16.13 5 16.959 5C17.611 5 18.194 5.454 18.39 6.103L19.394 12.61C18.8681 12.3809 18.3006 12.2628 17.727 12.263C16.803 12.263 15.953 12.572 15.252 13.084C14.951 12.403 14.336 11.845 13.548 11.845H10.452ZM6.273 19C5.02 19 4 17.938 4 16.631C4 16.488 4.018 16.35 4.041 16.213C4.045 16.194 4.057 16.179 4.06 16.159L4.076 16.059C4.323 15.03 5.21 14.263 6.273 14.263C7.506 14.263 8.508 15.294 8.539 16.572V16.691C8.508 17.969 7.506 19 6.273 19ZM21.89 15.674L20.352 5.702C20.349 5.681 20.335 5.665 20.331 5.644C20.326 5.623 20.331 5.602 20.326 5.581C19.893 4.061 18.509 3 16.959 3C15.164 3 13.698 4.39 13.496 6.168C13.481 6.235 13.455 6.298 13.455 6.37V6.579L13.456 7.634H10.544L10.545 6.579V6.265C10.5411 6.16147 10.5208 6.05921 10.485 5.962C10.197 4.283 8.766 3 7.04 3C5.491 3 4.107 4.061 3.674 5.581C3.668 5.602 3.674 5.623 3.669 5.644C3.664 5.665 3.651 5.681 3.648 5.702L2.111 15.674C2.03941 15.988 2.00219 16.3089 2 16.631C2 19.04 3.917 21 6.273 21C8.584 21 10.462 19.11 10.533 16.763C10.533 16.75 10.54 16.74 10.54 16.728V16.69C10.54 16.67 10.545 16.652 10.545 16.631C10.545 16.611 10.54 16.593 10.54 16.573V13.991C10.54 13.955 10.565 13.892 10.593 13.845H13.407C13.435 13.892 13.459 13.955 13.459 13.992L13.461 16.564C13.46 16.587 13.455 16.608 13.455 16.631C13.455 16.655 13.461 16.676 13.461 16.7V16.832C13.461 16.877 13.481 16.915 13.487 16.958C13.654 19.212 15.481 21 17.727 21C20.083 21 22 19.04 22 16.631C22 16.301 21.957 15.983 21.89 15.674Z"/>
</svg>
