<svg width="24" height="24" viewBox="0 0 24 24" xmlns="http://www.w3.org/2000/svg">
<path fill-rule="evenodd" clip-rule="evenodd" d="M17 3.99999C17.0001 4.13132 16.9743 4.26139 16.924 4.38272C16.8737 4.50405 16.8 4.61425 16.707 4.70699L9.41402 12L16.707 19.293C16.8945 19.4805 16.9998 19.7348 16.9998 20C16.9998 20.2652 16.8945 20.5195 16.707 20.707C16.5195 20.8945 16.2652 20.9998 16 20.9998C15.7348 20.9998 15.4805 20.8945 15.293 20.707L7.29302 12.707C7.20007 12.6142 7.12633 12.504 7.07602 12.3827C7.02571 12.2614 6.99982 12.1313 6.99982 12C6.99982 11.8687 7.02571 11.7386 7.07602 11.6173C7.12633 11.496 7.20007 11.3858 7.29302 11.293L15.293 3.29299C15.4327 3.15269 15.6109 3.05704 15.805 3.0182C15.9991 2.97936 16.2004 2.99906 16.3833 3.07481C16.5662 3.15056 16.7224 3.27895 16.8322 3.44367C16.942 3.60839 17.0004 3.80202 17 3.99999Z"/>
</svg>
