<svg width="24" height="24" viewBox="0 0 24 24" xmlns="http://www.w3.org/2000/svg">
<path d="M19.002 3C20.104 3 21 3.897 21 5V19C21 20.103 20.104 21 19.002 21H14.011C13.458 21 13.011 20.552 13.011 20C13.011 19.448 13.458 19 14.011 19H19.002L19 5H14.011C13.458 5 13.011 4.552 13.011 4C13.011 3.448 13.458 3 14.011 3H19.002ZM10.1157 6.8059C10.5047 6.4149 11.1397 6.4149 11.5307 6.8069L15.3027 10.5859C16.0797 11.3649 16.0797 12.6329 15.3027 13.4129L11.5307 17.1939C11.3347 17.3889 11.0777 17.4869 10.8227 17.4869C10.5667 17.4869 10.3117 17.3899 10.1157 17.1949C9.72469 16.8049 9.72471 16.1719 10.1147 15.7809L12.8887 12.9999H3.99969C3.44769 12.9999 2.99969 12.5519 2.99969 11.9999C2.99969 11.4479 3.44769 10.9999 3.99969 10.9999H12.8887L10.1147 8.2199C9.72471 7.8289 9.72469 7.1959 10.1157 6.8059Z"/>
</svg>
