<svg width="24" height="24" viewBox="0 0 24 24" xmlns="http://www.w3.org/2000/svg">
<path d="M16.1685 9.0547L18.1325 11.9997H5.00049V4.99969H18.1325L16.1685 7.94569C15.9445 8.28169 15.9445 8.7187 16.1685 9.0547ZM6.00049 18.9507C6.00049 18.9687 5.99949 18.9847 5.99749 18.9997H5.00249C5.00149 18.9847 5.00049 18.9687 5.00049 18.9507V13.9997H6.00049V18.9507ZM18.2025 8.49969L20.8325 4.55469C21.0365 4.24769 21.0565 3.85369 20.8825 3.52869C20.7085 3.20269 20.3695 2.99969 20.0005 2.99969H4.00049C3.44749 2.99969 3.00049 3.44769 3.00049 3.99969V18.9507C3.00049 20.0997 3.76849 20.9997 4.75049 20.9997H6.25049C7.23149 20.9997 8.00049 20.0997 8.00049 18.9507V13.9997H20.0005C20.3695 13.9997 20.7085 13.7967 20.8825 13.4717C21.0565 13.1467 21.0365 12.7517 20.8325 12.4457L18.2025 8.49969Z"/>
</svg>
