<svg width="24" height="24" viewBox="0 0 24 24" xmlns="http://www.w3.org/2000/svg">
<path fill-rule="evenodd" clip-rule="evenodd" d="M15 19.0002H18.8C18.912 19.0002 19 18.9112 19 18.7972V9.36719L12 5.16619L5 9.36719V18.7972C5 18.9112 5.086 19.0002 5.197 19.0002H9V15.1112C9 13.9472 9.947 13.0002 11.111 13.0002H12.889C14.053 13.0002 15 13.9472 15 15.1112V19.0002ZM18.8 21.0002H14C13.448 21.0002 13 20.5522 13 20.0002V15.1112C13 15.0522 12.948 15.0002 12.889 15.0002H11.111C11.052 15.0002 11 15.0522 11 15.1112V20.0002C11 20.5522 10.552 21.0002 10 21.0002H5.197C3.986 21.0002 3 20.0122 3 18.7972V8.80019C3 8.44919 3.184 8.12419 3.485 7.94319L11.485 3.14319C11.803 2.95219 12.197 2.95219 12.515 3.14319L20.515 7.94319C20.816 8.12419 21 8.44919 21 8.80019V18.7972C21 20.0122 20.013 21.0002 18.8 21.0002Z"/>
</svg>
