<svg width="24" height="24" viewBox="0 0 24 24" xmlns="http://www.w3.org/2000/svg">
<path d="M4.896 13.704L11.643 17.921C11.806 18.023 12.193 18.023 12.358 17.921L19.104 13.704C19.3289 13.5634 19.6004 13.518 19.8589 13.5776C20.1173 13.6372 20.3414 13.7971 20.482 14.022C20.6226 14.2469 20.668 14.5184 20.6084 14.7769C20.5488 15.0353 20.3889 15.2594 20.164 15.4L13.418 19.617C13.014 19.87 12.507 19.996 12 19.996C11.493 19.996 10.986 19.87 10.583 19.616L3.836 15.4C3.6111 15.2594 3.45124 15.0353 3.39161 14.7769C3.33197 14.5184 3.37744 14.2469 3.518 14.022C3.65856 13.7971 3.88271 13.6372 4.14114 13.5776C4.39957 13.518 4.6711 13.5634 4.896 13.704ZM13.418 4.37899L20.163 8.59399C20.695 8.92699 21 9.43799 21 9.99699C21 10.557 20.695 11.067 20.163 11.4L13.418 15.617C13.013 15.87 12.507 15.996 12 15.996C11.493 15.996 10.986 15.87 10.582 15.616L3.836 11.4C3.304 11.068 3 10.557 3 9.99699C3 9.43699 3.304 8.92699 3.836 8.59399L10.582 4.37899C11.39 3.87399 12.609 3.87399 13.418 4.37899ZM11.641 6.07499L5.365 9.99699L11.642 13.921C11.805 14.023 12.194 14.023 12.358 13.921L18.635 9.99699L12.358 6.07499C12.194 5.97299 11.805 5.97299 11.641 6.07499Z"/>
</svg>
