<svg width="24" height="24" viewBox="0 0 24 24" xmlns="http://www.w3.org/2000/svg">
<path d="M19 16.531L15.8 17.608V7.62502C15.8 7.57302 15.778 7.52802 15.77 7.47802L19 6.39102V16.531ZM5 7.46802L8.2 6.39102V16.375C8.2 16.427 8.222 16.471 8.23 16.521L5 17.608V7.46802ZM10.2 16.375V6.36002L13.826 7.49302C13.82 7.53802 13.8 7.57802 13.8 7.62502V17.64L10.174 16.507C10.18 16.462 10.2 16.422 10.2 16.377V16.375ZM20.583 4.18802C20.4544 4.09499 20.3054 4.0341 20.1485 4.01044C19.9916 3.98678 19.8313 4.00103 19.681 4.05202L14.789 5.69802L9.499 4.04502C9.29739 3.98231 9.08114 3.98476 8.881 4.05202L3.681 5.80202C3.48252 5.86882 3.31002 5.99626 3.18783 6.16635C3.06565 6.33644 2.99995 6.54059 3 6.75002V19C2.99974 19.1588 3.03734 19.3154 3.10968 19.4567C3.18202 19.5981 3.28701 19.7202 3.41596 19.8129C3.54491 19.9055 3.69409 19.9661 3.85114 19.9897C4.00818 20.0132 4.16857 19.9989 4.319 19.948L9.211 18.301L14.501 19.954C14.703 20.017 14.918 20.014 15.119 19.948L20.319 18.198C20.5175 18.1312 20.69 18.0038 20.8122 17.8337C20.9344 17.6636 21.0001 17.4594 21 17.25V5.00002C21 4.84127 20.9622 4.68482 20.8897 4.54361C20.8172 4.40239 20.712 4.2805 20.583 4.18802Z"/>
</svg>
