<svg width="24" height="24" viewBox="0 0 24 24" xmlns="http://www.w3.org/2000/svg">
<path d="M12 2.00003C14.273 2.00003 16.41 2.89003 18.015 4.50603C21.328 7.83803 21.328 13.259 18.015 16.591L18 16.606L12.695 21.719C12.5088 21.8997 12.2595 22.0008 12 22.0008C11.7405 22.0008 11.4912 21.8997 11.305 21.719L5.99701 16.606C2.67001 13.26 2.67001 7.83703 5.98201 4.50603C6.76849 3.70969 7.7057 3.07796 8.73894 2.6477C9.77218 2.21744 10.8808 1.99726 12 2.00003ZM12 4.00003C11.1448 3.99795 10.2978 4.16622 9.50837 4.49501C8.71893 4.8238 8.00288 5.30653 7.40201 5.91503C4.86201 8.47003 4.86201 12.626 7.40201 15.181L12 19.611L16.604 15.174C19.137 12.618 19.134 8.46803 16.597 5.91503C15.9962 5.30674 15.2803 4.82414 14.491 4.49536C13.7018 4.16658 12.855 3.99819 12 4.00003ZM12 6.51603C13.0608 6.51682 14.078 6.93844 14.8283 7.68835C15.5786 8.43827 16.0007 9.45522 16.002 10.516C16.002 12.722 14.207 14.516 11.999 14.516C10.9382 14.5152 9.92104 14.0936 9.17075 13.3437C8.42046 12.5938 7.99833 11.5768 7.99701 10.516C7.99701 8.31003 9.79201 6.51603 11.999 6.51603H12ZM12 8.51603C11.4695 8.51629 10.9607 8.72703 10.5854 9.10198C10.21 9.47694 9.9988 9.98549 9.99801 10.516C9.99801 11.619 10.896 12.516 11.999 12.516C12.5295 12.5158 13.0383 12.305 13.4136 11.9301C13.789 11.5551 14.0002 11.0466 14.001 10.516C14.001 9.41303 13.103 8.51603 11.999 8.51603H12Z"/>
</svg>
