
<svg width="24" height="24" viewBox="0 0 24 24"  xmlns="http://www.w3.org/2000/svg">
<path d="M18.2201 4.66H15.9701C15.549 4.0616 14.9286 3.63267 14.2201 3.45001C14.0323 3.01726 13.7221 2.64881 13.3277 2.39001C12.9332 2.13121 12.4718 1.99335 12 1.99335C11.5283 1.99335 11.0669 2.13121 10.6725 2.39001C10.278 2.64881 9.96784 3.01726 9.78006 3.45001C9.06748 3.62969 8.44298 4.05902 8.02005 4.66H5.78006C5.30705 4.66265 4.85431 4.8524 4.52078 5.18781C4.18725 5.52321 4.00002 5.977 4.00003 6.45001V20.21C3.99871 20.4446 4.04379 20.6771 4.13266 20.8943C4.22152 21.1114 4.35243 21.3088 4.51785 21.4751C4.68327 21.6415 4.87997 21.7735 5.09659 21.8636C5.3132 21.9536 5.54546 22 5.78006 22H18.2201C18.6931 21.9974 19.1458 21.8076 19.4793 21.4722C19.8129 21.1368 20 20.683 20 20.21V6.45001C20 5.977 19.8129 5.52321 19.4793 5.18781C19.1458 4.8524 18.6931 4.66265 18.2201 4.66ZM10.6001 5.33002C10.8653 5.33002 11.1196 5.22465 11.3072 5.03711C11.4947 4.84957 11.6001 4.59523 11.6001 4.33002C11.6102 4.23356 11.6578 4.14494 11.7326 4.08322C11.8074 4.0215 11.9034 3.99161 12 4C12.0961 3.99412 12.1909 4.02493 12.2651 4.08618C12.3393 4.14743 12.3876 4.23458 12.4001 4.33002C12.4001 4.59523 12.5054 4.84957 12.693 5.03711C12.8805 5.22465 13.1348 5.33002 13.4001 5.33002C13.6135 5.3337 13.8214 5.39886 13.9987 5.5177C14.1761 5.63654 14.3155 5.80398 14.4001 6H9.52005C9.60861 5.7903 9.76008 5.61326 9.95352 5.49326C10.147 5.37325 10.3728 5.31622 10.6001 5.33002ZM18 20H6.03006V6.66H7.53006V7C7.53006 7.26522 7.63543 7.51959 7.82297 7.70712C8.0105 7.89466 8.26484 8 8.53006 8H15.5301C15.7953 8 16.0496 7.89466 16.2371 7.70712C16.4247 7.51959 16.5301 7.26522 16.5301 7V6.66H18.0301L18 20Z"/>
<path d="M15.0298 10H9.02979C8.76457 10 8.51023 10.1054 8.32269 10.2929C8.13516 10.4804 8.02979 10.7348 8.02979 11C8.02979 11.2652 8.13516 11.5196 8.32269 11.7071C8.51023 11.8947 8.76457 12 9.02979 12H15.0298C15.295 12 15.5493 11.8947 15.7369 11.7071C15.9244 11.5196 16.0298 11.2652 16.0298 11C16.0298 10.7348 15.9244 10.4804 15.7369 10.2929C15.5493 10.1054 15.295 10 15.0298 10Z"/>
<path d="M15.0298 13H9.02979C8.76457 13 8.51023 13.1054 8.32269 13.2929C8.13516 13.4804 8.02979 13.7348 8.02979 14C8.02979 14.2652 8.13516 14.5196 8.32269 14.7071C8.51023 14.8947 8.76457 15 9.02979 15H15.0298C15.295 15 15.5493 14.8947 15.7369 14.7071C15.9244 14.5196 16.0298 14.2652 16.0298 14C16.0298 13.7348 15.9244 13.4804 15.7369 13.2929C15.5493 13.1054 15.295 13 15.0298 13Z"/>
<path d="M15.0298 16H9.02979C8.76457 16 8.51023 16.1054 8.32269 16.2929C8.13516 16.4804 8.02979 16.7348 8.02979 17C8.02979 17.2652 8.13516 17.5196 8.32269 17.7071C8.51023 17.8947 8.76457 18 9.02979 18H15.0298C15.295 18 15.5493 17.8947 15.7369 17.7071C15.9244 17.5196 16.0298 17.2652 16.0298 17C16.0298 16.7348 15.9244 16.4804 15.7369 16.2929C15.5493 16.1054 15.295 16 15.0298 16Z"/>
</svg>
