<svg width="24" height="24" viewBox="0 0 24 24" xmlns="http://www.w3.org/2000/svg">
<path d="M12.002 11C11.7445 11.0115 11.5014 11.1219 11.3233 11.3082C11.1452 11.4945 11.0457 11.7423 11.0457 12C11.0457 12.2577 11.1452 12.5055 11.3233 12.6918C11.5014 12.8781 11.7445 12.9885 12.002 13C12.2595 12.9885 12.5026 12.8781 12.6807 12.6918C12.8589 12.5055 12.9583 12.2577 12.9583 12C12.9583 11.7423 12.8589 11.4945 12.6807 11.3082C12.5026 11.1219 12.2595 11.0115 12.002 11ZM12.002 15C10.348 15 9.00201 13.654 9.00201 12C9.00201 10.346 10.348 9 12.002 9C13.656 9 15.002 10.346 15.002 12C15.002 13.654 13.656 15 12.002 15ZM8.11201 15.522C8.34701 15.522 8.57901 15.604 8.76501 15.764C9.22501 16.161 9.74801 16.469 10.319 16.681C10.5107 16.7516 10.676 16.8793 10.7928 17.0469C10.9096 17.2144 10.9721 17.4138 10.972 17.618V18.797C10.972 18.909 11.069 19 11.19 19H12.814C12.932 19 13.031 18.907 13.031 18.797V17.696C13.0312 17.4851 13.098 17.2797 13.2219 17.1091C13.3458 16.9385 13.5205 16.8114 13.721 16.746C14.3294 16.5474 14.8949 16.236 15.388 15.828C15.5444 15.6986 15.7364 15.6198 15.9386 15.6021C16.1408 15.5844 16.3436 15.6287 16.52 15.729L17.455 16.261C17.562 16.321 17.705 16.289 17.763 16.187L18.576 14.801C18.5887 14.7801 18.5969 14.7567 18.6002 14.7325C18.6035 14.7082 18.6017 14.6835 18.595 14.66C18.5878 14.6336 18.5752 14.6089 18.558 14.5876C18.5408 14.5662 18.5193 14.5487 18.495 14.536L17.595 14.023C17.4123 13.9193 17.267 13.7607 17.1798 13.5697C17.0925 13.3786 17.0678 13.1649 17.109 12.959C17.2358 12.3256 17.2358 11.6734 17.109 11.04C17.0682 10.834 17.0932 10.6203 17.1806 10.4293C17.2681 10.2383 17.4134 10.0797 17.596 9.976L18.496 9.464C18.5202 9.45107 18.5415 9.4333 18.5585 9.41179C18.5755 9.39029 18.588 9.36551 18.595 9.339C18.6017 9.31524 18.6034 9.29034 18.5999 9.2659C18.5965 9.24145 18.588 9.21799 18.575 9.197L17.764 7.813C17.704 7.713 17.562 7.678 17.456 7.738L16.52 8.271C16.3436 8.37133 16.1408 8.41559 15.9386 8.39791C15.7364 8.38023 15.5444 8.30143 15.388 8.172C14.8954 7.7633 14.3297 7.45179 13.721 7.254C13.5204 7.18858 13.3456 7.06135 13.2216 6.89052C13.0977 6.7197 13.031 6.51405 13.031 6.303V5.202C13.031 5.091 12.934 5 12.814 5H11.19C11.07 5 10.972 5.093 10.972 5.202V6.382C10.972 6.8 10.711 7.174 10.318 7.32C9.74998 7.53007 9.22405 7.83993 8.76501 8.235C8.60908 8.37038 8.4149 8.4539 8.20938 8.47397C8.00386 8.49403 7.79718 8.44966 7.61801 8.347L6.54801 7.738C6.44601 7.681 6.29801 7.711 6.24001 7.812L5.42701 9.198C5.41415 9.21886 5.40574 9.24215 5.4023 9.26641C5.39885 9.29068 5.40046 9.31539 5.40701 9.339C5.41417 9.3656 5.42675 9.39043 5.44396 9.41194C5.46117 9.43345 5.48263 9.45117 5.50701 9.464L6.61001 10.092C6.78961 10.1937 6.93319 10.3487 7.02096 10.5355C7.10873 10.7224 7.13635 10.9318 7.10001 11.135C6.99955 11.7073 6.99955 12.2927 7.10001 12.865C7.1362 13.0682 7.10851 13.2776 7.02076 13.4644C6.93301 13.6512 6.7895 13.8061 6.61001 13.908L5.50701 14.536C5.4827 14.5487 5.46127 14.5662 5.44406 14.5876C5.42685 14.6089 5.41424 14.6336 5.40701 14.66C5.40032 14.6838 5.39864 14.7087 5.40208 14.7331C5.40552 14.7575 5.41401 14.781 5.42701 14.802L6.23901 16.187C6.29701 16.287 6.43901 16.32 6.54701 16.261L7.61701 15.653C7.76778 15.5669 7.93842 15.5218 8.11201 15.522ZM12.814 21H11.19C10.6039 21.0013 10.0413 20.7701 9.62548 20.3571C9.20967 19.9441 8.97466 19.3831 8.97201 18.797V18.276C8.64307 18.1158 8.32712 17.9303 8.02701 17.721L7.53601 18C7.02763 18.2888 6.42623 18.3665 5.86112 18.2165C5.29601 18.0666 4.81231 17.7008 4.51401 17.198L3.70201 15.813C3.55438 15.5638 3.45839 15.2874 3.41973 15.0004C3.38108 14.7133 3.40056 14.4214 3.47701 14.142C3.55197 13.8595 3.68281 13.595 3.86179 13.364C4.04076 13.1329 4.26424 12.9402 4.51901 12.797L5.04301 12.499C5.01903 12.1668 5.01903 11.8332 5.04301 11.501L4.51901 11.202C4.26427 11.059 4.0408 10.8664 3.86182 10.6356C3.68284 10.4047 3.55199 10.1403 3.47701 9.858C3.40049 9.57872 3.3808 9.28692 3.4191 8.99989C3.45741 8.71286 3.55293 8.43644 3.70001 8.187L4.51401 6.801C4.81249 6.29805 5.29644 5.93235 5.86178 5.78256C6.42711 5.63276 7.02865 5.71084 7.53701 6L8.02701 6.279C8.32701 6.069 8.64301 5.884 8.97201 5.723V5.202C8.97201 3.988 9.96701 3 11.19 3H12.814C14.036 3 15.031 3.988 15.031 5.202V5.618C15.403 5.784 15.761 5.981 16.099 6.209L16.467 6C16.9754 5.71124 17.5768 5.63348 18.1419 5.78346C18.707 5.93343 19.1907 6.29915 19.489 6.802L20.301 8.187C20.4486 8.43621 20.5446 8.71257 20.5833 8.99964C20.6219 9.28671 20.6025 9.57861 20.526 9.858C20.451 10.1403 20.3202 10.4047 20.1412 10.6356C19.9622 10.8664 19.7387 11.059 19.484 11.202L19.174 11.378C19.21 11.7916 19.21 12.2074 19.174 12.621L19.484 12.797C20.003 13.092 20.373 13.569 20.526 14.142C20.6024 14.4212 20.6219 14.7129 20.5834 14.9997C20.5449 15.2866 20.4492 15.5628 20.302 15.812L19.488 17.198C19.1895 17.7006 18.7058 18.0662 18.1408 18.2162C17.5758 18.3661 16.9745 18.2885 16.466 18L16.099 17.791C15.7606 18.0182 15.4033 18.2159 15.031 18.382V18.797C15.0284 19.3829 14.7935 19.9438 14.3779 20.3568C13.9623 20.7698 13.3999 21.0011 12.814 21Z"/>
</svg>
