<svg width="24" height="24" viewBox="0 0 24 24" xmlns="http://www.w3.org/2000/svg">
<path d="M15.413 18.877C15.406 18.925 15.321 19 15.273 19H8.7C8.652 19 8.568 18.926 8.561 18.878L7.14 8H16.86L15.414 18.877H15.413ZM10.5 5.5C10.5 5.328 10.89 5 11.5 5H12.5C13.11 5 13.5 5.328 13.5 5.5V6H10.5V5.5ZM20 6H15.5V5.5C15.5 4.121 14.154 3 12.5 3H11.5C9.846 3 8.5 4.121 8.5 5.5V6H4C3.73478 6 3.48043 6.10536 3.29289 6.29289C3.10536 6.48043 3 6.73478 3 7C3 7.26522 3.10536 7.51957 3.29289 7.70711C3.48043 7.89464 3.73478 8 4 8H5.123L6.58 19.137C6.65339 19.6494 6.90745 20.1187 7.29635 20.4603C7.68526 20.8019 8.18342 20.9933 8.701 21H15.272C16.325 21 17.258 20.183 17.395 19.14L18.876 8H20C20.2652 8 20.5196 7.89464 20.7071 7.70711C20.8946 7.51957 21 7.26522 21 7C21 6.73478 20.8946 6.48043 20.7071 6.29289C20.5196 6.10536 20.2652 6 20 6Z"/>
</svg>
