<svg width="24" height="24" viewBox="0 0 24 24" xmlns="http://www.w3.org/2000/svg">
<path d="M12.0002 12.5998C15.5842 12.5998 19.9222 14.7098 20.5082 15.9818C20.8302 16.6808 20.9642 18.2608 20.9972 18.7288C21.0002 20.0128 20.0142 20.9998 18.8022 20.9998H5.1982C3.9862 20.9998 3.0002 20.0128 3.0002 18.7998C3.0352 18.2608 3.1692 16.6808 3.4922 15.9818C4.0772 14.7098 8.4152 12.5998 12.0002 12.5998ZM12.0002 14.5998C9.0272 14.5998 5.7902 16.3498 5.2872 16.8718C5.1852 17.1708 5.0552 18.0618 4.9972 18.8708C5.0002 18.9098 5.0892 18.9998 5.1982 18.9998H18.8022C18.9112 18.9998 19.0002 18.9098 19.0002 18.7998C18.9442 18.0558 18.8142 17.1698 18.7132 16.8718C18.2102 16.3498 14.9722 14.5998 12.0002 14.5998ZM12 3C14.537 3 16.6 5.063 16.6 7.6C16.6 10.137 14.537 12.2 12 12.2C9.463 12.2 7.4 10.137 7.4 7.6C7.4 5.063 9.463 3 12 3ZM12 5C10.566 5 9.4 6.167 9.4 7.6C9.4 9.034 10.566 10.2 12 10.2C13.434 10.2 14.6 9.034 14.6 7.6C14.6 6.167 13.434 5 12 5Z"/>
</svg>
