<svg width="24" height="24" viewBox="0 0 24 24" xmlns="http://www.w3.org/2000/svg">
<path d="M17.5 12C17.7652 12 18.0196 12.1054 18.2071 12.2929C18.3946 12.4804 18.5 12.7348 18.5 13V15.5H21C21.2652 15.5 21.5196 15.6054 21.7071 15.7929C21.8946 15.9804 22 16.2348 22 16.5C22 16.7652 21.8946 17.0196 21.7071 17.2071C21.5196 17.3946 21.2652 17.5 21 17.5H18.5V20C18.5 20.2652 18.3946 20.5196 18.2071 20.7071C18.0196 20.8946 17.7652 21 17.5 21C17.2348 21 16.9804 20.8946 16.7929 20.7071C16.6054 20.5196 16.5 20.2652 16.5 20V17.5H14C13.7348 17.5 13.4804 17.3946 13.2929 17.2071C13.1054 17.0196 13 16.7652 13 16.5C13 16.2348 13.1054 15.9804 13.2929 15.7929C13.4804 15.6054 13.7348 15.5 14 15.5H16.5V13C16.5 12.7348 16.6054 12.4804 16.7929 12.2929C16.9804 12.1054 17.2348 12 17.5 12ZM10.5 12C10.858 12 11.22 12.02 11.583 12.062C11.7135 12.0764 11.8399 12.1165 11.955 12.1798C12.0701 12.2431 12.1716 12.3284 12.2536 12.4309C12.3357 12.5334 12.3968 12.6511 12.4334 12.7772C12.47 12.9034 12.4814 13.0355 12.467 13.166C12.4526 13.2965 12.4125 13.4229 12.3492 13.538C12.2859 13.6531 12.2006 13.7546 12.0981 13.8366C11.9956 13.9187 11.8779 13.9798 11.7518 14.0164C11.6256 14.053 11.4935 14.0644 11.363 14.05C11.0765 14.0175 10.7884 14.0008 10.5 14C7.718 14 4.764 15.596 4.262 16.1C4.169 16.387 4.051 17.205 3.997 17.946C4.002 17.946 4.056 18 4.123 18H11.473C11.7382 18 11.9926 18.1054 12.1801 18.2929C12.3676 18.4804 12.473 18.7348 12.473 19C12.473 19.2652 12.3676 19.5196 12.1801 19.7071C11.9926 19.8946 11.7382 20 11.473 20H4.123C3.55984 19.9992 3.02001 19.775 2.62198 19.3766C2.22396 18.9782 2.00026 18.4382 2 17.875C2.034 17.363 2.16 15.873 2.467 15.207C3.022 14 7.119 12 10.5 12ZM10.5 3C12.706 3 14.5 4.794 14.5 7C14.5 9.206 12.706 11 10.5 11C8.294 11 6.5 9.206 6.5 7C6.5 4.794 8.294 3 10.5 3ZM10.5 5C9.397 5 8.5 5.897 8.5 7C8.5 8.103 9.397 9 10.5 9C11.603 9 12.5 8.103 12.5 7C12.5 5.897 11.603 5 10.5 5Z"/>
</svg>
